<?xml version="1.0" encoding="utf-8" standalone="no"?>
<!DOCTYPE svg PUBLIC "-//W3C//DTD SVG 1.1//EN"
  "http://www.w3.org/Graphics/SVG/1.1/DTD/svg11.dtd">
<svg xmlns:xlink="http://www.w3.org/1999/xlink" width="345.6pt" height="259.2pt" viewBox="0 0 345.6 259.2" xmlns="http://www.w3.org/2000/svg" version="1.1">
 <metadata>
  <rdf:RDF xmlns:dc="http://purl.org/dc/elements/1.1/" xmlns:cc="http://creativecommons.org/ns#" xmlns:rdf="http://www.w3.org/1999/02/22-rdf-syntax-ns#">
   <cc:Work>
    <dc:type rdf:resource="http://purl.org/dc/dcmitype/StillImage"/>
    <dc:date>2026-07-20T00:40:45.416184</dc:date>
    <dc:format>image/svg+xml</dc:format>
    <dc:creator>
     <cc:Agent>
      <dc:title>Matplotlib v3.5.2, https://matplotlib.org/</dc:title>
     </cc:Agent>
    </dc:creator>
   </cc:Work>
  </rdf:RDF>
 </metadata>
 <defs>
  <style type="text/css">*{stroke-linejoin: round; stroke-linecap: butt}</style>
 </defs>
 <g id="figure_1">
  <g id="patch_1">
   <path d="M 0 259.2
L 345.6 259.2
L 345.6 0
L 0 0
z
" style="fill: #ffffff"/>
  </g>
  <g id="axes_1">
   <g id="patch_2">
    <path d="M 62.208 215.136
L 331.776 215.136
L 331.776 10.368
L 62.208 10.368
z
" style="fill: #ffffff"/>
   </g>
   <g id="matplotlib.axis_1">
    <g id="xtick_1">
     <g id="line2d_1">
      <defs>
       <path id="m012c78592e" d="M 0 0
L 0 3.5
" style="stroke: #252a31; stroke-width: 0.8"/>
      </defs>
      <g>
       <use xlink:href="#m012c78592e" x="74.461091" y="215.136" style="fill: #252a31; stroke: #252a31; stroke-width: 0.8"/>
      </g>
     </g>
     <g id="text_1">
      <text style="font: 10.5px 'Arial'; text-anchor: middle" x="74.461091" y="229.151703" transform="rotate(-0, 74.461091, 229.151703)">0</text>
     </g>
    </g>
    <g id="xtick_2">
     <g id="line2d_2">
      <g>
       <use xlink:href="#m012c78592e" x="108.497455" y="215.136" style="fill: #252a31; stroke: #252a31; stroke-width: 0.8"/>
      </g>
     </g>
     <g id="text_2">
      <text style="font: 10.5px 'Arial'; text-anchor: middle" x="108.497455" y="229.151703" transform="rotate(-0, 108.497455, 229.151703)">5</text>
     </g>
    </g>
    <g id="xtick_3">
     <g id="line2d_3">
      <g>
       <use xlink:href="#m012c78592e" x="142.533818" y="215.136" style="fill: #252a31; stroke: #252a31; stroke-width: 0.8"/>
      </g>
     </g>
     <g id="text_3">
      <text style="font: 10.5px 'Arial'; text-anchor: middle" x="142.533818" y="229.151703" transform="rotate(-0, 142.533818, 229.151703)">10</text>
     </g>
    </g>
    <g id="xtick_4">
     <g id="line2d_4">
      <g>
       <use xlink:href="#m012c78592e" x="176.570182" y="215.136" style="fill: #252a31; stroke: #252a31; stroke-width: 0.8"/>
      </g>
     </g>
     <g id="text_4">
      <text style="font: 10.5px 'Arial'; text-anchor: middle" x="176.570182" y="229.151703" transform="rotate(-0, 176.570182, 229.151703)">15</text>
     </g>
    </g>
    <g id="xtick_5">
     <g id="line2d_5">
      <g>
       <use xlink:href="#m012c78592e" x="210.606545" y="215.136" style="fill: #252a31; stroke: #252a31; stroke-width: 0.8"/>
      </g>
     </g>
     <g id="text_5">
      <text style="font: 10.5px 'Arial'; text-anchor: middle" x="210.606545" y="229.151703" transform="rotate(-0, 210.606545, 229.151703)">20</text>
     </g>
    </g>
    <g id="xtick_6">
     <g id="line2d_6">
      <g>
       <use xlink:href="#m012c78592e" x="244.642909" y="215.136" style="fill: #252a31; stroke: #252a31; stroke-width: 0.8"/>
      </g>
     </g>
     <g id="text_6">
      <text style="font: 10.5px 'Arial'; text-anchor: middle" x="244.642909" y="229.151703" transform="rotate(-0, 244.642909, 229.151703)">25</text>
     </g>
    </g>
    <g id="xtick_7">
     <g id="line2d_7">
      <g>
       <use xlink:href="#m012c78592e" x="278.679273" y="215.136" style="fill: #252a31; stroke: #252a31; stroke-width: 0.8"/>
      </g>
     </g>
     <g id="text_7">
      <text style="font: 10.5px 'Arial'; text-anchor: middle" x="278.679273" y="229.151703" transform="rotate(-0, 278.679273, 229.151703)">30</text>
     </g>
    </g>
    <g id="xtick_8">
     <g id="line2d_8">
      <g>
       <use xlink:href="#m012c78592e" x="312.715636" y="215.136" style="fill: #252a31; stroke: #252a31; stroke-width: 0.8"/>
      </g>
     </g>
     <g id="text_8">
      <text style="font: 10.5px 'Arial'; text-anchor: middle" x="312.715636" y="229.151703" transform="rotate(-0, 312.715636, 229.151703)">35</text>
     </g>
    </g>
    <g id="text_9">
     <text style="font: 12px 'Arial'; text-anchor: middle" x="196.992" y="243.827953" transform="rotate(-0, 196.992, 243.827953)">Time months</text>
    </g>
   </g>
   <g id="matplotlib.axis_2">
    <g id="ytick_1">
     <g id="line2d_9">
      <defs>
       <path id="m26b079fa32" d="M 0 0
L -3.5 0
" style="stroke: #252a31; stroke-width: 0.8"/>
      </defs>
      <g>
       <use xlink:href="#m26b079fa32" x="62.208" y="211.235657" style="fill: #252a31; stroke: #252a31; stroke-width: 0.8"/>
      </g>
     </g>
     <g id="text_10">
      <text style="font: 10.5px 'Arial'; text-anchor: end" x="55.708" y="214.993509" transform="rotate(-0, 55.708, 214.993509)">0.0</text>
     </g>
    </g>
    <g id="ytick_2">
     <g id="line2d_10">
      <g>
       <use xlink:href="#m26b079fa32" x="62.208" y="172.232229" style="fill: #252a31; stroke: #252a31; stroke-width: 0.8"/>
      </g>
     </g>
     <g id="text_11">
      <text style="font: 10.5px 'Arial'; text-anchor: end" x="55.708" y="175.99008" transform="rotate(-0, 55.708, 175.99008)">0.2</text>
     </g>
    </g>
    <g id="ytick_3">
     <g id="line2d_11">
      <g>
       <use xlink:href="#m26b079fa32" x="62.208" y="133.2288" style="fill: #252a31; stroke: #252a31; stroke-width: 0.8"/>
      </g>
     </g>
     <g id="text_12">
      <text style="font: 10.5px 'Arial'; text-anchor: end" x="55.708" y="136.986652" transform="rotate(-0, 55.708, 136.986652)">0.4</text>
     </g>
    </g>
    <g id="ytick_4">
     <g id="line2d_12">
      <g>
       <use xlink:href="#m26b079fa32" x="62.208" y="94.225371" style="fill: #252a31; stroke: #252a31; stroke-width: 0.8"/>
      </g>
     </g>
     <g id="text_13">
      <text style="font: 10.5px 'Arial'; text-anchor: end" x="55.708" y="97.983223" transform="rotate(-0, 55.708, 97.983223)">0.6</text>
     </g>
    </g>
    <g id="ytick_5">
     <g id="line2d_13">
      <g>
       <use xlink:href="#m26b079fa32" x="62.208" y="55.221943" style="fill: #252a31; stroke: #252a31; stroke-width: 0.8"/>
      </g>
     </g>
     <g id="text_14">
      <text style="font: 10.5px 'Arial'; text-anchor: end" x="55.708" y="58.979794" transform="rotate(-0, 55.708, 58.979794)">0.8</text>
     </g>
    </g>
    <g id="ytick_6">
     <g id="line2d_14">
      <g>
       <use xlink:href="#m26b079fa32" x="62.208" y="16.218514" style="fill: #252a31; stroke: #252a31; stroke-width: 0.8"/>
      </g>
     </g>
     <g id="text_15">
      <text style="font: 10.5px 'Arial'; text-anchor: end" x="55.708" y="19.976366" transform="rotate(-0, 55.708, 19.976366)">1.0</text>
     </g>
    </g>
    <g id="text_16">
     <text style="font: 12px 'Arial'; text-anchor: middle" x="34.587375" y="112.752" transform="rotate(-90, 34.587375, 112.752)">Survival probability</text>
    </g>
   </g>
   <g id="PolyCollection_1">
    <defs>
     <path id="ma8ef3eef05" d="M 74.461091 -242.981486
L 74.461091 -242.981486
L 75.170741 -242.981486
L 75.170741 -212.315108
L 76.304391 -212.315108
L 76.304391 -208.412555
L 81.241846 -208.412555
L 81.241846 -202.936625
L 82.548967 -202.936625
L 82.548967 -197.317004
L 86.436862 -197.317004
L 86.436862 -191.757945
L 88.375376 -191.757945
L 88.375376 -186.300911
L 89.963602 -186.300911
L 89.963602 -180.951249
L 91.652948 -180.951249
L 91.652948 -175.70486
L 97.170908 -175.70486
L 97.170908 -170.555433
L 98.938935 -170.555433
L 98.938935 -165.496632
L 103.006496 -165.496632
L 103.006496 -160.522765
L 109.089383 -160.522765
L 109.089383 -155.628928
L 110.126656 -155.628928
L 110.126656 -150.81099
L 115.308787 -150.81099
L 115.308787 -146.06552
L 118.947131 -146.06552
L 118.947131 -141.389706
L 123.638748 -141.389706
L 123.638748 -136.781288
L 128.985028 -136.781288
L 128.985028 -132.238497
L 133.965605 -132.238497
L 133.965605 -127.760006
L 135.758748 -127.760006
L 135.758748 -123.344896
L 137.446814 -123.344896
L 137.446814 -118.992635
L 138.435774 -118.992635
L 138.435774 -114.703061
L 144.27986 -114.703061
L 144.27986 -110.476382
L 145.255279 -110.476382
L 145.255279 -106.313181
L 163.786549 -106.313181
L 163.786549 -102.214435
L 173.712863 -102.214435
L 173.712863 -98.181542
L 186.399871 -98.181542
L 186.399871 -94.216369
L 195.521461 -94.216369
L 195.521461 -90.321315
L 195.826408 -90.321315
L 195.826408 -86.499389
L 199.17317 -86.499389
L 199.17317 -82.754337
L 212.930849 -82.754337
L 212.930849 -79.090792
L 218.033917 -79.090792
L 218.033917 -75.514495
L 221.498122 -75.514495
L 221.498122 -72.032606
L 227.363779 -72.032606
L 227.363779 -68.654139
L 233.632134 -68.654139
L 233.632134 -65.390615
L 235.937318 -65.390615
L 235.937318 -62.25705
L 256.317852 -62.25705
L 256.317852 -59.273548
L 258.018981 -59.273548
L 258.018981 -56.467969
L 259.873337 -56.467969
L 259.873337 -53.880773
L 319.522909 -53.880773
L 319.522909 -53.880773
L 319.522909 -88.060616
L 319.522909 -88.060616
L 319.522909 -88.060616
L 259.873337 -88.060616
L 259.873337 -93.898223
L 258.018981 -93.898223
L 258.018981 -99.552257
L 256.317852 -99.552257
L 256.317852 -105.053804
L 235.937318 -105.053804
L 235.937318 -110.425075
L 233.632134 -110.425075
L 233.632134 -115.682412
L 227.363779 -115.682412
L 227.363779 -120.838153
L 221.498122 -120.838153
L 221.498122 -125.901814
L 218.033917 -125.901814
L 218.033917 -130.880852
L 212.930849 -130.880852
L 212.930849 -135.781181
L 199.17317 -135.781181
L 199.17317 -140.607522
L 195.826408 -140.607522
L 195.826408 -145.363652
L 195.521461 -145.363652
L 195.521461 -150.052582
L 186.399871 -150.052582
L 186.399871 -154.676686
L 173.712863 -154.676686
L 173.712863 -159.237794
L 163.786549 -159.237794
L 163.786549 -163.737257
L 145.255279 -163.737257
L 145.255279 -168.176001
L 144.27986 -168.176001
L 144.27986 -172.554548
L 138.435774 -172.554548
L 138.435774 -176.873044
L 137.446814 -176.873044
L 137.446814 -181.131257
L 135.758748 -181.131257
L 135.758748 -185.328574
L 133.965605 -185.328574
L 133.965605 -189.46398
L 128.985028 -189.46398
L 128.985028 -193.536026
L 123.638748 -193.536026
L 123.638748 -197.54278
L 118.947131 -197.54278
L 118.947131 -201.481756
L 115.308787 -201.481756
L 115.308787 -205.349816
L 110.126656 -205.349816
L 110.126656 -209.143038
L 109.089383 -209.143038
L 109.089383 -212.856528
L 103.006496 -212.856528
L 103.006496 -216.484156
L 98.938935 -216.484156
L 98.938935 -220.018181
L 97.170908 -220.018181
L 97.170908 -223.448692
L 91.652948 -223.448692
L 91.652948 -226.76275
L 89.963602 -226.76275
L 89.963602 -229.943017
L 88.375376 -229.943017
L 88.375376 -232.965427
L 86.436862 -232.965427
L 86.436862 -235.794925
L 82.548967 -235.794925
L 82.548967 -238.376838
L 81.241846 -238.376838
L 81.241846 -240.61667
L 76.304391 -240.61667
L 76.304391 -242.320684
L 75.170741 -242.320684
L 75.170741 -242.981486
L 74.461091 -242.981486
z
"/>
    </defs>
    <g clip-path="url(#p444753ac5a)">
     <use xlink:href="#ma8ef3eef05" x="0" y="259.2" style="fill: #376795; fill-opacity: 0.12"/>
    </g>
   </g>
   <g id="PathCollection_1">
    <defs>
     <path id="m5ee07db4b8" d="M 0 2.915476
L 0 -2.915476
" style="stroke: #376795"/>
    </defs>
    <g clip-path="url(#p444753ac5a)">
     <use xlink:href="#m5ee07db4b8" x="319.522909" y="192.662596" style="fill: #376795; stroke: #376795"/>
     <use xlink:href="#m5ee07db4b8" x="319.522909" y="192.662596" style="fill: #376795; stroke: #376795"/>
     <use xlink:href="#m5ee07db4b8" x="319.522909" y="192.662596" style="fill: #376795; stroke: #376795"/>
     <use xlink:href="#m5ee07db4b8" x="319.522909" y="192.662596" style="fill: #376795; stroke: #376795"/>
    </g>
   </g>
   <g id="PolyCollection_2">
    <defs>
     <path id="md37a24493f" d="M 74.461091 -242.981486
L 74.461091 -242.981486
L 77.407178 -242.981486
L 77.407178 -212.315108
L 111.283596 -212.315108
L 111.283596 -208.412555
L 112.867371 -208.412555
L 112.867371 -202.936625
L 114.732919 -202.936625
L 114.732919 -197.317004
L 122.356659 -197.317004
L 122.356659 -191.757945
L 123.34514 -191.757945
L 123.34514 -186.300911
L 128.551863 -186.300911
L 128.551863 -180.951249
L 129.986836 -180.951249
L 129.986836 -175.70486
L 134.779813 -175.70486
L 134.779813 -170.555433
L 151.355156 -170.555433
L 151.355156 -165.496632
L 166.350867 -165.496632
L 166.350867 -160.522765
L 169.753971 -160.522765
L 169.753971 -155.628928
L 173.330947 -155.628928
L 173.330947 -150.81099
L 174.393058 -150.81099
L 174.393058 -146.06552
L 182.610324 -146.06552
L 182.610324 -141.389706
L 185.092748 -141.389706
L 185.092748 -136.781288
L 185.501084 -136.781288
L 185.501084 -132.238497
L 195.035281 -132.238497
L 195.035281 -127.760006
L 198.303362 -127.760006
L 198.303362 -123.344896
L 200.954026 -123.344896
L 200.954026 -118.992635
L 203.088854 -118.992635
L 203.088854 -114.703061
L 212.265612 -114.703061
L 212.265612 -110.476382
L 228.089949 -110.476382
L 228.089949 -106.313181
L 231.783102 -106.313181
L 231.783102 -102.214435
L 300.567419 -102.214435
L 300.567419 -98.181542
L 305.843108 -98.181542
L 305.843108 -94.216369
L 311.183074 -94.216369
L 311.183074 -90.321315
L 319.522909 -90.321315
L 319.522909 -90.321315
L 319.522909 -145.363652
L 319.522909 -145.363652
L 319.522909 -145.363652
L 311.183074 -145.363652
L 311.183074 -150.052582
L 305.843108 -150.052582
L 305.843108 -154.676686
L 300.567419 -154.676686
L 300.567419 -159.237794
L 231.783102 -159.237794
L 231.783102 -163.737257
L 228.089949 -163.737257
L 228.089949 -168.176001
L 212.265612 -168.176001
L 212.265612 -172.554548
L 203.088854 -172.554548
L 203.088854 -176.873044
L 200.954026 -176.873044
L 200.954026 -181.131257
L 198.303362 -181.131257
L 198.303362 -185.328574
L 195.035281 -185.328574
L 195.035281 -189.46398
L 185.501084 -189.46398
L 185.501084 -193.536026
L 185.092748 -193.536026
L 185.092748 -197.54278
L 182.610324 -197.54278
L 182.610324 -201.481756
L 174.393058 -201.481756
L 174.393058 -205.349816
L 173.330947 -205.349816
L 173.330947 -209.143038
L 169.753971 -209.143038
L 169.753971 -212.856528
L 166.350867 -212.856528
L 166.350867 -216.484156
L 151.355156 -216.484156
L 151.355156 -220.018181
L 134.779813 -220.018181
L 134.779813 -223.448692
L 129.986836 -223.448692
L 129.986836 -226.76275
L 128.551863 -226.76275
L 128.551863 -229.943017
L 123.34514 -229.943017
L 123.34514 -232.965427
L 122.356659 -232.965427
L 122.356659 -235.794925
L 114.732919 -235.794925
L 114.732919 -238.376838
L 112.867371 -238.376838
L 112.867371 -240.61667
L 111.283596 -240.61667
L 111.283596 -242.320684
L 77.407178 -242.320684
L 77.407178 -242.981486
L 74.461091 -242.981486
z
"/>
    </defs>
    <g clip-path="url(#p444753ac5a)">
     <use xlink:href="#md37a24493f" x="0" y="259.2" style="fill: #b72230; fill-opacity: 0.12"/>
    </g>
   </g>
   <g id="PathCollection_2">
    <defs>
     <path id="m88b44650f0" d="M 0 2.915476
L 0 -2.915476
" style="stroke: #b72230"/>
    </defs>
    <g clip-path="url(#p444753ac5a)">
     <use xlink:href="#m88b44650f0" x="319.522909" y="141.586678" style="fill: #b72230; stroke: #b72230"/>
     <use xlink:href="#m88b44650f0" x="319.522909" y="141.586678" style="fill: #b72230; stroke: #b72230"/>
     <use xlink:href="#m88b44650f0" x="319.522909" y="141.586678" style="fill: #b72230; stroke: #b72230"/>
     <use xlink:href="#m88b44650f0" x="319.522909" y="141.586678" style="fill: #b72230; stroke: #b72230"/>
     <use xlink:href="#m88b44650f0" x="319.522909" y="141.586678" style="fill: #b72230; stroke: #b72230"/>
     <use xlink:href="#m88b44650f0" x="319.522909" y="141.586678" style="fill: #b72230; stroke: #b72230"/>
     <use xlink:href="#m88b44650f0" x="319.522909" y="141.586678" style="fill: #b72230; stroke: #b72230"/>
     <use xlink:href="#m88b44650f0" x="319.522909" y="141.586678" style="fill: #b72230; stroke: #b72230"/>
     <use xlink:href="#m88b44650f0" x="319.522909" y="141.586678" style="fill: #b72230; stroke: #b72230"/>
     <use xlink:href="#m88b44650f0" x="319.522909" y="141.586678" style="fill: #b72230; stroke: #b72230"/>
     <use xlink:href="#m88b44650f0" x="319.522909" y="141.586678" style="fill: #b72230; stroke: #b72230"/>
     <use xlink:href="#m88b44650f0" x="319.522909" y="141.586678" style="fill: #b72230; stroke: #b72230"/>
     <use xlink:href="#m88b44650f0" x="319.522909" y="141.586678" style="fill: #b72230; stroke: #b72230"/>
     <use xlink:href="#m88b44650f0" x="319.522909" y="141.586678" style="fill: #b72230; stroke: #b72230"/>
     <use xlink:href="#m88b44650f0" x="319.522909" y="141.586678" style="fill: #b72230; stroke: #b72230"/>
    </g>
   </g>
   <g id="line2d_15">
    <path d="M 74.461091 16.218514
L 75.170741 16.218514
L 75.170741 20.86178
L 76.304391 20.86178
L 76.304391 25.505045
L 81.241846 25.505045
L 81.241846 30.14831
L 82.548967 30.14831
L 82.548967 34.791576
L 86.436862 34.791576
L 86.436862 39.434841
L 88.375376 39.434841
L 88.375376 44.078106
L 89.963602 44.078106
L 89.963602 48.721371
L 91.652948 48.721371
L 91.652948 53.364637
L 97.170908 53.364637
L 97.170908 58.007902
L 98.938935 58.007902
L 98.938935 62.651167
L 103.006496 62.651167
L 103.006496 67.294433
L 109.089383 67.294433
L 109.089383 71.937698
L 110.126656 71.937698
L 110.126656 76.580963
L 115.308787 76.580963
L 115.308787 81.224229
L 118.947131 81.224229
L 118.947131 85.867494
L 123.638748 85.867494
L 123.638748 90.510759
L 128.985028 90.510759
L 128.985028 95.154024
L 133.965605 95.154024
L 133.965605 99.79729
L 135.758748 99.79729
L 135.758748 104.440555
L 137.446814 104.440555
L 137.446814 109.08382
L 138.435774 109.08382
L 138.435774 113.727086
L 144.27986 113.727086
L 144.27986 118.370351
L 145.255279 118.370351
L 145.255279 123.013616
L 163.786549 123.013616
L 163.786549 127.656882
L 173.712863 127.656882
L 173.712863 132.300147
L 186.399871 132.300147
L 186.399871 136.943412
L 195.521461 136.943412
L 195.521461 141.586678
L 195.826408 141.586678
L 195.826408 146.229943
L 199.17317 146.229943
L 199.17317 150.873208
L 212.930849 150.873208
L 212.930849 155.516473
L 218.033917 155.516473
L 218.033917 160.159739
L 221.498122 160.159739
L 221.498122 164.803004
L 227.363779 164.803004
L 227.363779 169.446269
L 233.632134 169.446269
L 233.632134 174.089535
L 235.937318 174.089535
L 235.937318 178.7328
L 256.317852 178.7328
L 256.317852 183.376065
L 258.018981 183.376065
L 258.018981 188.019331
L 259.873337 188.019331
L 259.873337 192.662596
L 319.522909 192.662596
L 319.522909 192.662596
" clip-path="url(#p444753ac5a)" style="fill: none; stroke: #376795; stroke-width: 1.55; stroke-linecap: square"/>
   </g>
   <g id="line2d_16">
    <path d="M 74.461091 16.218514
L 77.407178 16.218514
L 77.407178 20.86178
L 111.283596 20.86178
L 111.283596 25.505045
L 112.867371 25.505045
L 112.867371 30.14831
L 114.732919 30.14831
L 114.732919 34.791576
L 122.356659 34.791576
L 122.356659 39.434841
L 123.34514 39.434841
L 123.34514 44.078106
L 128.551863 44.078106
L 128.551863 48.721371
L 129.986836 48.721371
L 129.986836 53.364637
L 134.779813 53.364637
L 134.779813 58.007902
L 151.355156 58.007902
L 151.355156 62.651167
L 166.350867 62.651167
L 166.350867 67.294433
L 169.753971 67.294433
L 169.753971 71.937698
L 173.330947 71.937698
L 173.330947 76.580963
L 174.393058 76.580963
L 174.393058 81.224229
L 182.610324 81.224229
L 182.610324 85.867494
L 185.092748 85.867494
L 185.092748 90.510759
L 185.501084 90.510759
L 185.501084 95.154024
L 195.035281 95.154024
L 195.035281 99.79729
L 198.303362 99.79729
L 198.303362 104.440555
L 200.954026 104.440555
L 200.954026 109.08382
L 203.088854 109.08382
L 203.088854 113.727086
L 212.265612 113.727086
L 212.265612 118.370351
L 228.089949 118.370351
L 228.089949 123.013616
L 231.783102 123.013616
L 231.783102 127.656882
L 300.567419 127.656882
L 300.567419 132.300147
L 305.843108 132.300147
L 305.843108 136.943412
L 311.183074 136.943412
L 311.183074 141.586678
L 319.522909 141.586678
L 319.522909 141.586678
" clip-path="url(#p444753ac5a)" style="fill: none; stroke: #b72230; stroke-width: 1.55; stroke-linecap: square"/>
   </g>
   <g id="patch_3">
    <path d="M 62.208 215.136
L 62.208 10.368
" style="fill: none; stroke: #252a31; stroke-width: 0.9; stroke-linejoin: miter; stroke-linecap: square"/>
   </g>
   <g id="patch_4">
    <path d="M 62.208 215.136
L 331.776 215.136
" style="fill: none; stroke: #252a31; stroke-width: 0.9; stroke-linejoin: miter; stroke-linecap: square"/>
   </g>
   <g id="legend_1">
    <g id="line2d_17">
     <path d="M 249.583812 23.025813
L 259.583813 23.025813
L 259.583813 23.025813
L 269.583813 23.025813
L 269.583813 23.025813
" style="fill: none; stroke: #376795; stroke-width: 1.55; stroke-linecap: square"/>
    </g>
    <g id="text_17">
     <text style="font: 10px 'Arial'; text-anchor: start" x="277.583813" y="26.525813" transform="rotate(-0, 277.583813, 26.525813)">Control</text>
    </g>
    <g id="line2d_18">
     <path d="M 249.583812 37.171125
L 259.583813 37.171125
L 259.583813 37.171125
L 269.583813 37.171125
L 269.583813 37.171125
" style="fill: none; stroke: #b72230; stroke-width: 1.55; stroke-linecap: square"/>
    </g>
    <g id="text_18">
     <text style="font: 10px 'Arial'; text-anchor: start" x="277.583813" y="40.671125" transform="rotate(-0, 277.583813, 40.671125)">Treatment</text>
    </g>
   </g>
  </g>
 </g>
 <defs>
  <clipPath id="p444753ac5a">
   <rect x="62.208" y="10.368" width="269.568" height="204.768"/>
  </clipPath>
 </defs>
</svg>
