<?xml version="1.0" encoding="utf-8" standalone="no"?>
<!DOCTYPE svg PUBLIC "-//W3C//DTD SVG 1.1//EN"
  "http://www.w3.org/Graphics/SVG/1.1/DTD/svg11.dtd">
<svg xmlns:xlink="http://www.w3.org/1999/xlink" width="345.6pt" height="259.2pt" viewBox="0 0 345.6 259.2" xmlns="http://www.w3.org/2000/svg" version="1.1">
 <metadata>
  <rdf:RDF xmlns:dc="http://purl.org/dc/elements/1.1/" xmlns:cc="http://creativecommons.org/ns#" xmlns:rdf="http://www.w3.org/1999/02/22-rdf-syntax-ns#">
   <cc:Work>
    <dc:type rdf:resource="http://purl.org/dc/dcmitype/StillImage"/>
    <dc:date>2026-07-19T18:39:38.528179</dc:date>
    <dc:format>image/svg+xml</dc:format>
    <dc:creator>
     <cc:Agent>
      <dc:title>Matplotlib v3.5.2, https://matplotlib.org/</dc:title>
     </cc:Agent>
    </dc:creator>
   </cc:Work>
  </rdf:RDF>
 </metadata>
 <defs>
  <style type="text/css">*{stroke-linejoin: round; stroke-linecap: butt}</style>
 </defs>
 <g id="figure_1">
  <g id="patch_1">
   <path d="M 0 259.2
L 345.6 259.2
L 345.6 0
L 0 0
z
" style="fill: #ffffff"/>
  </g>
  <g id="axes_1">
   <g id="patch_2">
    <path d="M 69.12 207.36
L 331.776 207.36
L 331.776 46.656
L 69.12 46.656
z
" style="fill: #ffffff"/>
   </g>
   <g id="matplotlib.axis_1">
    <g id="xtick_1">
     <g id="line2d_1">
      <defs>
       <path id="mf17a918b86" d="M 0 0
L 0 4
" style="stroke: #252a31; stroke-width: 0.8"/>
      </defs>
      <g>
       <use xlink:href="#mf17a918b86" x="208.413239" y="207.36" style="fill: #252a31; stroke: #252a31; stroke-width: 0.8"/>
      </g>
     </g>
     <g id="text_1">
      <text style="font: 10.5px 'Arial'; text-anchor: middle" x="208.413239" y="222.875703" transform="rotate(-0, 208.413239, 222.875703)">After − Before</text>
     </g>
    </g>
   </g>
   <g id="matplotlib.axis_2">
    <g id="ytick_1">
     <g id="line2d_2">
      <defs>
       <path id="mc20da576c1" d="M 0 0
L -4 0
" style="stroke: #252a31; stroke-width: 0.8"/>
      </defs>
      <g>
       <use xlink:href="#mc20da576c1" x="69.12" y="200.055273" style="fill: #252a31; stroke: #252a31; stroke-width: 0.8"/>
      </g>
     </g>
     <g id="text_2">
      <text style="font: 10.5px 'Arial'; text-anchor: end" x="61.12" y="203.813124" transform="rotate(-0, 61.12, 203.813124)">0.00</text>
     </g>
    </g>
    <g id="ytick_2">
     <g id="line2d_3">
      <g>
       <use xlink:href="#mc20da576c1" x="69.12" y="175.706182" style="fill: #252a31; stroke: #252a31; stroke-width: 0.8"/>
      </g>
     </g>
     <g id="text_3">
      <text style="font: 10.5px 'Arial'; text-anchor: end" x="61.12" y="179.464033" transform="rotate(-0, 61.12, 179.464033)">0.25</text>
     </g>
    </g>
    <g id="ytick_3">
     <g id="line2d_4">
      <g>
       <use xlink:href="#mc20da576c1" x="69.12" y="151.357091" style="fill: #252a31; stroke: #252a31; stroke-width: 0.8"/>
      </g>
     </g>
     <g id="text_4">
      <text style="font: 10.5px 'Arial'; text-anchor: end" x="61.12" y="155.114942" transform="rotate(-0, 61.12, 155.114942)">0.50</text>
     </g>
    </g>
    <g id="ytick_4">
     <g id="line2d_5">
      <g>
       <use xlink:href="#mc20da576c1" x="69.12" y="127.008" style="fill: #252a31; stroke: #252a31; stroke-width: 0.8"/>
      </g>
     </g>
     <g id="text_5">
      <text style="font: 10.5px 'Arial'; text-anchor: end" x="61.12" y="130.765852" transform="rotate(-0, 61.12, 130.765852)">0.75</text>
     </g>
    </g>
    <g id="ytick_5">
     <g id="line2d_6">
      <g>
       <use xlink:href="#mc20da576c1" x="69.12" y="102.658909" style="fill: #252a31; stroke: #252a31; stroke-width: 0.8"/>
      </g>
     </g>
     <g id="text_6">
      <text style="font: 10.5px 'Arial'; text-anchor: end" x="61.12" y="106.416761" transform="rotate(-0, 61.12, 106.416761)">1.00</text>
     </g>
    </g>
    <g id="ytick_6">
     <g id="line2d_7">
      <g>
       <use xlink:href="#mc20da576c1" x="69.12" y="78.309818" style="fill: #252a31; stroke: #252a31; stroke-width: 0.8"/>
      </g>
     </g>
     <g id="text_7">
      <text style="font: 10.5px 'Arial'; text-anchor: end" x="61.12" y="82.06767" transform="rotate(-0, 61.12, 82.06767)">1.25</text>
     </g>
    </g>
    <g id="ytick_7">
     <g id="line2d_8">
      <g>
       <use xlink:href="#mc20da576c1" x="69.12" y="53.960727" style="fill: #252a31; stroke: #252a31; stroke-width: 0.8"/>
      </g>
     </g>
     <g id="text_8">
      <text style="font: 10.5px 'Arial'; text-anchor: end" x="61.12" y="57.718579" transform="rotate(-0, 61.12, 57.718579)">1.50</text>
     </g>
    </g>
    <g id="text_9">
     <text style="font: 12px 'Arial'; text-anchor: middle" x="34.160391" y="127.008" transform="rotate(-90, 34.160391, 127.008)">Difference in Response (normalized units)</text>
    </g>
   </g>
   <g id="line2d_9">
    <path d="M 69.12 200.055273
L 331.776 200.055273
" clip-path="url(#p7d84f6f068)" style="fill: none; stroke-dasharray: 2.96,1.28; stroke-dashoffset: 0; stroke: #8e98a3; stroke-width: 0.8"/>
   </g>
   <g id="patch_3">
    <path d="M 69.12 207.36
L 69.12 46.656
" style="fill: none; stroke: #252a31; stroke-width: 0.9; stroke-linejoin: miter; stroke-linecap: square"/>
   </g>
   <g id="patch_4">
    <path d="M 69.12 207.36
L 331.776 207.36
" style="fill: none; stroke: #252a31; stroke-width: 0.9; stroke-linejoin: miter; stroke-linecap: square"/>
   </g>
   <g id="PathCollection_1">
    <defs>
     <path id="m1b7175f016" d="M 0 2.54951
C 0.676138 2.54951 1.324674 2.280877 1.802776 1.802776
C 2.280877 1.324674 2.54951 0.676138 2.54951 0
C 2.54951 -0.676138 2.280877 -1.324674 1.802776 -1.802776
C 1.324674 -2.280877 0.676138 -2.54951 0 -2.54951
C -0.676138 -2.54951 -1.324674 -2.280877 -1.802776 -1.802776
C -2.280877 -1.324674 -2.54951 -0.676138 -2.54951 0
C -2.54951 0.676138 -2.280877 1.324674 -1.802776 1.802776
C -1.324674 2.280877 -0.676138 2.54951 0 2.54951
z
" style="stroke: #ffffff; stroke-opacity: 0.75; stroke-width: 0.35"/>
    </defs>
    <g clip-path="url(#p7d84f6f068)">
     <use xlink:href="#m1b7175f016" x="185.29848" y="63.700364" style="fill: #b72230; fill-opacity: 0.75; stroke: #ffffff; stroke-opacity: 0.75; stroke-width: 0.35"/>
     <use xlink:href="#m1b7175f016" x="290.485861" y="83.179636" style="fill: #b72230; fill-opacity: 0.75; stroke: #ffffff; stroke-opacity: 0.75; stroke-width: 0.35"/>
     <use xlink:href="#m1b7175f016" x="81.058909" y="122.138182" style="fill: #b72230; fill-opacity: 0.75; stroke: #ffffff; stroke-opacity: 0.75; stroke-width: 0.35"/>
     <use xlink:href="#m1b7175f016" x="204.090976" y="53.960727" style="fill: #b72230; fill-opacity: 0.75; stroke: #ffffff; stroke-opacity: 0.75; stroke-width: 0.35"/>
     <use xlink:href="#m1b7175f016" x="195.860484" y="92.919273" style="fill: #b72230; fill-opacity: 0.75; stroke: #ffffff; stroke-opacity: 0.75; stroke-width: 0.35"/>
     <use xlink:href="#m1b7175f016" x="198.105848" y="131.877818" style="fill: #b72230; fill-opacity: 0.75; stroke: #ffffff; stroke-opacity: 0.75; stroke-width: 0.35"/>
     <use xlink:href="#m1b7175f016" x="319.837091" y="73.44" style="fill: #b72230; fill-opacity: 0.75; stroke: #ffffff; stroke-opacity: 0.75; stroke-width: 0.35"/>
     <use xlink:href="#m1b7175f016" x="160.125323" y="92.919273" style="fill: #b72230; fill-opacity: 0.75; stroke: #ffffff; stroke-opacity: 0.75; stroke-width: 0.35"/>
     <use xlink:href="#m1b7175f016" x="246.245598" y="63.700364" style="fill: #b72230; fill-opacity: 0.75; stroke: #ffffff; stroke-opacity: 0.75; stroke-width: 0.35"/>
     <use xlink:href="#m1b7175f016" x="312.060011" y="122.138182" style="fill: #b72230; fill-opacity: 0.75; stroke: #ffffff; stroke-opacity: 0.75; stroke-width: 0.35"/>
     <use xlink:href="#m1b7175f016" x="159.675772" y="83.179636" style="fill: #b72230; fill-opacity: 0.75; stroke: #ffffff; stroke-opacity: 0.75; stroke-width: 0.35"/>
     <use xlink:href="#m1b7175f016" x="276.187613" y="83.179636" style="fill: #b72230; fill-opacity: 0.75; stroke: #ffffff; stroke-opacity: 0.75; stroke-width: 0.35"/>
    </g>
   </g>
   <g id="LineCollection_1">
    <path d="M 208.413239 104.793678
L 208.413239 72.928504
" clip-path="url(#p7d84f6f068)" style="fill: none; stroke: #20242a; stroke-width: 1.25"/>
   </g>
   <g id="line2d_10">
    <defs>
     <path id="m9df577f080" d="M 4 0
L -4 -0
" style="stroke: #20242a; stroke-width: 1.2"/>
    </defs>
    <g clip-path="url(#p7d84f6f068)">
     <use xlink:href="#m9df577f080" x="208.413239" y="104.793678" style="fill: #20242a; stroke: #20242a; stroke-width: 1.2"/>
    </g>
   </g>
   <g id="line2d_11">
    <g clip-path="url(#p7d84f6f068)">
     <use xlink:href="#m9df577f080" x="208.413239" y="72.928504" style="fill: #20242a; stroke: #20242a; stroke-width: 1.2"/>
    </g>
   </g>
   <g id="line2d_12">
    <defs>
     <path id="mb2774fc66c" d="M 0 2.75
C 0.729309 2.75 1.428845 2.460243 1.944544 1.944544
C 2.460243 1.428845 2.75 0.729309 2.75 0
C 2.75 -0.729309 2.460243 -1.428845 1.944544 -1.944544
C 1.428845 -2.460243 0.729309 -2.75 0 -2.75
C -0.729309 -2.75 -1.428845 -2.460243 -1.944544 -1.944544
C -2.460243 -1.428845 -2.75 -0.729309 -2.75 0
C -2.75 0.729309 -2.460243 1.428845 -1.944544 1.944544
C -1.428845 2.460243 -0.729309 2.75 0 2.75
z
" style="stroke: #20242a; stroke-width: 1.2"/>
    </defs>
    <g clip-path="url(#p7d84f6f068)">
     <use xlink:href="#mb2774fc66c" x="208.413239" y="88.861091" style="fill: #ffffff; stroke: #20242a; stroke-width: 1.2"/>
    </g>
   </g>
  </g>
  <g id="text_10">
   <text style="fill: #333333; font: 9.5px 'Arial'; text-anchor: start" x="69.12" y="21.171703" transform="rotate(-0, 69.12, 21.171703)">Paired mean difference = 1.14 (95% CI 0.978 to 1.31)</text>
  </g>
 </g>
 <defs>
  <clipPath id="p7d84f6f068">
   <rect x="69.12" y="46.656" width="262.656" height="160.704"/>
  </clipPath>
 </defs>
</svg>
