<?xml version="1.0" encoding="utf-8" standalone="no"?>
<!DOCTYPE svg PUBLIC "-//W3C//DTD SVG 1.1//EN"
  "http://www.w3.org/Graphics/SVG/1.1/DTD/svg11.dtd">
<svg xmlns:xlink="http://www.w3.org/1999/xlink" width="345.6pt" height="259.2pt" viewBox="0 0 345.6 259.2" xmlns="http://www.w3.org/2000/svg" version="1.1">
 <metadata>
  <rdf:RDF xmlns:dc="http://purl.org/dc/elements/1.1/" xmlns:cc="http://creativecommons.org/ns#" xmlns:rdf="http://www.w3.org/1999/02/22-rdf-syntax-ns#">
   <cc:Work>
    <dc:type rdf:resource="http://purl.org/dc/dcmitype/StillImage"/>
    <dc:date>2026-07-20T00:42:50.278368</dc:date>
    <dc:format>image/svg+xml</dc:format>
    <dc:creator>
     <cc:Agent>
      <dc:title>Matplotlib v3.5.2, https://matplotlib.org/</dc:title>
     </cc:Agent>
    </dc:creator>
   </cc:Work>
  </rdf:RDF>
 </metadata>
 <defs>
  <style type="text/css">*{stroke-linejoin: round; stroke-linecap: butt}</style>
 </defs>
 <g id="figure_1">
  <g id="patch_1">
   <path d="M 0 259.2
L 345.6 259.2
L 345.6 0
L 0 0
z
" style="fill: #ffffff"/>
  </g>
  <g id="axes_1">
   <g id="patch_2">
    <path d="M 62.208 215.136
L 331.776 215.136
L 331.776 10.368
L 62.208 10.368
z
" style="fill: #ffffff"/>
   </g>
   <g id="matplotlib.axis_1">
    <g id="xtick_1">
     <g id="line2d_1">
      <defs>
       <path id="m0c760b4756" d="M 0 0
L 0 3.5
" style="stroke: #252a31; stroke-width: 0.8"/>
      </defs>
      <g>
       <use xlink:href="#m0c760b4756" x="62.208" y="215.136" style="fill: #252a31; stroke: #252a31; stroke-width: 0.8"/>
      </g>
     </g>
     <g id="text_1">
      <text style="font: 10.5px 'Arial'; text-anchor: middle" x="62.208" y="229.151703" transform="rotate(-0, 62.208, 229.151703)">0.0</text>
     </g>
    </g>
    <g id="xtick_2">
     <g id="line2d_2">
      <g>
       <use xlink:href="#m0c760b4756" x="116.1216" y="215.136" style="fill: #252a31; stroke: #252a31; stroke-width: 0.8"/>
      </g>
     </g>
     <g id="text_2">
      <text style="font: 10.5px 'Arial'; text-anchor: middle" x="116.1216" y="229.151703" transform="rotate(-0, 116.1216, 229.151703)">0.2</text>
     </g>
    </g>
    <g id="xtick_3">
     <g id="line2d_3">
      <g>
       <use xlink:href="#m0c760b4756" x="170.0352" y="215.136" style="fill: #252a31; stroke: #252a31; stroke-width: 0.8"/>
      </g>
     </g>
     <g id="text_3">
      <text style="font: 10.5px 'Arial'; text-anchor: middle" x="170.0352" y="229.151703" transform="rotate(-0, 170.0352, 229.151703)">0.4</text>
     </g>
    </g>
    <g id="xtick_4">
     <g id="line2d_4">
      <g>
       <use xlink:href="#m0c760b4756" x="223.9488" y="215.136" style="fill: #252a31; stroke: #252a31; stroke-width: 0.8"/>
      </g>
     </g>
     <g id="text_4">
      <text style="font: 10.5px 'Arial'; text-anchor: middle" x="223.9488" y="229.151703" transform="rotate(-0, 223.9488, 229.151703)">0.6</text>
     </g>
    </g>
    <g id="xtick_5">
     <g id="line2d_5">
      <g>
       <use xlink:href="#m0c760b4756" x="277.8624" y="215.136" style="fill: #252a31; stroke: #252a31; stroke-width: 0.8"/>
      </g>
     </g>
     <g id="text_5">
      <text style="font: 10.5px 'Arial'; text-anchor: middle" x="277.8624" y="229.151703" transform="rotate(-0, 277.8624, 229.151703)">0.8</text>
     </g>
    </g>
    <g id="xtick_6">
     <g id="line2d_6">
      <g>
       <use xlink:href="#m0c760b4756" x="331.776" y="215.136" style="fill: #252a31; stroke: #252a31; stroke-width: 0.8"/>
      </g>
     </g>
     <g id="text_6">
      <text style="font: 10.5px 'Arial'; text-anchor: middle" x="331.776" y="229.151703" transform="rotate(-0, 331.776, 229.151703)">1.0</text>
     </g>
    </g>
    <g id="text_7">
     <text style="font: 12px 'Arial'; text-anchor: middle" x="196.992" y="243.827953" transform="rotate(-0, 196.992, 243.827953)">Recall</text>
    </g>
   </g>
   <g id="matplotlib.axis_2">
    <g id="ytick_1">
     <g id="line2d_7">
      <defs>
       <path id="me1664e2925" d="M 0 0
L -3.5 0
" style="stroke: #252a31; stroke-width: 0.8"/>
      </defs>
      <g>
       <use xlink:href="#me1664e2925" x="62.208" y="215.136" style="fill: #252a31; stroke: #252a31; stroke-width: 0.8"/>
      </g>
     </g>
     <g id="text_8">
      <text style="font: 10.5px 'Arial'; text-anchor: end" x="55.708" y="218.893852" transform="rotate(-0, 55.708, 218.893852)">0.0</text>
     </g>
    </g>
    <g id="ytick_2">
     <g id="line2d_8">
      <g>
       <use xlink:href="#me1664e2925" x="62.208" y="174.587881" style="fill: #252a31; stroke: #252a31; stroke-width: 0.8"/>
      </g>
     </g>
     <g id="text_9">
      <text style="font: 10.5px 'Arial'; text-anchor: end" x="55.708" y="178.345733" transform="rotate(-0, 55.708, 178.345733)">0.2</text>
     </g>
    </g>
    <g id="ytick_3">
     <g id="line2d_9">
      <g>
       <use xlink:href="#me1664e2925" x="62.208" y="134.039762" style="fill: #252a31; stroke: #252a31; stroke-width: 0.8"/>
      </g>
     </g>
     <g id="text_10">
      <text style="font: 10.5px 'Arial'; text-anchor: end" x="55.708" y="137.797614" transform="rotate(-0, 55.708, 137.797614)">0.4</text>
     </g>
    </g>
    <g id="ytick_4">
     <g id="line2d_10">
      <g>
       <use xlink:href="#me1664e2925" x="62.208" y="93.491644" style="fill: #252a31; stroke: #252a31; stroke-width: 0.8"/>
      </g>
     </g>
     <g id="text_11">
      <text style="font: 10.5px 'Arial'; text-anchor: end" x="55.708" y="97.249495" transform="rotate(-0, 55.708, 97.249495)">0.6</text>
     </g>
    </g>
    <g id="ytick_5">
     <g id="line2d_11">
      <g>
       <use xlink:href="#me1664e2925" x="62.208" y="52.943525" style="fill: #252a31; stroke: #252a31; stroke-width: 0.8"/>
      </g>
     </g>
     <g id="text_12">
      <text style="font: 10.5px 'Arial'; text-anchor: end" x="55.708" y="56.701376" transform="rotate(-0, 55.708, 56.701376)">0.8</text>
     </g>
    </g>
    <g id="ytick_6">
     <g id="line2d_12">
      <g>
       <use xlink:href="#me1664e2925" x="62.208" y="12.395406" style="fill: #252a31; stroke: #252a31; stroke-width: 0.8"/>
      </g>
     </g>
     <g id="text_13">
      <text style="font: 10.5px 'Arial'; text-anchor: end" x="55.708" y="16.153258" transform="rotate(-0, 55.708, 16.153258)">1.0</text>
     </g>
    </g>
    <g id="text_14">
     <text style="font: 12px 'Arial'; text-anchor: middle" x="34.728" y="112.752" transform="rotate(-90, 34.728, 112.752)">Precision</text>
    </g>
   </g>
   <g id="line2d_13">
    <path d="M 62.208 12.395406
L 72.192 12.395406
L 82.176 12.395406
L 92.16 12.395406
L 102.144 12.395406
L 112.128 12.395406
L 122.112 12.395406
L 132.096 12.395406
L 142.08 12.395406
L 152.064 12.395406
L 162.048 12.395406
L 172.032 12.395406
L 182.016 12.395406
L 192 12.395406
L 192 26.876877
L 201.984 25.911446
L 211.968 25.066693
L 221.952 24.321323
L 221.952 34.922139
L 231.936 33.736521
L 231.936 42.806495
L 241.92 41.358348
L 241.92 49.257332
L 251.904 47.65464
L 261.888 46.185505
L 271.872 44.833901
L 281.856 43.586267
L 281.856 49.93996
L 291.84 48.599083
L 291.84 54.341736
L 301.824 52.943525
L 301.824 58.17554
L 311.808 56.744911
L 321.792 55.400986
L 321.792 60.099075
L 321.792 64.528702
L 321.792 68.712238
L 321.792 72.669637
L 321.792 76.418751
L 321.792 79.975604
L 321.792 83.354614
L 321.792 86.568794
L 321.792 89.629918
L 321.792 92.548664
L 321.792 95.33474
L 321.792 97.99699
L 321.792 100.54349
L 321.792 102.981629
L 321.792 105.318178
L 321.792 107.559358
L 321.792 109.710891
L 331.776 107.802744
L 331.776 109.866845
L 331.776 111.853056
L 331.776 113.765703
L 331.776 115.608799
L 331.776 117.386071
L 331.776 119.100982
L 331.776 120.756758
L 331.776 122.356406
L 331.776 123.902733
" clip-path="url(#p4e5677728d)" style="fill: none; stroke: #376795; stroke-width: 1.55; stroke-linecap: square"/>
   </g>
   <g id="line2d_14">
    <path d="M 62.208 12.395406
L 62.208 215.136
L 71.503448 113.765703
L 80.798897 79.975604
L 90.094345 63.080554
L 99.389793 52.943525
L 108.685241 46.185505
L 117.98069 41.358348
L 127.276138 37.73798
L 136.571586 34.922139
L 145.867034 32.669465
L 145.867034 49.257332
L 155.162483 46.185505
L 164.457931 43.586267
L 173.753379 41.358348
L 183.048828 39.427485
L 192.344276 37.73798
L 201.639724 36.247241
L 210.935172 34.922139
L 220.230621 33.736521
L 229.526069 32.669465
L 238.821517 31.704034
L 238.821517 40.041851
L 238.821517 47.65464
L 238.821517 54.63303
L 248.116966 52.943525
L 257.412414 51.383982
L 257.412414 57.448871
L 266.707862 55.839819
L 266.707862 61.332791
L 266.707862 66.459564
L 276.00331 64.715559
L 285.298759 63.080554
L 285.298759 67.688295
L 285.298759 72.024992
L 285.298759 76.113878
L 285.298759 79.975604
L 294.594207 78.149112
L 303.889655 76.418751
L 303.889655 79.975604
L 313.185103 78.286099
L 313.185103 81.623901
L 322.480552 79.975604
L 322.480552 83.118869
L 322.480552 86.119258
L 322.480552 88.986297
L 331.776 87.321278
L 331.776 90.04074
L 331.776 92.646891
L 331.776 95.146669
L 331.776 97.546455
L 331.776 99.852133
L 331.776 102.06913
L 331.776 104.202467
L 331.776 106.256792
L 331.776 108.236414
L 331.776 110.145335
L 331.776 111.987277
L 331.776 113.765703
L 331.776 115.483844
L 331.776 117.144713
" clip-path="url(#p4e5677728d)" style="fill: none; stroke: #b72230; stroke-width: 1.55; stroke-linecap: square"/>
   </g>
   <g id="patch_3">
    <path d="M 62.208 215.136
L 62.208 10.368
" style="fill: none; stroke: #252a31; stroke-width: 0.9; stroke-linejoin: miter; stroke-linecap: square"/>
   </g>
   <g id="patch_4">
    <path d="M 62.208 215.136
L 331.776 215.136
" style="fill: none; stroke: #252a31; stroke-width: 0.9; stroke-linejoin: miter; stroke-linecap: square"/>
   </g>
   <g id="legend_1">
    <g id="line2d_15">
     <path d="M 71.208 186.386
L 81.208 186.386
L 91.208 186.386
" style="fill: none; stroke: #376795; stroke-width: 1.55; stroke-linecap: square"/>
    </g>
    <g id="text_15">
     <text style="font: 10px 'Arial'; text-anchor: start" x="99.208" y="189.886" transform="rotate(-0, 99.208, 189.886)">Discovery</text>
    </g>
    <g id="line2d_16">
     <path d="M 71.208 200.6485
L 81.208 200.6485
L 91.208 200.6485
" style="fill: none; stroke: #b72230; stroke-width: 1.55; stroke-linecap: square"/>
    </g>
    <g id="text_16">
     <text style="font: 10px 'Arial'; text-anchor: start" x="99.208" y="204.1485" transform="rotate(-0, 99.208, 204.1485)">Validation</text>
    </g>
   </g>
  </g>
 </g>
 <defs>
  <clipPath id="p4e5677728d">
   <rect x="62.208" y="10.368" width="269.568" height="204.768"/>
  </clipPath>
 </defs>
</svg>
