<?xml version="1.0" encoding="utf-8" standalone="no"?>
<!DOCTYPE svg PUBLIC "-//W3C//DTD SVG 1.1//EN"
  "http://www.w3.org/Graphics/SVG/1.1/DTD/svg11.dtd">
<svg xmlns:xlink="http://www.w3.org/1999/xlink" width="345.6pt" height="259.2pt" viewBox="0 0 345.6 259.2" xmlns="http://www.w3.org/2000/svg" version="1.1">
 <metadata>
  <rdf:RDF xmlns:dc="http://purl.org/dc/elements/1.1/" xmlns:cc="http://creativecommons.org/ns#" xmlns:rdf="http://www.w3.org/1999/02/22-rdf-syntax-ns#">
   <cc:Work>
    <dc:type rdf:resource="http://purl.org/dc/dcmitype/StillImage"/>
    <dc:date>2026-07-19T18:39:34.402849</dc:date>
    <dc:format>image/svg+xml</dc:format>
    <dc:creator>
     <cc:Agent>
      <dc:title>Matplotlib v3.5.2, https://matplotlib.org/</dc:title>
     </cc:Agent>
    </dc:creator>
   </cc:Work>
  </rdf:RDF>
 </metadata>
 <defs>
  <style type="text/css">*{stroke-linejoin: round; stroke-linecap: butt}</style>
 </defs>
 <g id="figure_1">
  <g id="patch_1">
   <path d="M 0 259.2
L 345.6 259.2
L 345.6 0
L 0 0
z
" style="fill: #ffffff"/>
  </g>
  <g id="axes_1">
   <g id="patch_2">
    <path d="M 69.12 207.36
L 331.776 207.36
L 331.776 46.656
L 69.12 46.656
z
" style="fill: #ffffff"/>
   </g>
   <g id="matplotlib.axis_1">
    <g id="xtick_1">
     <g id="line2d_1">
      <defs>
       <path id="m703a20e763" d="M 0 0
L 0 4
" style="stroke: #252a31; stroke-width: 0.8"/>
      </defs>
      <g>
       <use xlink:href="#m703a20e763" x="132.258462" y="207.36" style="fill: #252a31; stroke: #252a31; stroke-width: 0.8"/>
      </g>
     </g>
     <g id="text_1">
      <text style="font: 10.5px 'Arial'; text-anchor: middle" x="132.258462" y="222.875703" transform="rotate(-0, 132.258462, 222.875703)">Control</text>
     </g>
    </g>
    <g id="xtick_2">
     <g id="line2d_2">
      <g>
       <use xlink:href="#m703a20e763" x="258.535385" y="207.36" style="fill: #252a31; stroke: #252a31; stroke-width: 0.8"/>
      </g>
     </g>
     <g id="text_2">
      <text style="font: 10.5px 'Arial'; text-anchor: middle" x="258.535385" y="222.875703" transform="rotate(-0, 258.535385, 222.875703)">Treatment</text>
     </g>
    </g>
   </g>
   <g id="matplotlib.axis_2">
    <g id="ytick_1">
     <g id="line2d_3">
      <defs>
       <path id="m494cf50b99" d="M 0 0
L -4 0
" style="stroke: #252a31; stroke-width: 0.8"/>
      </defs>
      <g>
       <use xlink:href="#m494cf50b99" x="69.12" y="180.133289" style="fill: #252a31; stroke: #252a31; stroke-width: 0.8"/>
      </g>
     </g>
     <g id="text_3">
      <text style="font: 10.5px 'Arial'; text-anchor: end" x="61.12" y="183.891141" transform="rotate(-0, 61.12, 183.891141)">10</text>
     </g>
    </g>
    <g id="ytick_2">
     <g id="line2d_4">
      <g>
       <use xlink:href="#m494cf50b99" x="69.12" y="146.929983" style="fill: #252a31; stroke: #252a31; stroke-width: 0.8"/>
      </g>
     </g>
     <g id="text_4">
      <text style="font: 10.5px 'Arial'; text-anchor: end" x="61.12" y="150.687835" transform="rotate(-0, 61.12, 150.687835)">11</text>
     </g>
    </g>
    <g id="ytick_3">
     <g id="line2d_5">
      <g>
       <use xlink:href="#m494cf50b99" x="69.12" y="113.726678" style="fill: #252a31; stroke: #252a31; stroke-width: 0.8"/>
      </g>
     </g>
     <g id="text_5">
      <text style="font: 10.5px 'Arial'; text-anchor: end" x="61.12" y="117.484529" transform="rotate(-0, 61.12, 117.484529)">12</text>
     </g>
    </g>
    <g id="ytick_4">
     <g id="line2d_6">
      <g>
       <use xlink:href="#m494cf50b99" x="69.12" y="80.523372" style="fill: #252a31; stroke: #252a31; stroke-width: 0.8"/>
      </g>
     </g>
     <g id="text_6">
      <text style="font: 10.5px 'Arial'; text-anchor: end" x="61.12" y="84.281223" transform="rotate(-0, 61.12, 84.281223)">13</text>
     </g>
    </g>
    <g id="ytick_5">
     <g id="line2d_7">
      <g>
       <use xlink:href="#m494cf50b99" x="69.12" y="47.320066" style="fill: #252a31; stroke: #252a31; stroke-width: 0.8"/>
      </g>
     </g>
     <g id="text_7">
      <text style="font: 10.5px 'Arial'; text-anchor: end" x="61.12" y="51.077918" transform="rotate(-0, 61.12, 51.077918)">14</text>
     </g>
    </g>
    <g id="text_8">
     <text style="font: 12px 'Arial'; text-anchor: middle" x="42.916406" y="127.008" transform="rotate(-90, 42.916406, 127.008)">Response (a.u.)</text>
    </g>
   </g>
   <g id="PolyCollection_1">
    <defs>
     <path id="m13720d3c60" d="M 165.074399 -59.144727
L 142.360615 -59.144727
L 142.360615 -59.748424
L 142.360615 -60.35212
L 142.360615 -60.955817
L 142.360615 -61.559513
L 142.360615 -62.16321
L 142.360615 -62.766906
L 142.360615 -63.370603
L 142.360615 -63.974299
L 142.360615 -64.577995
L 142.360615 -65.181692
L 142.360615 -65.785388
L 142.360615 -66.389085
L 142.360615 -66.992781
L 142.360615 -67.596478
L 142.360615 -68.200174
L 142.360615 -68.803871
L 142.360615 -69.407567
L 142.360615 -70.011264
L 142.360615 -70.61496
L 142.360615 -71.218657
L 142.360615 -71.822353
L 142.360615 -72.42605
L 142.360615 -73.029746
L 142.360615 -73.633443
L 142.360615 -74.237139
L 142.360615 -74.840835
L 142.360615 -75.444532
L 142.360615 -76.048228
L 142.360615 -76.651925
L 142.360615 -77.255621
L 142.360615 -77.859318
L 142.360615 -78.463014
L 142.360615 -79.066711
L 142.360615 -79.670407
L 142.360615 -80.274104
L 142.360615 -80.8778
L 142.360615 -81.481497
L 142.360615 -82.085193
L 142.360615 -82.68889
L 142.360615 -83.292586
L 142.360615 -83.896282
L 142.360615 -84.499979
L 142.360615 -85.103675
L 142.360615 -85.707372
L 142.360615 -86.311068
L 142.360615 -86.914765
L 142.360615 -87.518461
L 142.360615 -88.122158
L 142.360615 -88.725854
L 142.360615 -89.329551
L 142.360615 -89.933247
L 142.360615 -90.536944
L 142.360615 -91.14064
L 142.360615 -91.744337
L 142.360615 -92.348033
L 142.360615 -92.95173
L 142.360615 -93.555426
L 142.360615 -94.159122
L 142.360615 -94.762819
L 142.360615 -95.366515
L 142.360615 -95.970212
L 142.360615 -96.573908
L 142.360615 -97.177605
L 142.360615 -97.781301
L 142.360615 -98.384998
L 142.360615 -98.988694
L 142.360615 -99.592391
L 142.360615 -100.196087
L 142.360615 -100.799784
L 142.360615 -101.40348
L 142.360615 -102.007177
L 142.360615 -102.610873
L 142.360615 -103.214569
L 142.360615 -103.818266
L 142.360615 -104.421962
L 142.360615 -105.025659
L 142.360615 -105.629355
L 142.360615 -106.233052
L 142.360615 -106.836748
L 142.360615 -107.440445
L 142.360615 -108.044141
L 142.360615 -108.647838
L 142.360615 -109.251534
L 142.360615 -109.855231
L 142.360615 -110.458927
L 142.360615 -111.062624
L 142.360615 -111.66632
L 142.360615 -112.270017
L 142.360615 -112.873713
L 142.360615 -113.477409
L 142.360615 -114.081106
L 142.360615 -114.684802
L 142.360615 -115.288499
L 142.360615 -115.892195
L 142.360615 -116.495892
L 142.360615 -117.099588
L 142.360615 -117.703285
L 142.360615 -118.306981
L 142.360615 -118.910678
L 164.968348 -118.910678
L 164.968348 -118.910678
L 165.83433 -118.306981
L 166.698401 -117.703285
L 167.558606 -117.099588
L 168.412992 -116.495892
L 169.259622 -115.892195
L 170.096579 -115.288499
L 170.921978 -114.684802
L 171.73397 -114.081106
L 172.530752 -113.477409
L 173.310575 -112.873713
L 174.07175 -112.270017
L 174.812656 -111.66632
L 175.531746 -111.062624
L 176.227551 -110.458927
L 176.898692 -109.855231
L 177.543881 -109.251534
L 178.161929 -108.647838
L 178.75175 -108.044141
L 179.312367 -107.440445
L 179.842918 -106.836748
L 180.342657 -106.233052
L 180.81096 -105.629355
L 181.247328 -105.025659
L 181.65139 -104.421962
L 182.022904 -103.818266
L 182.36176 -103.214569
L 182.66798 -102.610873
L 182.941718 -102.007177
L 183.183259 -101.40348
L 183.393019 -100.799784
L 183.571539 -100.196087
L 183.719487 -99.592391
L 183.837647 -98.988694
L 183.92692 -98.384998
L 183.988314 -97.781301
L 184.02294 -97.177605
L 184.032 -96.573908
L 184.016783 -95.970212
L 183.978652 -95.366515
L 183.919037 -94.762819
L 183.839421 -94.159122
L 183.741329 -93.555426
L 183.626321 -92.95173
L 183.495971 -92.348033
L 183.351861 -91.744337
L 183.195565 -91.14064
L 183.028637 -90.536944
L 182.852594 -89.933247
L 182.668909 -89.329551
L 182.478991 -88.725854
L 182.284177 -88.122158
L 182.085715 -87.518461
L 181.884758 -86.914765
L 181.682344 -86.311068
L 181.479394 -85.707372
L 181.276695 -85.103675
L 181.074894 -84.499979
L 180.874494 -83.896282
L 180.675841 -83.292586
L 180.479122 -82.68889
L 180.284364 -82.085193
L 180.091429 -81.481497
L 179.900015 -80.8778
L 179.709657 -80.274104
L 179.519735 -79.670407
L 179.329472 -79.066711
L 179.137949 -78.463014
L 178.94411 -77.859318
L 178.746775 -77.255621
L 178.544651 -76.651925
L 178.336351 -76.048228
L 178.120405 -75.444532
L 177.895282 -74.840835
L 177.659407 -74.237139
L 177.41118 -73.633443
L 177.148999 -73.029746
L 176.87128 -72.42605
L 176.576478 -71.822353
L 176.26311 -71.218657
L 175.929772 -70.61496
L 175.575167 -70.011264
L 175.198116 -69.407567
L 174.797581 -68.803871
L 174.372684 -68.200174
L 173.922715 -67.596478
L 173.447154 -66.992781
L 172.945676 -66.389085
L 172.418159 -65.785388
L 171.864697 -65.181692
L 171.285597 -64.577995
L 170.681383 -63.974299
L 170.052795 -63.370603
L 169.400783 -62.766906
L 168.726501 -62.16321
L 168.0313 -61.559513
L 167.316711 -60.955817
L 166.584438 -60.35212
L 165.836336 -59.748424
L 165.074399 -59.144727
z
" style="stroke: #0072b2; stroke-opacity: 0.22"/>
    </defs>
    <g clip-path="url(#pd01713202f)">
     <use xlink:href="#m13720d3c60" x="0" y="259.2" style="fill: #0072b2; fill-opacity: 0.22; stroke: #0072b2; stroke-opacity: 0.22"/>
    </g>
   </g>
   <g id="PolyCollection_2">
    <defs>
     <path id="m9439991642" d="M 293.984096 -138.832661
L 268.637538 -138.832661
L 268.637538 -139.503435
L 268.637538 -140.174209
L 268.637538 -140.844983
L 268.637538 -141.515757
L 268.637538 -142.18653
L 268.637538 -142.857304
L 268.637538 -143.528078
L 268.637538 -144.198852
L 268.637538 -144.869626
L 268.637538 -145.5404
L 268.637538 -146.211174
L 268.637538 -146.881947
L 268.637538 -147.552721
L 268.637538 -148.223495
L 268.637538 -148.894269
L 268.637538 -149.565043
L 268.637538 -150.235817
L 268.637538 -150.906591
L 268.637538 -151.577364
L 268.637538 -152.248138
L 268.637538 -152.918912
L 268.637538 -153.589686
L 268.637538 -154.26046
L 268.637538 -154.931234
L 268.637538 -155.602008
L 268.637538 -156.272781
L 268.637538 -156.943555
L 268.637538 -157.614329
L 268.637538 -158.285103
L 268.637538 -158.955877
L 268.637538 -159.626651
L 268.637538 -160.297424
L 268.637538 -160.968198
L 268.637538 -161.638972
L 268.637538 -162.309746
L 268.637538 -162.98052
L 268.637538 -163.651294
L 268.637538 -164.322068
L 268.637538 -164.992841
L 268.637538 -165.663615
L 268.637538 -166.334389
L 268.637538 -167.005163
L 268.637538 -167.675937
L 268.637538 -168.346711
L 268.637538 -169.017485
L 268.637538 -169.688258
L 268.637538 -170.359032
L 268.637538 -171.029806
L 268.637538 -171.70058
L 268.637538 -172.371354
L 268.637538 -173.042128
L 268.637538 -173.712902
L 268.637538 -174.383675
L 268.637538 -175.054449
L 268.637538 -175.725223
L 268.637538 -176.395997
L 268.637538 -177.066771
L 268.637538 -177.737545
L 268.637538 -178.408319
L 268.637538 -179.079092
L 268.637538 -179.749866
L 268.637538 -180.42064
L 268.637538 -181.091414
L 268.637538 -181.762188
L 268.637538 -182.432962
L 268.637538 -183.103736
L 268.637538 -183.774509
L 268.637538 -184.445283
L 268.637538 -185.116057
L 268.637538 -185.786831
L 268.637538 -186.457605
L 268.637538 -187.128379
L 268.637538 -187.799153
L 268.637538 -188.469926
L 268.637538 -189.1407
L 268.637538 -189.811474
L 268.637538 -190.482248
L 268.637538 -191.153022
L 268.637538 -191.823796
L 268.637538 -192.494569
L 268.637538 -193.165343
L 268.637538 -193.836117
L 268.637538 -194.506891
L 268.637538 -195.177665
L 268.637538 -195.848439
L 268.637538 -196.519213
L 268.637538 -197.189986
L 268.637538 -197.86076
L 268.637538 -198.531534
L 268.637538 -199.202308
L 268.637538 -199.873082
L 268.637538 -200.543856
L 268.637538 -201.21463
L 268.637538 -201.885403
L 268.637538 -202.556177
L 268.637538 -203.226951
L 268.637538 -203.897725
L 268.637538 -204.568499
L 268.637538 -205.239273
L 292.241701 -205.239273
L 292.241701 -205.239273
L 293.062356 -204.568499
L 293.876287 -203.897725
L 294.681741 -203.226951
L 295.477018 -202.556177
L 296.260484 -201.885403
L 297.030578 -201.21463
L 297.785818 -200.543856
L 298.524809 -199.873082
L 299.246247 -199.202308
L 299.948922 -198.531534
L 300.631724 -197.86076
L 301.293647 -197.189986
L 301.933785 -196.519213
L 302.551339 -195.848439
L 303.145612 -195.177665
L 303.716015 -194.506891
L 304.26206 -193.836117
L 304.78336 -193.165343
L 305.279629 -192.494569
L 305.750678 -191.823796
L 306.196411 -191.153022
L 306.616823 -190.482248
L 307.011994 -189.811474
L 307.382091 -189.1407
L 307.727354 -188.469926
L 308.048101 -187.799153
L 308.344718 -187.128379
L 308.617652 -186.457605
L 308.867413 -185.786831
L 309.094562 -185.116057
L 309.299708 -184.445283
L 309.483502 -183.774509
L 309.646632 -183.103736
L 309.789816 -182.432962
L 309.913798 -181.762188
L 310.019339 -181.091414
L 310.107214 -180.42064
L 310.178205 -179.749866
L 310.233096 -179.079092
L 310.272667 -178.408319
L 310.297691 -177.737545
L 310.308923 -177.066771
L 310.307104 -176.395997
L 310.29295 -175.725223
L 310.267151 -175.054449
L 310.230366 -174.383675
L 310.183221 -173.712902
L 310.126308 -173.042128
L 310.060177 -172.371354
L 309.985339 -171.70058
L 309.902263 -171.029806
L 309.811374 -170.359032
L 309.713053 -169.688258
L 309.607632 -169.017485
L 309.495399 -168.346711
L 309.376595 -167.675937
L 309.251409 -167.005163
L 309.119985 -166.334389
L 308.982416 -165.663615
L 308.838743 -164.992841
L 308.688958 -164.322068
L 308.532999 -163.651294
L 308.37075 -162.98052
L 308.202043 -162.309746
L 308.026654 -161.638972
L 307.844301 -160.968198
L 307.654647 -160.297424
L 307.457297 -159.626651
L 307.251799 -158.955877
L 307.037644 -158.285103
L 306.814267 -157.614329
L 306.58105 -156.943555
L 306.337321 -156.272781
L 306.082362 -155.602008
L 305.815413 -154.931234
L 305.535675 -154.26046
L 305.242316 -153.589686
L 304.934485 -152.918912
L 304.611315 -152.248138
L 304.271936 -151.577364
L 303.915484 -150.906591
L 303.541118 -150.235817
L 303.148026 -149.565043
L 302.735445 -148.894269
L 302.30267 -148.223495
L 301.849073 -147.552721
L 301.37411 -146.881947
L 300.877342 -146.211174
L 300.358446 -145.5404
L 299.817224 -144.869626
L 299.253619 -144.198852
L 298.667722 -143.528078
L 298.059781 -142.857304
L 297.430207 -142.18653
L 296.77958 -141.515757
L 296.108651 -140.844983
L 295.418341 -140.174209
L 294.709738 -139.503435
L 293.984096 -138.832661
z
" style="stroke: #d55e00; stroke-opacity: 0.22"/>
    </defs>
    <g clip-path="url(#pd01713202f)">
     <use xlink:href="#m9439991642" x="0" y="259.2" style="fill: #d55e00; fill-opacity: 0.22; stroke: #d55e00; stroke-opacity: 0.22"/>
    </g>
   </g>
   <g id="patch_3">
    <path d="M 69.12 207.36
L 69.12 46.656
" style="fill: none; stroke: #252a31; stroke-width: 0.9; stroke-linejoin: miter; stroke-linecap: square"/>
   </g>
   <g id="patch_4">
    <path d="M 69.12 207.36
L 331.776 207.36
" style="fill: none; stroke: #252a31; stroke-width: 0.9; stroke-linejoin: miter; stroke-linecap: square"/>
   </g>
   <g id="PathCollection_1">
    <defs>
     <path id="mc9531fb6d3" d="M 0 2.397916
C 0.635935 2.397916 1.245909 2.145256 1.695582 1.695582
C 2.145256 1.245909 2.397916 0.635935 2.397916 0
C 2.397916 -0.635935 2.145256 -1.245909 1.695582 -1.695582
C 1.245909 -2.145256 0.635935 -2.397916 0 -2.397916
C -0.635935 -2.397916 -1.245909 -2.145256 -1.695582 -1.695582
C -2.145256 -1.245909 -2.397916 -0.635935 -2.397916 0
C -2.397916 0.635935 -2.145256 1.245909 -1.695582 1.695582
C -1.245909 2.145256 -0.635935 2.397916 0 2.397916
z
" style="stroke: #ffffff; stroke-opacity: 0.72; stroke-width: 0.3"/>
    </defs>
    <g clip-path="url(#pd01713202f)">
     <use xlink:href="#mc9531fb6d3" x="106.642763" y="200.055273" style="fill: #0072b2; fill-opacity: 0.72; stroke: #ffffff; stroke-opacity: 0.72; stroke-width: 0.3"/>
     <use xlink:href="#mc9531fb6d3" x="96.789565" y="176.812959" style="fill: #0072b2; fill-opacity: 0.72; stroke: #ffffff; stroke-opacity: 0.72; stroke-width: 0.3"/>
     <use xlink:href="#mc9531fb6d3" x="116.407176" y="153.570645" style="fill: #0072b2; fill-opacity: 0.72; stroke: #ffffff; stroke-opacity: 0.72; stroke-width: 0.3"/>
     <use xlink:href="#mc9531fb6d3" x="104.882417" y="190.094281" style="fill: #0072b2; fill-opacity: 0.72; stroke: #ffffff; stroke-opacity: 0.72; stroke-width: 0.3"/>
     <use xlink:href="#mc9531fb6d3" x="105.65339" y="140.289322" style="fill: #0072b2; fill-opacity: 0.72; stroke: #ffffff; stroke-opacity: 0.72; stroke-width: 0.3"/>
     <use xlink:href="#mc9531fb6d3" x="105.443061" y="166.851967" style="fill: #0072b2; fill-opacity: 0.72; stroke: #ffffff; stroke-opacity: 0.72; stroke-width: 0.3"/>
     <use xlink:href="#mc9531fb6d3" x="94.040153" y="183.45362" style="fill: #0072b2; fill-opacity: 0.72; stroke: #ffffff; stroke-opacity: 0.72; stroke-width: 0.3"/>
     <use xlink:href="#mc9531fb6d3" x="109.000803" y="160.211306" style="fill: #0072b2; fill-opacity: 0.72; stroke: #ffffff; stroke-opacity: 0.72; stroke-width: 0.3"/>
     <use xlink:href="#mc9531fb6d3" x="100.933675" y="146.929983" style="fill: #0072b2; fill-opacity: 0.72; stroke: #ffffff; stroke-opacity: 0.72; stroke-width: 0.3"/>
     <use xlink:href="#mc9531fb6d3" x="94.768654" y="193.414612" style="fill: #0072b2; fill-opacity: 0.72; stroke: #ffffff; stroke-opacity: 0.72; stroke-width: 0.3"/>
     <use xlink:href="#mc9531fb6d3" x="109.042914" y="170.172298" style="fill: #0072b2; fill-opacity: 0.72; stroke: #ffffff; stroke-opacity: 0.72; stroke-width: 0.3"/>
     <use xlink:href="#mc9531fb6d3" x="98.128922" y="156.890975" style="fill: #0072b2; fill-opacity: 0.72; stroke: #ffffff; stroke-opacity: 0.72; stroke-width: 0.3"/>
    </g>
   </g>
   <g id="PathCollection_2">
    <defs>
     <path id="m1b656ee420" d="M 0 2.397916
C 0.635935 2.397916 1.245909 2.145256 1.695582 1.695582
C 2.145256 1.245909 2.397916 0.635935 2.397916 0
C 2.397916 -0.635935 2.145256 -1.245909 1.695582 -1.695582
C 1.245909 -2.145256 0.635935 -2.397916 0 -2.397916
C -0.635935 -2.397916 -1.245909 -2.145256 -1.695582 -1.695582
C -2.145256 -1.245909 -2.397916 -0.635935 -2.397916 0
C -2.397916 0.635935 -2.145256 1.245909 -1.695582 1.695582
C -1.245909 2.145256 -0.635935 2.397916 0 2.397916
z
" style="stroke: #ffffff; stroke-opacity: 0.72; stroke-width: 0.3"/>
    </defs>
    <g clip-path="url(#pd01713202f)">
     <use xlink:href="#m1b656ee420" x="232.770739" y="110.406347" style="fill: #d55e00; fill-opacity: 0.72; stroke: #ffffff; stroke-opacity: 0.72; stroke-width: 0.3"/>
     <use xlink:href="#m1b656ee420" x="241.847401" y="67.24205" style="fill: #d55e00; fill-opacity: 0.72; stroke: #ffffff; stroke-opacity: 0.72; stroke-width: 0.3"/>
     <use xlink:href="#m1b656ee420" x="230.468868" y="120.367339" style="fill: #d55e00; fill-opacity: 0.72; stroke: #ffffff; stroke-opacity: 0.72; stroke-width: 0.3"/>
     <use xlink:href="#m1b656ee420" x="229.187908" y="90.484364" style="fill: #d55e00; fill-opacity: 0.72; stroke: #ffffff; stroke-opacity: 0.72; stroke-width: 0.3"/>
     <use xlink:href="#m1b656ee420" x="228.619482" y="77.203041" style="fill: #d55e00; fill-opacity: 0.72; stroke: #ffffff; stroke-opacity: 0.72; stroke-width: 0.3"/>
     <use xlink:href="#m1b656ee420" x="235.459627" y="100.445355" style="fill: #d55e00; fill-opacity: 0.72; stroke: #ffffff; stroke-opacity: 0.72; stroke-width: 0.3"/>
     <use xlink:href="#m1b656ee420" x="238.321192" y="53.960727" style="fill: #d55e00; fill-opacity: 0.72; stroke: #ffffff; stroke-opacity: 0.72; stroke-width: 0.3"/>
     <use xlink:href="#m1b656ee420" x="235.7495" y="117.047008" style="fill: #d55e00; fill-opacity: 0.72; stroke: #ffffff; stroke-opacity: 0.72; stroke-width: 0.3"/>
     <use xlink:href="#m1b656ee420" x="218.195727" y="83.843702" style="fill: #d55e00; fill-opacity: 0.72; stroke: #ffffff; stroke-opacity: 0.72; stroke-width: 0.3"/>
     <use xlink:href="#m1b656ee420" x="219.979684" y="73.882711" style="fill: #d55e00; fill-opacity: 0.72; stroke: #ffffff; stroke-opacity: 0.72; stroke-width: 0.3"/>
     <use xlink:href="#m1b656ee420" x="243.07207" y="97.125025" style="fill: #d55e00; fill-opacity: 0.72; stroke: #ffffff; stroke-opacity: 0.72; stroke-width: 0.3"/>
     <use xlink:href="#m1b656ee420" x="223.21729" y="60.601388" style="fill: #d55e00; fill-opacity: 0.72; stroke: #ffffff; stroke-opacity: 0.72; stroke-width: 0.3"/>
    </g>
   </g>
   <g id="LineCollection_1">
    <path d="M 139.835077 185.113785
L 139.835077 156.060893
" clip-path="url(#pd01713202f)" style="fill: none; stroke: #0072b2; stroke-opacity: 0.38; stroke-width: 6"/>
   </g>
   <g id="LineCollection_2">
    <path d="M 266.112 102.935603
L 266.112 72.222545
" clip-path="url(#pd01713202f)" style="fill: none; stroke: #d55e00; stroke-opacity: 0.38; stroke-width: 6"/>
   </g>
   <g id="LineCollection_3">
    <path d="M 130.995692 168.512132
L 149.937231 168.512132
" clip-path="url(#pd01713202f)" style="fill: none; stroke: #20242a; stroke-width: 1.6"/>
   </g>
   <g id="LineCollection_4">
    <path d="M 257.272615 87.164033
L 276.214154 87.164033
" clip-path="url(#pd01713202f)" style="fill: none; stroke: #20242a; stroke-width: 1.6"/>
   </g>
  </g>
  <g id="text_9">
   <text style="fill: #333333; font: 9.5px 'Arial'; text-anchor: start" x="69.12" y="21.171703" transform="rotate(-0, 69.12, 21.171703)">Mean difference = 2.48 (95% CI 1.95 to 3)</text>
  </g>
 </g>
 <defs>
  <clipPath id="pd01713202f">
   <rect x="69.12" y="46.656" width="262.656" height="160.704"/>
  </clipPath>
 </defs>
</svg>
