<?xml version="1.0" encoding="utf-8" standalone="no"?>
<!DOCTYPE svg PUBLIC "-//W3C//DTD SVG 1.1//EN"
  "http://www.w3.org/Graphics/SVG/1.1/DTD/svg11.dtd">
<svg xmlns:xlink="http://www.w3.org/1999/xlink" width="345.6pt" height="259.2pt" viewBox="0 0 345.6 259.2" xmlns="http://www.w3.org/2000/svg" version="1.1">
 <metadata>
  <rdf:RDF xmlns:dc="http://purl.org/dc/elements/1.1/" xmlns:cc="http://creativecommons.org/ns#" xmlns:rdf="http://www.w3.org/1999/02/22-rdf-syntax-ns#">
   <cc:Work>
    <dc:type rdf:resource="http://purl.org/dc/dcmitype/StillImage"/>
    <dc:date>2026-07-19T18:39:35.291242</dc:date>
    <dc:format>image/svg+xml</dc:format>
    <dc:creator>
     <cc:Agent>
      <dc:title>Matplotlib v3.5.2, https://matplotlib.org/</dc:title>
     </cc:Agent>
    </dc:creator>
   </cc:Work>
  </rdf:RDF>
 </metadata>
 <defs>
  <style type="text/css">*{stroke-linejoin: round; stroke-linecap: butt}</style>
 </defs>
 <g id="figure_1">
  <g id="patch_1">
   <path d="M 0 259.2
L 345.6 259.2
L 345.6 0
L 0 0
z
" style="fill: #ffffff"/>
  </g>
  <g id="axes_1">
   <g id="patch_2">
    <path d="M 69.12 207.36
L 331.776 207.36
L 331.776 46.656
L 69.12 46.656
z
" style="fill: #ffffff"/>
   </g>
   <g id="matplotlib.axis_1">
    <g id="xtick_1">
     <g id="line2d_1">
      <defs>
       <path id="m7a5b001c2b" d="M 0 0
L 0 4
" style="stroke: #252a31; stroke-width: 0.8"/>
      </defs>
      <g>
       <use xlink:href="#m7a5b001c2b" x="131.83358" y="207.36" style="fill: #252a31; stroke: #252a31; stroke-width: 0.8"/>
      </g>
     </g>
     <g id="text_1">
      <text style="font: 10.5px 'Arial'; text-anchor: middle" x="131.83358" y="222.875703" transform="rotate(-0, 131.83358, 222.875703)">Control</text>
     </g>
    </g>
    <g id="xtick_2">
     <g id="line2d_2">
      <g>
       <use xlink:href="#m7a5b001c2b" x="269.06242" y="207.36" style="fill: #252a31; stroke: #252a31; stroke-width: 0.8"/>
      </g>
     </g>
     <g id="text_2">
      <text style="font: 10.5px 'Arial'; text-anchor: middle" x="269.06242" y="222.875703" transform="rotate(-0, 269.06242, 222.875703)">Treatment</text>
     </g>
    </g>
   </g>
   <g id="matplotlib.axis_2">
    <g id="ytick_1">
     <g id="line2d_3">
      <defs>
       <path id="m785fe42afa" d="M 0 0
L -4 0
" style="stroke: #252a31; stroke-width: 0.8"/>
      </defs>
      <g>
       <use xlink:href="#m785fe42afa" x="69.12" y="180.133289" style="fill: #252a31; stroke: #252a31; stroke-width: 0.8"/>
      </g>
     </g>
     <g id="text_3">
      <text style="font: 10.5px 'Arial'; text-anchor: end" x="61.12" y="183.891141" transform="rotate(-0, 61.12, 183.891141)">10</text>
     </g>
    </g>
    <g id="ytick_2">
     <g id="line2d_4">
      <g>
       <use xlink:href="#m785fe42afa" x="69.12" y="146.929983" style="fill: #252a31; stroke: #252a31; stroke-width: 0.8"/>
      </g>
     </g>
     <g id="text_4">
      <text style="font: 10.5px 'Arial'; text-anchor: end" x="61.12" y="150.687835" transform="rotate(-0, 61.12, 150.687835)">11</text>
     </g>
    </g>
    <g id="ytick_3">
     <g id="line2d_5">
      <g>
       <use xlink:href="#m785fe42afa" x="69.12" y="113.726678" style="fill: #252a31; stroke: #252a31; stroke-width: 0.8"/>
      </g>
     </g>
     <g id="text_5">
      <text style="font: 10.5px 'Arial'; text-anchor: end" x="61.12" y="117.484529" transform="rotate(-0, 61.12, 117.484529)">12</text>
     </g>
    </g>
    <g id="ytick_4">
     <g id="line2d_6">
      <g>
       <use xlink:href="#m785fe42afa" x="69.12" y="80.523372" style="fill: #252a31; stroke: #252a31; stroke-width: 0.8"/>
      </g>
     </g>
     <g id="text_6">
      <text style="font: 10.5px 'Arial'; text-anchor: end" x="61.12" y="84.281223" transform="rotate(-0, 61.12, 84.281223)">13</text>
     </g>
    </g>
    <g id="ytick_5">
     <g id="line2d_7">
      <g>
       <use xlink:href="#m785fe42afa" x="69.12" y="47.320066" style="fill: #252a31; stroke: #252a31; stroke-width: 0.8"/>
      </g>
     </g>
     <g id="text_7">
      <text style="font: 10.5px 'Arial'; text-anchor: end" x="61.12" y="51.077918" transform="rotate(-0, 61.12, 51.077918)">14</text>
     </g>
    </g>
    <g id="text_8">
     <text style="font: 12px 'Arial'; text-anchor: middle" x="42.916406" y="127.008" transform="rotate(-90, 42.916406, 127.008)">Response (a.u.)</text>
    </g>
   </g>
   <g id="PolyCollection_1">
    <defs>
     <path id="m6143eac567" d="M 159.509283 -59.144727
L 104.157876 -59.144727
L 103.229491 -59.748424
L 102.317963 -60.35212
L 101.425722 -60.955817
L 100.555028 -61.559513
L 99.707957 -62.16321
L 98.886376 -62.766906
L 98.091929 -63.370603
L 97.326024 -63.974299
L 96.589817 -64.577995
L 95.88421 -65.181692
L 95.209842 -65.785388
L 94.567087 -66.389085
L 93.956058 -66.992781
L 93.376609 -67.596478
L 92.828343 -68.200174
L 92.310625 -68.803871
L 91.822592 -69.407567
L 91.363172 -70.011264
L 90.931102 -70.61496
L 90.524946 -71.218657
L 90.14312 -71.822353
L 89.783918 -72.42605
L 89.44553 -73.029746
L 89.126075 -73.633443
L 88.823622 -74.237139
L 88.536218 -74.840835
L 88.261916 -75.444532
L 87.998796 -76.048228
L 87.744992 -76.651925
L 87.498713 -77.255621
L 87.258269 -77.859318
L 87.022085 -78.463014
L 86.788724 -79.066711
L 86.556897 -79.670407
L 86.325486 -80.274104
L 86.093544 -80.8778
L 85.860314 -81.481497
L 85.625232 -82.085193
L 85.387928 -82.68889
L 85.148235 -83.292586
L 84.906185 -83.896282
L 84.662007 -84.499979
L 84.416122 -85.103675
L 84.169142 -85.707372
L 83.921857 -86.311068
L 83.675225 -86.914765
L 83.430368 -87.518461
L 83.188552 -88.122158
L 82.951179 -88.725854
L 82.719773 -89.329551
L 82.495961 -89.933247
L 82.281461 -90.536944
L 82.078066 -91.14064
L 81.887627 -91.744337
L 81.712036 -92.348033
L 81.55321 -92.95173
L 81.413078 -93.555426
L 81.293558 -94.159122
L 81.196549 -94.762819
L 81.123911 -95.366515
L 81.077451 -95.970212
L 81.058909 -96.573908
L 81.069948 -97.177605
L 81.112138 -97.781301
L 81.186944 -98.384998
L 81.295719 -98.988694
L 81.439692 -99.592391
L 81.61996 -100.196087
L 81.837479 -100.799784
L 82.093061 -101.40348
L 82.387368 -102.007177
L 82.720905 -102.610873
L 83.09402 -103.214569
L 83.506901 -103.818266
L 83.959573 -104.421962
L 84.451904 -105.025659
L 84.983598 -105.629355
L 85.554204 -106.233052
L 86.163113 -106.836748
L 86.809565 -107.440445
L 87.492652 -108.044141
L 88.211322 -108.647838
L 88.964385 -109.251534
L 89.750518 -109.855231
L 90.568272 -110.458927
L 91.416079 -111.062624
L 92.292256 -111.66632
L 93.195017 -112.270017
L 94.122474 -112.873713
L 95.072653 -113.477409
L 96.043495 -114.081106
L 97.03287 -114.684802
L 98.03858 -115.288499
L 99.058374 -115.892195
L 100.089954 -116.495892
L 101.130984 -117.099588
L 102.179104 -117.703285
L 103.231935 -118.306981
L 104.287094 -118.910678
L 159.380066 -118.910678
L 159.380066 -118.910678
L 160.435224 -118.306981
L 161.488056 -117.703285
L 162.536175 -117.099588
L 163.577206 -116.495892
L 164.608786 -115.892195
L 165.62858 -115.288499
L 166.63429 -114.684802
L 167.623665 -114.081106
L 168.594507 -113.477409
L 169.544686 -112.873713
L 170.472143 -112.270017
L 171.374903 -111.66632
L 172.251081 -111.062624
L 173.098887 -110.458927
L 173.916642 -109.855231
L 174.702775 -109.251534
L 175.455838 -108.647838
L 176.174508 -108.044141
L 176.857595 -107.440445
L 177.504047 -106.836748
L 178.112956 -106.233052
L 178.683562 -105.629355
L 179.215256 -105.025659
L 179.707587 -104.421962
L 180.160259 -103.818266
L 180.57314 -103.214569
L 180.946255 -102.610873
L 181.279792 -102.007177
L 181.574099 -101.40348
L 181.829681 -100.799784
L 182.0472 -100.196087
L 182.227468 -99.592391
L 182.37144 -98.988694
L 182.480216 -98.384998
L 182.555022 -97.781301
L 182.597211 -97.177605
L 182.608251 -96.573908
L 182.589709 -95.970212
L 182.543249 -95.366515
L 182.47061 -94.762819
L 182.373602 -94.159122
L 182.254082 -93.555426
L 182.11395 -92.95173
L 181.955124 -92.348033
L 181.779533 -91.744337
L 181.589094 -91.14064
L 181.385699 -90.536944
L 181.171199 -89.933247
L 180.947387 -89.329551
L 180.71598 -88.725854
L 180.478608 -88.122158
L 180.236792 -87.518461
L 179.991935 -86.914765
L 179.745303 -86.311068
L 179.498017 -85.707372
L 179.251037 -85.103675
L 179.005153 -84.499979
L 178.760975 -83.896282
L 178.518925 -83.292586
L 178.279232 -82.68889
L 178.041928 -82.085193
L 177.806846 -81.481497
L 177.573616 -80.8778
L 177.341674 -80.274104
L 177.110262 -79.670407
L 176.878436 -79.066711
L 176.645074 -78.463014
L 176.408891 -77.859318
L 176.168447 -77.255621
L 175.922168 -76.651925
L 175.668364 -76.048228
L 175.405244 -75.444532
L 175.130942 -74.840835
L 174.843538 -74.237139
L 174.541085 -73.633443
L 174.22163 -73.029746
L 173.883242 -72.42605
L 173.52404 -71.822353
L 173.142214 -71.218657
L 172.736058 -70.61496
L 172.303988 -70.011264
L 171.844568 -69.407567
L 171.356535 -68.803871
L 170.838817 -68.200174
L 170.290551 -67.596478
L 169.711102 -66.992781
L 169.100073 -66.389085
L 168.457318 -65.785388
L 167.78295 -65.181692
L 167.077343 -64.577995
L 166.341136 -63.974299
L 165.57523 -63.370603
L 164.780784 -62.766906
L 163.959203 -62.16321
L 163.112131 -61.559513
L 162.241438 -60.955817
L 161.349197 -60.35212
L 160.437669 -59.748424
L 159.509283 -59.144727
z
" style="stroke: #0072b2; stroke-opacity: 0.2"/>
    </defs>
    <g clip-path="url(#pc0c60fe82c)">
     <use xlink:href="#m6143eac567" x="0" y="259.2" style="fill: #0072b2; fill-opacity: 0.2; stroke: #0072b2; stroke-opacity: 0.2"/>
    </g>
   </g>
   <g id="PolyCollection_2">
    <defs>
     <path id="m27877773fe" d="M 299.946038 -138.832661
L 238.178802 -138.832661
L 237.294641 -139.503435
L 236.431241 -140.174209
L 235.590129 -140.844983
L 234.772633 -141.515757
L 233.979874 -142.18653
L 233.212767 -142.857304
L 232.472019 -143.528078
L 231.75813 -144.198852
L 231.071403 -144.869626
L 230.411949 -145.5404
L 229.779698 -146.211174
L 229.17441 -146.881947
L 228.595689 -147.552721
L 228.043001 -148.223495
L 227.515685 -148.894269
L 227.012974 -149.565043
L 226.53401 -150.235817
L 226.077861 -150.906591
L 225.643542 -151.577364
L 225.230023 -152.248138
L 224.836255 -152.918912
L 224.461177 -153.589686
L 224.103733 -154.26046
L 223.762885 -154.931234
L 223.43762 -155.602008
L 223.126965 -156.272781
L 222.829992 -156.943555
L 222.545827 -157.614329
L 222.273652 -158.285103
L 222.012715 -158.955877
L 221.762325 -159.626651
L 221.521863 -160.297424
L 221.290778 -160.968198
L 221.06859 -161.638972
L 220.854886 -162.309746
L 220.649324 -162.98052
L 220.451632 -163.651294
L 220.261602 -164.322068
L 220.079096 -164.992841
L 219.904037 -165.663615
L 219.736415 -166.334389
L 219.576281 -167.005163
L 219.423749 -167.675937
L 219.278991 -168.346711
L 219.14224 -169.017485
L 219.01379 -169.688258
L 218.893989 -170.359032
L 218.783246 -171.029806
L 218.682022 -171.70058
L 218.590835 -172.371354
L 218.510258 -173.042128
L 218.440911 -173.712902
L 218.383468 -174.383675
L 218.338647 -175.054449
L 218.307212 -175.725223
L 218.289966 -176.395997
L 218.287749 -177.066771
L 218.301436 -177.737545
L 218.331925 -178.408319
L 218.380141 -179.079092
L 218.447024 -179.749866
L 218.533523 -180.42064
L 218.640594 -181.091414
L 218.769191 -181.762188
L 218.920257 -182.432962
L 219.094721 -183.103736
L 219.293487 -183.774509
L 219.517432 -184.445283
L 219.767393 -185.116057
L 220.044163 -185.786831
L 220.348485 -186.457605
L 220.681044 -187.128379
L 221.042457 -187.799153
L 221.433273 -188.469926
L 221.85396 -189.1407
L 222.304906 -189.811474
L 222.786404 -190.482248
L 223.298657 -191.153022
L 223.841761 -191.823796
L 224.415713 -192.494569
L 225.020394 -193.165343
L 225.655575 -193.836117
L 226.320905 -194.506891
L 227.015915 -195.177665
L 227.74001 -195.848439
L 228.492471 -196.519213
L 229.27245 -197.189986
L 230.078972 -197.86076
L 230.910936 -198.531534
L 231.767113 -199.202308
L 232.646151 -199.873082
L 233.546578 -200.543856
L 234.466804 -201.21463
L 235.405128 -201.885403
L 236.359746 -202.556177
L 237.328754 -203.226951
L 238.310162 -203.897725
L 239.3019 -204.568499
L 240.30183 -205.239273
L 297.82301 -205.239273
L 297.82301 -205.239273
L 298.82294 -204.568499
L 299.814678 -203.897725
L 300.796086 -203.226951
L 301.765094 -202.556177
L 302.719712 -201.885403
L 303.658036 -201.21463
L 304.578262 -200.543856
L 305.478689 -199.873082
L 306.357727 -199.202308
L 307.213904 -198.531534
L 308.045868 -197.86076
L 308.852391 -197.189986
L 309.632369 -196.519213
L 310.38483 -195.848439
L 311.108925 -195.177665
L 311.803935 -194.506891
L 312.469265 -193.836117
L 313.104446 -193.165343
L 313.709127 -192.494569
L 314.283079 -191.823796
L 314.826184 -191.153022
L 315.338436 -190.482248
L 315.819934 -189.811474
L 316.27088 -189.1407
L 316.691568 -188.469926
L 317.082383 -187.799153
L 317.443797 -187.128379
L 317.776355 -186.457605
L 318.080677 -185.786831
L 318.357447 -185.116057
L 318.607408 -184.445283
L 318.831353 -183.774509
L 319.030119 -183.103736
L 319.204583 -182.432962
L 319.355649 -181.762188
L 319.484246 -181.091414
L 319.591317 -180.42064
L 319.677816 -179.749866
L 319.744699 -179.079092
L 319.792915 -178.408319
L 319.823405 -177.737545
L 319.837091 -177.066771
L 319.834875 -176.395997
L 319.817628 -175.725223
L 319.786193 -175.054449
L 319.741372 -174.383675
L 319.683929 -173.712902
L 319.614583 -173.042128
L 319.534005 -172.371354
L 319.442818 -171.70058
L 319.341594 -171.029806
L 319.230851 -170.359032
L 319.11105 -169.688258
L 318.9826 -169.017485
L 318.845849 -168.346711
L 318.701091 -167.675937
L 318.548559 -167.005163
L 318.388425 -166.334389
L 318.220803 -165.663615
L 318.045745 -164.992841
L 317.863238 -164.322068
L 317.673208 -163.651294
L 317.475516 -162.98052
L 317.269955 -162.309746
L 317.05625 -161.638972
L 316.834062 -160.968198
L 316.602977 -160.297424
L 316.362515 -159.626651
L 316.112126 -158.955877
L 315.851188 -158.285103
L 315.579013 -157.614329
L 315.294848 -156.943555
L 314.997876 -156.272781
L 314.687221 -155.602008
L 314.361956 -154.931234
L 314.021107 -154.26046
L 313.663663 -153.589686
L 313.288585 -152.918912
L 312.894817 -152.248138
L 312.481298 -151.577364
L 312.046979 -150.906591
L 311.59083 -150.235817
L 311.111866 -149.565043
L 310.609155 -148.894269
L 310.081839 -148.223495
L 309.529151 -147.552721
L 308.950431 -146.881947
L 308.345142 -146.211174
L 307.712891 -145.5404
L 307.053437 -144.869626
L 306.36671 -144.198852
L 305.652821 -143.528078
L 304.912073 -142.857304
L 304.144966 -142.18653
L 303.352207 -141.515757
L 302.534711 -140.844983
L 301.693599 -140.174209
L 300.830199 -139.503435
L 299.946038 -138.832661
z
" style="stroke: #d55e00; stroke-opacity: 0.2"/>
    </defs>
    <g clip-path="url(#pc0c60fe82c)">
     <use xlink:href="#m27877773fe" x="0" y="259.2" style="fill: #d55e00; fill-opacity: 0.2; stroke: #d55e00; stroke-opacity: 0.2"/>
    </g>
   </g>
   <g id="LineCollection_1">
    <path d="M 106.446245 168.512132
L 157.220915 168.512132
" clip-path="url(#pc0c60fe82c)" style="fill: none; stroke: #20242a; stroke-width: 1.5"/>
    <path d="M 243.675085 87.164033
L 294.449755 87.164033
" clip-path="url(#pc0c60fe82c)" style="fill: none; stroke: #20242a; stroke-width: 1.5"/>
   </g>
   <g id="patch_3">
    <path d="M 69.12 207.36
L 69.12 46.656
" style="fill: none; stroke: #252a31; stroke-width: 0.9; stroke-linejoin: miter; stroke-linecap: square"/>
   </g>
   <g id="patch_4">
    <path d="M 69.12 207.36
L 331.776 207.36
" style="fill: none; stroke: #252a31; stroke-width: 0.9; stroke-linejoin: miter; stroke-linecap: square"/>
   </g>
   <g id="PathCollection_1">
    <defs>
     <path id="m7ed45f37f6" d="M 0 2.291288
C 0.607657 2.291288 1.190507 2.049863 1.620185 1.620185
C 2.049863 1.190507 2.291288 0.607657 2.291288 0
C 2.291288 -0.607657 2.049863 -1.190507 1.620185 -1.620185
C 1.190507 -2.049863 0.607657 -2.291288 0 -2.291288
C -0.607657 -2.291288 -1.190507 -2.049863 -1.620185 -1.620185
C -2.049863 -1.190507 -2.291288 -0.607657 -2.291288 0
C -2.291288 0.607657 -2.049863 1.190507 -1.620185 1.620185
C -1.190507 2.049863 -0.607657 2.291288 0 2.291288
z
" style="stroke: #ffffff; stroke-opacity: 0.72; stroke-width: 0.3"/>
    </defs>
    <g clip-path="url(#pc0c60fe82c)">
     <use xlink:href="#m7ed45f37f6" x="129.009964" y="200.055273" style="fill: #0072b2; fill-opacity: 0.72; stroke: #ffffff; stroke-opacity: 0.72; stroke-width: 0.3"/>
     <use xlink:href="#m7ed45f37f6" x="141.859275" y="176.812959" style="fill: #0072b2; fill-opacity: 0.72; stroke: #ffffff; stroke-opacity: 0.72; stroke-width: 0.3"/>
     <use xlink:href="#m7ed45f37f6" x="116.276435" y="153.570645" style="fill: #0072b2; fill-opacity: 0.72; stroke: #ffffff; stroke-opacity: 0.72; stroke-width: 0.3"/>
     <use xlink:href="#m7ed45f37f6" x="131.305588" y="190.094281" style="fill: #0072b2; fill-opacity: 0.72; stroke: #ffffff; stroke-opacity: 0.72; stroke-width: 0.3"/>
     <use xlink:href="#m7ed45f37f6" x="130.300181" y="140.289322" style="fill: #0072b2; fill-opacity: 0.72; stroke: #ffffff; stroke-opacity: 0.72; stroke-width: 0.3"/>
     <use xlink:href="#m7ed45f37f6" x="130.574466" y="166.851967" style="fill: #0072b2; fill-opacity: 0.72; stroke: #ffffff; stroke-opacity: 0.72; stroke-width: 0.3"/>
     <use xlink:href="#m7ed45f37f6" x="145.444716" y="183.45362" style="fill: #0072b2; fill-opacity: 0.72; stroke: #ffffff; stroke-opacity: 0.72; stroke-width: 0.3"/>
     <use xlink:href="#m7ed45f37f6" x="125.934902" y="160.211306" style="fill: #0072b2; fill-opacity: 0.72; stroke: #ffffff; stroke-opacity: 0.72; stroke-width: 0.3"/>
     <use xlink:href="#m7ed45f37f6" x="136.455044" y="146.929983" style="fill: #0072b2; fill-opacity: 0.72; stroke: #ffffff; stroke-opacity: 0.72; stroke-width: 0.3"/>
     <use xlink:href="#m7ed45f37f6" x="144.494696" y="193.414612" style="fill: #0072b2; fill-opacity: 0.72; stroke: #ffffff; stroke-opacity: 0.72; stroke-width: 0.3"/>
     <use xlink:href="#m7ed45f37f6" x="125.879987" y="170.172298" style="fill: #0072b2; fill-opacity: 0.72; stroke: #ffffff; stroke-opacity: 0.72; stroke-width: 0.3"/>
     <use xlink:href="#m7ed45f37f6" x="140.112653" y="156.890975" style="fill: #0072b2; fill-opacity: 0.72; stroke: #ffffff; stroke-opacity: 0.72; stroke-width: 0.3"/>
    </g>
   </g>
   <g id="PathCollection_2">
    <defs>
     <path id="mae8f1b1fb5" d="M 0 2.291288
C 0.607657 2.291288 1.190507 2.049863 1.620185 1.620185
C 2.049863 1.190507 2.291288 0.607657 2.291288 0
C 2.291288 -0.607657 2.049863 -1.190507 1.620185 -1.620185
C 1.190507 -2.049863 0.607657 -2.291288 0 -2.291288
C -0.607657 -2.291288 -1.190507 -2.049863 -1.620185 -1.620185
C -2.049863 -1.190507 -2.291288 -0.607657 -2.291288 0
C -2.291288 0.607657 -2.049863 1.190507 -1.620185 1.620185
C -1.190507 2.049863 -0.607657 2.291288 0 2.291288
z
" style="stroke: #ffffff; stroke-opacity: 0.72; stroke-width: 0.3"/>
    </defs>
    <g clip-path="url(#pc0c60fe82c)">
     <use xlink:href="#mae8f1b1fb5" x="266.433043" y="110.406347" style="fill: #d55e00; fill-opacity: 0.72; stroke: #ffffff; stroke-opacity: 0.72; stroke-width: 0.3"/>
     <use xlink:href="#mae8f1b1fb5" x="254.596392" y="67.24205" style="fill: #d55e00; fill-opacity: 0.72; stroke: #ffffff; stroke-opacity: 0.72; stroke-width: 0.3"/>
     <use xlink:href="#mae8f1b1fb5" x="269.434856" y="120.367339" style="fill: #d55e00; fill-opacity: 0.72; stroke: #ffffff; stroke-opacity: 0.72; stroke-width: 0.3"/>
     <use xlink:href="#mae8f1b1fb5" x="271.105324" y="90.484364" style="fill: #d55e00; fill-opacity: 0.72; stroke: #ffffff; stroke-opacity: 0.72; stroke-width: 0.3"/>
     <use xlink:href="#mae8f1b1fb5" x="271.846594" y="77.203041" style="fill: #d55e00; fill-opacity: 0.72; stroke: #ffffff; stroke-opacity: 0.72; stroke-width: 0.3"/>
     <use xlink:href="#mae8f1b1fb5" x="262.92653" y="100.445355" style="fill: #d55e00; fill-opacity: 0.72; stroke: #ffffff; stroke-opacity: 0.72; stroke-width: 0.3"/>
     <use xlink:href="#mae8f1b1fb5" x="259.194834" y="53.960727" style="fill: #d55e00; fill-opacity: 0.72; stroke: #ffffff; stroke-opacity: 0.72; stroke-width: 0.3"/>
     <use xlink:href="#mae8f1b1fb5" x="262.548515" y="117.047008" style="fill: #d55e00; fill-opacity: 0.72; stroke: #ffffff; stroke-opacity: 0.72; stroke-width: 0.3"/>
     <use xlink:href="#mae8f1b1fb5" x="285.439955" y="83.843702" style="fill: #d55e00; fill-opacity: 0.72; stroke: #ffffff; stroke-opacity: 0.72; stroke-width: 0.3"/>
     <use xlink:href="#mae8f1b1fb5" x="283.11354" y="73.882711" style="fill: #d55e00; fill-opacity: 0.72; stroke: #ffffff; stroke-opacity: 0.72; stroke-width: 0.3"/>
     <use xlink:href="#mae8f1b1fb5" x="252.999331" y="97.125025" style="fill: #d55e00; fill-opacity: 0.72; stroke: #ffffff; stroke-opacity: 0.72; stroke-width: 0.3"/>
     <use xlink:href="#mae8f1b1fb5" x="278.891458" y="60.601388" style="fill: #d55e00; fill-opacity: 0.72; stroke: #ffffff; stroke-opacity: 0.72; stroke-width: 0.3"/>
    </g>
   </g>
  </g>
  <g id="text_9">
   <text style="fill: #333333; font: 9.5px 'Arial'; text-anchor: start" x="69.12" y="21.171703" transform="rotate(-0, 69.12, 21.171703)">Mean difference = 2.48 (95% CI 1.95 to 3)</text>
  </g>
 </g>
 <defs>
  <clipPath id="pc0c60fe82c">
   <rect x="69.12" y="46.656" width="262.656" height="160.704"/>
  </clipPath>
 </defs>
</svg>
