<?xml version="1.0" encoding="utf-8" standalone="no"?>
<!DOCTYPE svg PUBLIC "-//W3C//DTD SVG 1.1//EN"
  "http://www.w3.org/Graphics/SVG/1.1/DTD/svg11.dtd">
<svg xmlns:xlink="http://www.w3.org/1999/xlink" width="345.6pt" height="259.2pt" viewBox="0 0 345.6 259.2" xmlns="http://www.w3.org/2000/svg" version="1.1">
 <metadata>
  <rdf:RDF xmlns:dc="http://purl.org/dc/elements/1.1/" xmlns:cc="http://creativecommons.org/ns#" xmlns:rdf="http://www.w3.org/1999/02/22-rdf-syntax-ns#">
   <cc:Work>
    <dc:type rdf:resource="http://purl.org/dc/dcmitype/StillImage"/>
    <dc:date>2026-07-19T18:39:41.582453</dc:date>
    <dc:format>image/svg+xml</dc:format>
    <dc:creator>
     <cc:Agent>
      <dc:title>Matplotlib v3.5.2, https://matplotlib.org/</dc:title>
     </cc:Agent>
    </dc:creator>
   </cc:Work>
  </rdf:RDF>
 </metadata>
 <defs>
  <style type="text/css">*{stroke-linejoin: round; stroke-linecap: butt}</style>
 </defs>
 <g id="figure_1">
  <g id="patch_1">
   <path d="M 0 259.2
L 345.6 259.2
L 345.6 0
L 0 0
z
" style="fill: #ffffff"/>
  </g>
  <g id="axes_1">
   <g id="patch_2">
    <path d="M 69.12 207.36
L 331.776 207.36
L 331.776 46.656
L 69.12 46.656
z
" style="fill: #ffffff"/>
   </g>
   <g id="matplotlib.axis_1">
    <g id="xtick_1">
     <g id="line2d_1">
      <defs>
       <path id="mb5daf3d8a8" d="M 0 0
L 0 4
" style="stroke: #252a31; stroke-width: 0.8"/>
      </defs>
      <g>
       <use xlink:href="#mb5daf3d8a8" x="101.308235" y="207.36" style="fill: #252a31; stroke: #252a31; stroke-width: 0.8"/>
      </g>
     </g>
     <g id="text_1">
      <text style="font: 10.5px 'Arial'; text-anchor: middle" x="101.308235" y="222.875703" transform="rotate(-0, 101.308235, 222.875703)">Vehicle</text>
     </g>
    </g>
    <g id="xtick_2">
     <g id="line2d_2">
      <g>
       <use xlink:href="#mb5daf3d8a8" x="165.684706" y="207.36" style="fill: #252a31; stroke: #252a31; stroke-width: 0.8"/>
      </g>
     </g>
     <g id="text_2">
      <text style="font: 10.5px 'Arial'; text-anchor: middle" x="165.684706" y="222.875703" transform="rotate(-0, 165.684706, 222.875703)">Low dose</text>
     </g>
    </g>
    <g id="xtick_3">
     <g id="line2d_3">
      <g>
       <use xlink:href="#mb5daf3d8a8" x="230.061176" y="207.36" style="fill: #252a31; stroke: #252a31; stroke-width: 0.8"/>
      </g>
     </g>
     <g id="text_3">
      <text style="font: 10.5px 'Arial'; text-anchor: middle" x="230.061176" y="222.875703" transform="rotate(-0, 230.061176, 222.875703)">Mid dose</text>
     </g>
    </g>
    <g id="xtick_4">
     <g id="line2d_4">
      <g>
       <use xlink:href="#mb5daf3d8a8" x="294.437647" y="207.36" style="fill: #252a31; stroke: #252a31; stroke-width: 0.8"/>
      </g>
     </g>
     <g id="text_4">
      <text style="font: 10.5px 'Arial'; text-anchor: middle" x="294.437647" y="222.875703" transform="rotate(-0, 294.437647, 222.875703)">High dose</text>
     </g>
    </g>
   </g>
   <g id="matplotlib.axis_2">
    <g id="ytick_1">
     <g id="line2d_5">
      <defs>
       <path id="mf16bf71da8" d="M 0 0
L -4 0
" style="stroke: #252a31; stroke-width: 0.8"/>
      </defs>
      <g>
       <use xlink:href="#mf16bf71da8" x="69.12" y="176.364265" style="fill: #252a31; stroke: #252a31; stroke-width: 0.8"/>
      </g>
     </g>
     <g id="text_5">
      <text style="font: 10.5px 'Arial'; text-anchor: end" x="61.12" y="180.122117" transform="rotate(-0, 61.12, 180.122117)">10</text>
     </g>
    </g>
    <g id="ytick_2">
     <g id="line2d_6">
      <g>
       <use xlink:href="#mf16bf71da8" x="69.12" y="136.879253" style="fill: #252a31; stroke: #252a31; stroke-width: 0.8"/>
      </g>
     </g>
     <g id="text_6">
      <text style="font: 10.5px 'Arial'; text-anchor: end" x="61.12" y="140.637105" transform="rotate(-0, 61.12, 140.637105)">11</text>
     </g>
    </g>
    <g id="ytick_3">
     <g id="line2d_7">
      <g>
       <use xlink:href="#mf16bf71da8" x="69.12" y="97.394241" style="fill: #252a31; stroke: #252a31; stroke-width: 0.8"/>
      </g>
     </g>
     <g id="text_7">
      <text style="font: 10.5px 'Arial'; text-anchor: end" x="61.12" y="101.152092" transform="rotate(-0, 61.12, 101.152092)">12</text>
     </g>
    </g>
    <g id="ytick_4">
     <g id="line2d_8">
      <g>
       <use xlink:href="#mf16bf71da8" x="69.12" y="57.909229" style="fill: #252a31; stroke: #252a31; stroke-width: 0.8"/>
      </g>
     </g>
     <g id="text_8">
      <text style="font: 10.5px 'Arial'; text-anchor: end" x="61.12" y="61.66708" transform="rotate(-0, 61.12, 61.66708)">13</text>
     </g>
    </g>
    <g id="text_9">
     <text style="font: 12px 'Arial'; text-anchor: middle" x="42.916406" y="127.008" transform="rotate(-90, 42.916406, 127.008)">Response (a.u.)</text>
    </g>
   </g>
   <g id="PolyCollection_1">
    <defs>
     <path id="m89e8eeec7e" d="M 117.133608 -59.144727
L 106.458353 -59.144727
L 106.458353 -59.703101
L 106.458353 -60.261475
L 106.458353 -60.819849
L 106.458353 -61.378223
L 106.458353 -61.936597
L 106.458353 -62.494971
L 106.458353 -63.053345
L 106.458353 -63.611719
L 106.458353 -64.170092
L 106.458353 -64.728466
L 106.458353 -65.28684
L 106.458353 -65.845214
L 106.458353 -66.403588
L 106.458353 -66.961962
L 106.458353 -67.520336
L 106.458353 -68.07871
L 106.458353 -68.637084
L 106.458353 -69.195458
L 106.458353 -69.753832
L 106.458353 -70.312205
L 106.458353 -70.870579
L 106.458353 -71.428953
L 106.458353 -71.987327
L 106.458353 -72.545701
L 106.458353 -73.104075
L 106.458353 -73.662449
L 106.458353 -74.220823
L 106.458353 -74.779197
L 106.458353 -75.337571
L 106.458353 -75.895945
L 106.458353 -76.454319
L 106.458353 -77.012692
L 106.458353 -77.571066
L 106.458353 -78.12944
L 106.458353 -78.687814
L 106.458353 -79.246188
L 106.458353 -79.804562
L 106.458353 -80.362936
L 106.458353 -80.92131
L 106.458353 -81.479684
L 106.458353 -82.038058
L 106.458353 -82.596432
L 106.458353 -83.154805
L 106.458353 -83.713179
L 106.458353 -84.271553
L 106.458353 -84.829927
L 106.458353 -85.388301
L 106.458353 -85.946675
L 106.458353 -86.505049
L 106.458353 -87.063423
L 106.458353 -87.621797
L 106.458353 -88.180171
L 106.458353 -88.738545
L 106.458353 -89.296918
L 106.458353 -89.855292
L 106.458353 -90.413666
L 106.458353 -90.97204
L 106.458353 -91.530414
L 106.458353 -92.088788
L 106.458353 -92.647162
L 106.458353 -93.205536
L 106.458353 -93.76391
L 106.458353 -94.322284
L 106.458353 -94.880658
L 106.458353 -95.439031
L 106.458353 -95.997405
L 106.458353 -96.555779
L 106.458353 -97.114153
L 106.458353 -97.672527
L 106.458353 -98.230901
L 106.458353 -98.789275
L 106.458353 -99.347649
L 106.458353 -99.906023
L 106.458353 -100.464397
L 106.458353 -101.022771
L 106.458353 -101.581145
L 106.458353 -102.139518
L 106.458353 -102.697892
L 106.458353 -103.256266
L 106.458353 -103.81464
L 106.458353 -104.373014
L 106.458353 -104.931388
L 106.458353 -105.489762
L 106.458353 -106.048136
L 106.458353 -106.60651
L 106.458353 -107.164884
L 106.458353 -107.723258
L 106.458353 -108.281631
L 106.458353 -108.840005
L 106.458353 -109.398379
L 106.458353 -109.956753
L 106.458353 -110.515127
L 106.458353 -111.073501
L 106.458353 -111.631875
L 106.458353 -112.190249
L 106.458353 -112.748623
L 106.458353 -113.306997
L 106.458353 -113.865371
L 106.458353 -114.423744
L 114.659642 -114.423744
L 114.659642 -114.423744
L 114.971751 -113.865371
L 115.284861 -113.306997
L 115.598744 -112.748623
L 115.913206 -112.190249
L 116.228087 -111.631875
L 116.543259 -111.073501
L 116.858621 -110.515127
L 117.174096 -109.956753
L 117.489626 -109.398379
L 117.805166 -108.840005
L 118.120681 -108.281631
L 118.436135 -107.723258
L 118.751491 -107.164884
L 119.066699 -106.60651
L 119.381698 -106.048136
L 119.6964 -105.489762
L 120.010694 -104.931388
L 120.324438 -104.373014
L 120.637454 -103.81464
L 120.949527 -103.256266
L 121.260401 -102.697892
L 121.569778 -102.139518
L 121.87732 -101.581145
L 122.182646 -101.022771
L 122.485332 -100.464397
L 122.784918 -99.906023
L 123.080908 -99.347649
L 123.372773 -98.789275
L 123.659956 -98.230901
L 123.941876 -97.672527
L 124.217935 -97.114153
L 124.487519 -96.555779
L 124.75001 -95.997405
L 125.004785 -95.439031
L 125.251226 -94.880658
L 125.488724 -94.322284
L 125.716684 -93.76391
L 125.934531 -93.205536
L 126.141713 -92.647162
L 126.337705 -92.088788
L 126.522015 -91.530414
L 126.694187 -90.97204
L 126.8538 -90.413666
L 127.000475 -89.855292
L 127.133872 -89.296918
L 127.253696 -88.738545
L 127.359695 -88.180171
L 127.45166 -87.621797
L 127.529428 -87.063423
L 127.592879 -86.505049
L 127.641935 -85.946675
L 127.676561 -85.388301
L 127.696763 -84.829927
L 127.702588 -84.271553
L 127.69412 -83.713179
L 127.67148 -83.154805
L 127.634823 -82.596432
L 127.584337 -82.038058
L 127.520242 -81.479684
L 127.442783 -80.92131
L 127.352231 -80.362936
L 127.248882 -79.804562
L 127.133049 -79.246188
L 127.005063 -78.687814
L 126.865267 -78.12944
L 126.714014 -77.571066
L 126.551665 -77.012692
L 126.378582 -76.454319
L 126.195126 -75.895945
L 126.001656 -75.337571
L 125.79852 -74.779197
L 125.586056 -74.220823
L 125.36459 -73.662449
L 125.134429 -73.104075
L 124.89586 -72.545701
L 124.649151 -71.987327
L 124.394548 -71.428953
L 124.132273 -70.870579
L 123.862527 -70.312205
L 123.585488 -69.753832
L 123.301316 -69.195458
L 123.010151 -68.637084
L 122.712121 -68.07871
L 122.407343 -67.520336
L 122.095925 -66.961962
L 121.777979 -66.403588
L 121.453617 -65.845214
L 121.122963 -65.28684
L 120.786158 -64.728466
L 120.443365 -64.170092
L 120.094775 -63.611719
L 119.740613 -63.053345
L 119.381143 -62.494971
L 119.016673 -61.936597
L 118.64756 -61.378223
L 118.27421 -60.819849
L 117.897083 -60.261475
L 117.516693 -59.703101
L 117.133608 -59.144727
z
" style="stroke: #376795; stroke-opacity: 0.22"/>
    </defs>
    <g clip-path="url(#pc1e39f8f9e)">
     <use xlink:href="#m89e8eeec7e" x="0" y="259.2" style="fill: #376795; fill-opacity: 0.22; stroke: #376795; stroke-opacity: 0.22"/>
    </g>
   </g>
   <g id="PolyCollection_2">
    <defs>
     <path id="m39524965e5" d="M 180.215539 -82.835735
L 170.834824 -82.835735
L 170.834824 -83.354225
L 170.834824 -83.872715
L 170.834824 -84.391205
L 170.834824 -84.909695
L 170.834824 -85.428185
L 170.834824 -85.946675
L 170.834824 -86.465165
L 170.834824 -86.983655
L 170.834824 -87.502145
L 170.834824 -88.020635
L 170.834824 -88.539125
L 170.834824 -89.057615
L 170.834824 -89.576105
L 170.834824 -90.094595
L 170.834824 -90.613086
L 170.834824 -91.131576
L 170.834824 -91.650066
L 170.834824 -92.168556
L 170.834824 -92.687046
L 170.834824 -93.205536
L 170.834824 -93.724026
L 170.834824 -94.242516
L 170.834824 -94.761006
L 170.834824 -95.279496
L 170.834824 -95.797986
L 170.834824 -96.316476
L 170.834824 -96.834966
L 170.834824 -97.353456
L 170.834824 -97.871946
L 170.834824 -98.390436
L 170.834824 -98.908927
L 170.834824 -99.427417
L 170.834824 -99.945907
L 170.834824 -100.464397
L 170.834824 -100.982887
L 170.834824 -101.501377
L 170.834824 -102.019867
L 170.834824 -102.538357
L 170.834824 -103.056847
L 170.834824 -103.575337
L 170.834824 -104.093827
L 170.834824 -104.612317
L 170.834824 -105.130807
L 170.834824 -105.649297
L 170.834824 -106.167787
L 170.834824 -106.686277
L 170.834824 -107.204767
L 170.834824 -107.723258
L 170.834824 -108.241748
L 170.834824 -108.760238
L 170.834824 -109.278728
L 170.834824 -109.797218
L 170.834824 -110.315708
L 170.834824 -110.834198
L 170.834824 -111.352688
L 170.834824 -111.871178
L 170.834824 -112.389668
L 170.834824 -112.908158
L 170.834824 -113.426648
L 170.834824 -113.945138
L 170.834824 -114.463628
L 170.834824 -114.982118
L 170.834824 -115.500608
L 170.834824 -116.019099
L 170.834824 -116.537589
L 170.834824 -117.056079
L 170.834824 -117.574569
L 170.834824 -118.093059
L 170.834824 -118.611549
L 170.834824 -119.130039
L 170.834824 -119.648529
L 170.834824 -120.167019
L 170.834824 -120.685509
L 170.834824 -121.203999
L 170.834824 -121.722489
L 170.834824 -122.240979
L 170.834824 -122.759469
L 170.834824 -123.277959
L 170.834824 -123.796449
L 170.834824 -124.314939
L 170.834824 -124.83343
L 170.834824 -125.35192
L 170.834824 -125.87041
L 170.834824 -126.3889
L 170.834824 -126.90739
L 170.834824 -127.42588
L 170.834824 -127.94437
L 170.834824 -128.46286
L 170.834824 -128.98135
L 170.834824 -129.49984
L 170.834824 -130.01833
L 170.834824 -130.53682
L 170.834824 -131.05531
L 170.834824 -131.5738
L 170.834824 -132.09229
L 170.834824 -132.61078
L 170.834824 -133.12927
L 170.834824 -133.647761
L 170.834824 -134.166251
L 180.215539 -134.166251
L 180.215539 -134.166251
L 180.613079 -133.647761
L 181.012719 -133.12927
L 181.413714 -132.61078
L 181.815314 -132.09229
L 182.216768 -131.5738
L 182.617323 -131.05531
L 183.016232 -130.53682
L 183.412751 -130.01833
L 183.806145 -129.49984
L 184.195693 -128.98135
L 184.580683 -128.46286
L 184.960423 -127.94437
L 185.33424 -127.42588
L 185.701482 -126.90739
L 186.061526 -126.3889
L 186.413775 -125.87041
L 186.757664 -125.35192
L 187.092663 -124.83343
L 187.418278 -124.314939
L 187.734057 -123.796449
L 188.039588 -123.277959
L 188.334503 -122.759469
L 188.618482 -122.240979
L 188.891249 -121.722489
L 189.152578 -121.203999
L 189.402289 -120.685509
L 189.640251 -120.167019
L 189.866381 -119.648529
L 190.080639 -119.130039
L 190.28303 -118.611549
L 190.473601 -118.093059
L 190.652437 -117.574569
L 190.819657 -117.056079
L 190.975412 -116.537589
L 191.119879 -116.019099
L 191.253258 -115.500608
L 191.375767 -114.982118
L 191.487634 -114.463628
L 191.589096 -113.945138
L 191.680393 -113.426648
L 191.76176 -112.908158
L 191.833427 -112.389668
L 191.895608 -111.871178
L 191.948504 -111.352688
L 191.992294 -110.834198
L 192.027132 -110.315708
L 192.053145 -109.797218
L 192.070432 -109.278728
L 192.079059 -108.760238
L 192.079059 -108.241748
L 192.070432 -107.723258
L 192.053145 -107.204767
L 192.027132 -106.686277
L 191.992294 -106.167787
L 191.948504 -105.649297
L 191.895608 -105.130807
L 191.833427 -104.612317
L 191.76176 -104.093827
L 191.680393 -103.575337
L 191.589096 -103.056847
L 191.487634 -102.538357
L 191.375767 -102.019867
L 191.253258 -101.501377
L 191.119879 -100.982887
L 190.975412 -100.464397
L 190.819657 -99.945907
L 190.652437 -99.427417
L 190.473601 -98.908927
L 190.28303 -98.390436
L 190.080639 -97.871946
L 189.866381 -97.353456
L 189.640251 -96.834966
L 189.402289 -96.316476
L 189.152578 -95.797986
L 188.891249 -95.279496
L 188.618482 -94.761006
L 188.334503 -94.242516
L 188.039588 -93.724026
L 187.734057 -93.205536
L 187.418278 -92.687046
L 187.092663 -92.168556
L 186.757664 -91.650066
L 186.413775 -91.131576
L 186.061526 -90.613086
L 185.701482 -90.094595
L 185.33424 -89.576105
L 184.960423 -89.057615
L 184.580683 -88.539125
L 184.195693 -88.020635
L 183.806145 -87.502145
L 183.412751 -86.983655
L 183.016232 -86.465165
L 182.617323 -85.946675
L 182.216768 -85.428185
L 181.815314 -84.909695
L 181.413714 -84.391205
L 181.012719 -83.872715
L 180.613079 -83.354225
L 180.215539 -82.835735
z
" style="stroke: #b72230; stroke-opacity: 0.22"/>
    </defs>
    <g clip-path="url(#pc1e39f8f9e)">
     <use xlink:href="#m39524965e5" x="0" y="259.2" style="fill: #b72230; fill-opacity: 0.22; stroke: #b72230; stroke-opacity: 0.22"/>
    </g>
   </g>
   <g id="PolyCollection_3">
    <defs>
     <path id="m828a94da79" d="M 246.690645 -114.423744
L 235.211294 -114.423744
L 235.211294 -114.942235
L 235.211294 -115.460725
L 235.211294 -115.979215
L 235.211294 -116.497705
L 235.211294 -117.016195
L 235.211294 -117.534685
L 235.211294 -118.053175
L 235.211294 -118.571665
L 235.211294 -119.090155
L 235.211294 -119.608645
L 235.211294 -120.127135
L 235.211294 -120.645625
L 235.211294 -121.164115
L 235.211294 -121.682605
L 235.211294 -122.201095
L 235.211294 -122.719585
L 235.211294 -123.238075
L 235.211294 -123.756566
L 235.211294 -124.275056
L 235.211294 -124.793546
L 235.211294 -125.312036
L 235.211294 -125.830526
L 235.211294 -126.349016
L 235.211294 -126.867506
L 235.211294 -127.385996
L 235.211294 -127.904486
L 235.211294 -128.422976
L 235.211294 -128.941466
L 235.211294 -129.459956
L 235.211294 -129.978446
L 235.211294 -130.496936
L 235.211294 -131.015426
L 235.211294 -131.533916
L 235.211294 -132.052407
L 235.211294 -132.570897
L 235.211294 -133.089387
L 235.211294 -133.607877
L 235.211294 -134.126367
L 235.211294 -134.644857
L 235.211294 -135.163347
L 235.211294 -135.681837
L 235.211294 -136.200327
L 235.211294 -136.718817
L 235.211294 -137.237307
L 235.211294 -137.755797
L 235.211294 -138.274287
L 235.211294 -138.792777
L 235.211294 -139.311267
L 235.211294 -139.829757
L 235.211294 -140.348247
L 235.211294 -140.866738
L 235.211294 -141.385228
L 235.211294 -141.903718
L 235.211294 -142.422208
L 235.211294 -142.940698
L 235.211294 -143.459188
L 235.211294 -143.977678
L 235.211294 -144.496168
L 235.211294 -145.014658
L 235.211294 -145.533148
L 235.211294 -146.051638
L 235.211294 -146.570128
L 235.211294 -147.088618
L 235.211294 -147.607108
L 235.211294 -148.125598
L 235.211294 -148.644088
L 235.211294 -149.162579
L 235.211294 -149.681069
L 235.211294 -150.199559
L 235.211294 -150.718049
L 235.211294 -151.236539
L 235.211294 -151.755029
L 235.211294 -152.273519
L 235.211294 -152.792009
L 235.211294 -153.310499
L 235.211294 -153.828989
L 235.211294 -154.347479
L 235.211294 -154.865969
L 235.211294 -155.384459
L 235.211294 -155.902949
L 235.211294 -156.421439
L 235.211294 -156.939929
L 235.211294 -157.458419
L 235.211294 -157.97691
L 235.211294 -158.4954
L 235.211294 -159.01389
L 235.211294 -159.53238
L 235.211294 -160.05087
L 235.211294 -160.56936
L 235.211294 -161.08785
L 235.211294 -161.60634
L 235.211294 -162.12483
L 235.211294 -162.64332
L 235.211294 -163.16181
L 235.211294 -163.6803
L 235.211294 -164.19879
L 235.211294 -164.71728
L 235.211294 -165.23577
L 235.211294 -165.75426
L 245.087958 -165.75426
L 245.087958 -165.75426
L 245.491315 -165.23577
L 245.896673 -164.71728
L 246.303291 -164.19879
L 246.710421 -163.6803
L 247.117309 -163.16181
L 247.5232 -162.64332
L 247.927339 -162.12483
L 248.328976 -161.60634
L 248.727365 -161.08785
L 249.121768 -160.56936
L 249.511459 -160.05087
L 249.895725 -159.53238
L 250.273868 -159.01389
L 250.645208 -158.4954
L 251.009088 -157.97691
L 251.364869 -157.458419
L 251.711941 -156.939929
L 252.049718 -156.421439
L 252.377644 -155.902949
L 252.695193 -155.384459
L 253.001871 -154.865969
L 253.297219 -154.347479
L 253.580809 -153.828989
L 253.852253 -153.310499
L 254.111196 -152.792009
L 254.357322 -152.273519
L 254.590352 -151.755029
L 254.810044 -151.236539
L 255.016195 -150.718049
L 255.208639 -150.199559
L 255.387246 -149.681069
L 255.551924 -149.162579
L 255.702617 -148.644088
L 255.839306 -148.125598
L 255.962003 -147.607108
L 256.070759 -147.088618
L 256.165655 -146.570128
L 256.246807 -146.051638
L 256.314362 -145.533148
L 256.3685 -145.014658
L 256.409429 -144.496168
L 256.437392 -143.977678
L 256.452659 -143.459188
L 256.455529 -142.940698
L 256.446333 -142.422208
L 256.425426 -141.903718
L 256.393193 -141.385228
L 256.350044 -140.866738
L 256.296417 -140.348247
L 256.232769 -139.829757
L 256.159581 -139.311267
L 256.077355 -138.792777
L 255.986607 -138.274287
L 255.887869 -137.755797
L 255.781681 -137.237307
L 255.668592 -136.718817
L 255.549149 -136.200327
L 255.423898 -135.681837
L 255.293375 -135.163347
L 255.158103 -134.644857
L 255.018582 -134.126367
L 254.875286 -133.607877
L 254.728657 -133.089387
L 254.579094 -132.570897
L 254.426952 -132.052407
L 254.272536 -131.533916
L 254.116091 -131.015426
L 253.9578 -130.496936
L 253.797781 -129.978446
L 253.636084 -129.459956
L 253.472683 -128.941466
L 253.307483 -128.422976
L 253.140315 -127.904486
L 252.970939 -127.385996
L 252.799045 -126.867506
L 252.624261 -126.349016
L 252.446153 -125.830526
L 252.264238 -125.312036
L 252.077986 -124.793546
L 251.886832 -124.275056
L 251.690188 -123.756566
L 251.487448 -123.238075
L 251.278007 -122.719585
L 251.061269 -122.201095
L 250.836657 -121.682605
L 250.603633 -121.164115
L 250.361701 -120.645625
L 250.110426 -120.127135
L 249.849441 -119.608645
L 249.578458 -119.090155
L 249.297279 -118.571665
L 249.0058 -118.053175
L 248.70402 -117.534685
L 248.392044 -117.016195
L 248.070089 -116.497705
L 247.738481 -115.979215
L 247.397657 -115.460725
L 247.048162 -114.942235
L 246.690645 -114.423744
z
" style="stroke: #d6a84b; stroke-opacity: 0.22"/>
    </defs>
    <g clip-path="url(#pc1e39f8f9e)">
     <use xlink:href="#m828a94da79" x="0" y="259.2" style="fill: #d6a84b; fill-opacity: 0.22; stroke: #d6a84b; stroke-opacity: 0.22"/>
    </g>
   </g>
   <g id="PolyCollection_4">
    <defs>
     <path id="m7b79702ada" d="M 313.984982 -149.960256
L 299.587765 -149.960256
L 299.587765 -150.518629
L 299.587765 -151.077003
L 299.587765 -151.635377
L 299.587765 -152.193751
L 299.587765 -152.752125
L 299.587765 -153.310499
L 299.587765 -153.868873
L 299.587765 -154.427247
L 299.587765 -154.985621
L 299.587765 -155.543995
L 299.587765 -156.102369
L 299.587765 -156.660742
L 299.587765 -157.219116
L 299.587765 -157.77749
L 299.587765 -158.335864
L 299.587765 -158.894238
L 299.587765 -159.452612
L 299.587765 -160.010986
L 299.587765 -160.56936
L 299.587765 -161.127734
L 299.587765 -161.686108
L 299.587765 -162.244482
L 299.587765 -162.802855
L 299.587765 -163.361229
L 299.587765 -163.919603
L 299.587765 -164.477977
L 299.587765 -165.036351
L 299.587765 -165.594725
L 299.587765 -166.153099
L 299.587765 -166.711473
L 299.587765 -167.269847
L 299.587765 -167.828221
L 299.587765 -168.386595
L 299.587765 -168.944969
L 299.587765 -169.503342
L 299.587765 -170.061716
L 299.587765 -170.62009
L 299.587765 -171.178464
L 299.587765 -171.736838
L 299.587765 -172.295212
L 299.587765 -172.853586
L 299.587765 -173.41196
L 299.587765 -173.970334
L 299.587765 -174.528708
L 299.587765 -175.087082
L 299.587765 -175.645455
L 299.587765 -176.203829
L 299.587765 -176.762203
L 299.587765 -177.320577
L 299.587765 -177.878951
L 299.587765 -178.437325
L 299.587765 -178.995699
L 299.587765 -179.554073
L 299.587765 -180.112447
L 299.587765 -180.670821
L 299.587765 -181.229195
L 299.587765 -181.787568
L 299.587765 -182.345942
L 299.587765 -182.904316
L 299.587765 -183.46269
L 299.587765 -184.021064
L 299.587765 -184.579438
L 299.587765 -185.137812
L 299.587765 -185.696186
L 299.587765 -186.25456
L 299.587765 -186.812934
L 299.587765 -187.371308
L 299.587765 -187.929681
L 299.587765 -188.488055
L 299.587765 -189.046429
L 299.587765 -189.604803
L 299.587765 -190.163177
L 299.587765 -190.721551
L 299.587765 -191.279925
L 299.587765 -191.838299
L 299.587765 -192.396673
L 299.587765 -192.955047
L 299.587765 -193.513421
L 299.587765 -194.071795
L 299.587765 -194.630168
L 299.587765 -195.188542
L 299.587765 -195.746916
L 299.587765 -196.30529
L 299.587765 -196.863664
L 299.587765 -197.422038
L 299.587765 -197.980412
L 299.587765 -198.538786
L 299.587765 -199.09716
L 299.587765 -199.655534
L 299.587765 -200.213908
L 299.587765 -200.772281
L 299.587765 -201.330655
L 299.587765 -201.889029
L 299.587765 -202.447403
L 299.587765 -203.005777
L 299.587765 -203.564151
L 299.587765 -204.122525
L 299.587765 -204.680899
L 299.587765 -205.239273
L 309.795063 -205.239273
L 309.795063 -205.239273
L 310.16011 -204.680899
L 310.523293 -204.122525
L 310.883957 -203.564151
L 311.241481 -203.005777
L 311.595284 -202.447403
L 311.944821 -201.889029
L 312.289595 -201.330655
L 312.629149 -200.772281
L 312.963073 -200.213908
L 313.291002 -199.655534
L 313.612618 -199.09716
L 313.927643 -198.538786
L 314.235842 -197.980412
L 314.537022 -197.422038
L 314.831024 -196.863664
L 315.117724 -196.30529
L 315.397027 -195.746916
L 315.668865 -195.188542
L 315.933192 -194.630168
L 316.189981 -194.071795
L 316.43922 -193.513421
L 316.680908 -192.955047
L 316.915051 -192.396673
L 317.141662 -191.838299
L 317.360755 -191.279925
L 317.572344 -190.721551
L 317.776444 -190.163177
L 317.973066 -189.604803
L 318.16222 -189.046429
L 318.343915 -188.488055
L 318.518159 -187.929681
L 318.68496 -187.371308
L 318.844329 -186.812934
L 318.996283 -186.25456
L 319.140844 -185.696186
L 319.278048 -185.137812
L 319.407943 -184.579438
L 319.530592 -184.021064
L 319.64608 -183.46269
L 319.754511 -182.904316
L 319.856015 -182.345942
L 319.950745 -181.787568
L 320.038881 -181.229195
L 320.120631 -180.670821
L 320.196226 -180.112447
L 320.265924 -179.554073
L 320.330001 -178.995699
L 320.388756 -178.437325
L 320.4425 -177.878951
L 320.491554 -177.320577
L 320.536242 -176.762203
L 320.576885 -176.203829
L 320.613796 -175.645455
L 320.647269 -175.087082
L 320.677572 -174.528708
L 320.704942 -173.970334
L 320.729572 -173.41196
L 320.751608 -172.853586
L 320.771137 -172.295212
L 320.788186 -171.736838
L 320.802711 -171.178464
L 320.814593 -170.62009
L 320.823634 -170.061716
L 320.829557 -169.503342
L 320.832 -168.944969
L 320.830518 -168.386595
L 320.824585 -167.828221
L 320.813596 -167.269847
L 320.796869 -166.711473
L 320.773657 -166.153099
L 320.74315 -165.594725
L 320.704483 -165.036351
L 320.656751 -164.477977
L 320.599016 -163.919603
L 320.53032 -163.361229
L 320.449697 -162.802855
L 320.356188 -162.244482
L 320.248856 -161.686108
L 320.126793 -161.127734
L 319.989142 -160.56936
L 319.835108 -160.010986
L 319.663967 -159.452612
L 319.475086 -158.894238
L 319.267927 -158.335864
L 319.042063 -157.77749
L 318.797183 -157.219116
L 318.533103 -156.660742
L 318.249771 -156.102369
L 317.947271 -155.543995
L 317.625828 -154.985621
L 317.285805 -154.427247
L 316.927709 -153.868873
L 316.552181 -153.310499
L 316.16 -152.752125
L 315.752068 -152.193751
L 315.329413 -151.635377
L 314.893171 -151.077003
L 314.444584 -150.518629
L 313.984982 -149.960256
z
" style="stroke: #6fa6a0; stroke-opacity: 0.22"/>
    </defs>
    <g clip-path="url(#pc1e39f8f9e)">
     <use xlink:href="#m7b79702ada" x="0" y="259.2" style="fill: #6fa6a0; fill-opacity: 0.22; stroke: #6fa6a0; stroke-opacity: 0.22"/>
    </g>
   </g>
   <g id="patch_3">
    <path d="M 69.12 207.36
L 69.12 46.656
" style="fill: none; stroke: #252a31; stroke-width: 0.9; stroke-linejoin: miter; stroke-linecap: square"/>
   </g>
   <g id="patch_4">
    <path d="M 69.12 207.36
L 331.776 207.36
" style="fill: none; stroke: #252a31; stroke-width: 0.9; stroke-linejoin: miter; stroke-linecap: square"/>
   </g>
   <g id="PathCollection_1">
    <defs>
     <path id="m848a94e242" d="M 0 2.397916
C 0.635935 2.397916 1.245909 2.145256 1.695582 1.695582
C 2.145256 1.245909 2.397916 0.635935 2.397916 0
C 2.397916 -0.635935 2.145256 -1.245909 1.695582 -1.695582
C 1.245909 -2.145256 0.635935 -2.397916 0 -2.397916
C -0.635935 -2.397916 -1.245909 -2.145256 -1.695582 -1.695582
C -2.145256 -1.245909 -2.397916 -0.635935 -2.397916 0
C -2.397916 0.635935 -2.145256 1.245909 -1.695582 1.695582
C -1.245909 2.145256 -0.635935 2.397916 0 2.397916
z
" style="stroke: #ffffff; stroke-opacity: 0.72; stroke-width: 0.3"/>
    </defs>
    <g clip-path="url(#pc1e39f8f9e)">
     <use xlink:href="#m848a94e242" x="88.249252" y="176.364265" style="fill: #376795; fill-opacity: 0.72; stroke: #ffffff; stroke-opacity: 0.72; stroke-width: 0.3"/>
     <use xlink:href="#m848a94e242" x="83.226053" y="152.673258" style="fill: #376795; fill-opacity: 0.72; stroke: #ffffff; stroke-opacity: 0.72; stroke-width: 0.3"/>
     <use xlink:href="#m848a94e242" x="93.227188" y="188.209769" style="fill: #376795; fill-opacity: 0.72; stroke: #ffffff; stroke-opacity: 0.72; stroke-width: 0.3"/>
     <use xlink:href="#m848a94e242" x="87.35182" y="164.518762" style="fill: #376795; fill-opacity: 0.72; stroke: #ffffff; stroke-opacity: 0.72; stroke-width: 0.3"/>
     <use xlink:href="#m848a94e242" x="87.744866" y="200.055273" style="fill: #376795; fill-opacity: 0.72; stroke: #ffffff; stroke-opacity: 0.72; stroke-width: 0.3"/>
     <use xlink:href="#m848a94e242" x="87.637639" y="144.776256" style="fill: #376795; fill-opacity: 0.72; stroke: #ffffff; stroke-opacity: 0.72; stroke-width: 0.3"/>
     <use xlink:href="#m848a94e242" x="81.824392" y="180.312767" style="fill: #376795; fill-opacity: 0.72; stroke: #ffffff; stroke-opacity: 0.72; stroke-width: 0.3"/>
     <use xlink:href="#m848a94e242" x="89.45139" y="168.467263" style="fill: #376795; fill-opacity: 0.72; stroke: #ffffff; stroke-opacity: 0.72; stroke-width: 0.3"/>
     <use xlink:href="#m848a94e242" x="85.338736" y="196.106771" style="fill: #376795; fill-opacity: 0.72; stroke: #ffffff; stroke-opacity: 0.72; stroke-width: 0.3"/>
     <use xlink:href="#m848a94e242" x="82.195784" y="160.57026" style="fill: #376795; fill-opacity: 0.72; stroke: #ffffff; stroke-opacity: 0.72; stroke-width: 0.3"/>
     <use xlink:href="#m848a94e242" x="89.472858" y="184.261268" style="fill: #376795; fill-opacity: 0.72; stroke: #ffffff; stroke-opacity: 0.72; stroke-width: 0.3"/>
     <use xlink:href="#m848a94e242" x="83.908862" y="172.415764" style="fill: #376795; fill-opacity: 0.72; stroke: #ffffff; stroke-opacity: 0.72; stroke-width: 0.3"/>
    </g>
   </g>
   <g id="PathCollection_2">
    <defs>
     <path id="mc3f93b55f7" d="M 0 2.397916
C 0.635935 2.397916 1.245909 2.145256 1.695582 1.695582
C 2.145256 1.245909 2.397916 0.635935 2.397916 0
C 2.397916 -0.635935 2.145256 -1.245909 1.695582 -1.695582
C 1.245909 -2.145256 0.635935 -2.397916 0 -2.397916
C -0.635935 -2.397916 -1.245909 -2.145256 -1.695582 -1.695582
C -2.145256 -1.245909 -2.397916 -0.635935 -2.397916 0
C -2.397916 0.635935 -2.145256 1.245909 -1.695582 1.695582
C -1.245909 2.145256 -0.635935 2.397916 0 2.397916
z
" style="stroke: #ffffff; stroke-opacity: 0.72; stroke-width: 0.3"/>
    </defs>
    <g clip-path="url(#pc1e39f8f9e)">
     <use xlink:href="#mc3f93b55f7" x="152.549789" y="156.621759" style="fill: #b72230; fill-opacity: 0.72; stroke: #ffffff; stroke-opacity: 0.72; stroke-width: 0.3"/>
     <use xlink:href="#mc3f93b55f7" x="157.177106" y="132.930752" style="fill: #b72230; fill-opacity: 0.72; stroke: #ffffff; stroke-opacity: 0.72; stroke-width: 0.3"/>
     <use xlink:href="#mc3f93b55f7" x="151.376285" y="176.364265" style="fill: #b72230; fill-opacity: 0.72; stroke: #ffffff; stroke-opacity: 0.72; stroke-width: 0.3"/>
     <use xlink:href="#mc3f93b55f7" x="150.723247" y="144.776256" style="fill: #b72230; fill-opacity: 0.72; stroke: #ffffff; stroke-opacity: 0.72; stroke-width: 0.3"/>
     <use xlink:href="#mc3f93b55f7" x="150.433462" y="164.518762" style="fill: #b72230; fill-opacity: 0.72; stroke: #ffffff; stroke-opacity: 0.72; stroke-width: 0.3"/>
     <use xlink:href="#mc3f93b55f7" x="153.920594" y="125.033749" style="fill: #b72230; fill-opacity: 0.72; stroke: #ffffff; stroke-opacity: 0.72; stroke-width: 0.3"/>
     <use xlink:href="#mc3f93b55f7" x="155.379431" y="152.673258" style="fill: #b72230; fill-opacity: 0.72; stroke: #ffffff; stroke-opacity: 0.72; stroke-width: 0.3"/>
     <use xlink:href="#mc3f93b55f7" x="154.068372" y="140.827754" style="fill: #b72230; fill-opacity: 0.72; stroke: #ffffff; stroke-opacity: 0.72; stroke-width: 0.3"/>
     <use xlink:href="#mc3f93b55f7" x="145.11939" y="168.467263" style="fill: #b72230; fill-opacity: 0.72; stroke: #ffffff; stroke-opacity: 0.72; stroke-width: 0.3"/>
     <use xlink:href="#mc3f93b55f7" x="146.028859" y="136.879253" style="fill: #b72230; fill-opacity: 0.72; stroke: #ffffff; stroke-opacity: 0.72; stroke-width: 0.3"/>
     <use xlink:href="#mc3f93b55f7" x="157.801448" y="160.57026" style="fill: #b72230; fill-opacity: 0.72; stroke: #ffffff; stroke-opacity: 0.72; stroke-width: 0.3"/>
     <use xlink:href="#mc3f93b55f7" x="147.679403" y="148.724757" style="fill: #b72230; fill-opacity: 0.72; stroke: #ffffff; stroke-opacity: 0.72; stroke-width: 0.3"/>
    </g>
   </g>
   <g id="PathCollection_3">
    <defs>
     <path id="m5e2de31b6e" d="M 0 2.397916
C 0.635935 2.397916 1.245909 2.145256 1.695582 1.695582
C 2.145256 1.245909 2.397916 0.635935 2.397916 0
C 2.397916 -0.635935 2.145256 -1.245909 1.695582 -1.695582
C 1.245909 -2.145256 0.635935 -2.397916 0 -2.397916
C -0.635935 -2.397916 -1.245909 -2.145256 -1.695582 -1.695582
C -2.145256 -1.245909 -2.397916 -0.635935 -2.397916 0
C -2.397916 0.635935 -2.145256 1.245909 -1.695582 1.695582
C -1.245909 2.145256 -0.635935 2.397916 0 2.397916
z
" style="stroke: #ffffff; stroke-opacity: 0.72; stroke-width: 0.3"/>
    </defs>
    <g clip-path="url(#pc1e39f8f9e)">
     <use xlink:href="#m5e2de31b6e" x="213.593831" y="128.982251" style="fill: #d6a84b; fill-opacity: 0.72; stroke: #ffffff; stroke-opacity: 0.72; stroke-width: 0.3"/>
     <use xlink:href="#m5e2de31b6e" x="209.973541" y="105.291243" style="fill: #d6a84b; fill-opacity: 0.72; stroke: #ffffff; stroke-opacity: 0.72; stroke-width: 0.3"/>
     <use xlink:href="#m5e2de31b6e" x="211.745559" y="140.827754" style="fill: #d6a84b; fill-opacity: 0.72; stroke: #ffffff; stroke-opacity: 0.72; stroke-width: 0.3"/>
     <use xlink:href="#m5e2de31b6e" x="219.607908" y="117.136747" style="fill: #d6a84b; fill-opacity: 0.72; stroke: #ffffff; stroke-opacity: 0.72; stroke-width: 0.3"/>
     <use xlink:href="#m5e2de31b6e" x="221.441489" y="136.879253" style="fill: #d6a84b; fill-opacity: 0.72; stroke: #ffffff; stroke-opacity: 0.72; stroke-width: 0.3"/>
     <use xlink:href="#m5e2de31b6e" x="216.340561" y="93.44574" style="fill: #d6a84b; fill-opacity: 0.72; stroke: #ffffff; stroke-opacity: 0.72; stroke-width: 0.3"/>
     <use xlink:href="#m5e2de31b6e" x="212.188792" y="121.085248" style="fill: #d6a84b; fill-opacity: 0.72; stroke: #ffffff; stroke-opacity: 0.72; stroke-width: 0.3"/>
     <use xlink:href="#m5e2de31b6e" x="219.582354" y="109.239744" style="fill: #d6a84b; fill-opacity: 0.72; stroke: #ffffff; stroke-opacity: 0.72; stroke-width: 0.3"/>
     <use xlink:href="#m5e2de31b6e" x="220.415554" y="144.776256" style="fill: #d6a84b; fill-opacity: 0.72; stroke: #ffffff; stroke-opacity: 0.72; stroke-width: 0.3"/>
     <use xlink:href="#m5e2de31b6e" x="214.187043" y="101.342742" style="fill: #d6a84b; fill-opacity: 0.72; stroke: #ffffff; stroke-opacity: 0.72; stroke-width: 0.3"/>
     <use xlink:href="#m5e2de31b6e" x="210.792288" y="125.033749" style="fill: #d6a84b; fill-opacity: 0.72; stroke: #ffffff; stroke-opacity: 0.72; stroke-width: 0.3"/>
     <use xlink:href="#m5e2de31b6e" x="213.505014" y="113.188246" style="fill: #d6a84b; fill-opacity: 0.72; stroke: #ffffff; stroke-opacity: 0.72; stroke-width: 0.3"/>
    </g>
   </g>
   <g id="PathCollection_4">
    <defs>
     <path id="m2608d915cf" d="M 0 2.397916
C 0.635935 2.397916 1.245909 2.145256 1.695582 1.695582
C 2.145256 1.245909 2.397916 0.635935 2.397916 0
C 2.397916 -0.635935 2.145256 -1.245909 1.695582 -1.695582
C 1.245909 -2.145256 0.635935 -2.397916 0 -2.397916
C -0.635935 -2.397916 -1.245909 -2.145256 -1.695582 -1.695582
C -2.145256 -1.245909 -2.397916 -0.635935 -2.397916 0
C -2.397916 0.635935 -2.145256 1.245909 -1.695582 1.695582
C -1.245909 2.145256 -0.635935 2.397916 0 2.397916
z
" style="stroke: #ffffff; stroke-opacity: 0.72; stroke-width: 0.3"/>
    </defs>
    <g clip-path="url(#pc1e39f8f9e)">
     <use xlink:href="#m2608d915cf" x="278.807505" y="97.394241" style="fill: #6fa6a0; fill-opacity: 0.72; stroke: #ffffff; stroke-opacity: 0.72; stroke-width: 0.3"/>
     <use xlink:href="#m2608d915cf" x="275.63686" y="65.806231" style="fill: #6fa6a0; fill-opacity: 0.72; stroke: #ffffff; stroke-opacity: 0.72; stroke-width: 0.3"/>
     <use xlink:href="#m2608d915cf" x="279.752764" y="109.239744" style="fill: #6fa6a0; fill-opacity: 0.72; stroke: #ffffff; stroke-opacity: 0.72; stroke-width: 0.3"/>
     <use xlink:href="#m2608d915cf" x="285.123217" y="81.600236" style="fill: #6fa6a0; fill-opacity: 0.72; stroke: #ffffff; stroke-opacity: 0.72; stroke-width: 0.3"/>
     <use xlink:href="#m2608d915cf" x="283.346244" y="101.342742" style="fill: #6fa6a0; fill-opacity: 0.72; stroke: #ffffff; stroke-opacity: 0.72; stroke-width: 0.3"/>
     <use xlink:href="#m2608d915cf" x="285.034522" y="53.960727" style="fill: #6fa6a0; fill-opacity: 0.72; stroke: #ffffff; stroke-opacity: 0.72; stroke-width: 0.3"/>
     <use xlink:href="#m2608d915cf" x="281.944811" y="85.548737" style="fill: #6fa6a0; fill-opacity: 0.72; stroke: #ffffff; stroke-opacity: 0.72; stroke-width: 0.3"/>
     <use xlink:href="#m2608d915cf" x="274.665942" y="73.703233" style="fill: #6fa6a0; fill-opacity: 0.72; stroke: #ffffff; stroke-opacity: 0.72; stroke-width: 0.3"/>
     <use xlink:href="#m2608d915cf" x="278.548379" y="105.291243" style="fill: #6fa6a0; fill-opacity: 0.72; stroke: #ffffff; stroke-opacity: 0.72; stroke-width: 0.3"/>
     <use xlink:href="#m2608d915cf" x="284.949233" y="61.85773" style="fill: #6fa6a0; fill-opacity: 0.72; stroke: #ffffff; stroke-opacity: 0.72; stroke-width: 0.3"/>
     <use xlink:href="#m2608d915cf" x="286.34228" y="93.44574" style="fill: #6fa6a0; fill-opacity: 0.72; stroke: #ffffff; stroke-opacity: 0.72; stroke-width: 0.3"/>
     <use xlink:href="#m2608d915cf" x="280.568815" y="77.651735" style="fill: #6fa6a0; fill-opacity: 0.72; stroke: #ffffff; stroke-opacity: 0.72; stroke-width: 0.3"/>
    </g>
   </g>
   <g id="LineCollection_1">
    <path d="M 105.170824 185.248393
L 105.170824 163.531636
" clip-path="url(#pc1e39f8f9e)" style="fill: none; stroke: #376795; stroke-opacity: 0.38; stroke-width: 6"/>
   </g>
   <g id="LineCollection_2">
    <path d="M 169.547294 161.557386
L 169.547294 139.840629
" clip-path="url(#pc1e39f8f9e)" style="fill: none; stroke: #b72230; stroke-opacity: 0.38; stroke-width: 6"/>
   </g>
   <g id="LineCollection_3">
    <path d="M 233.923765 130.956501
L 233.923765 108.252619
" clip-path="url(#pc1e39f8f9e)" style="fill: none; stroke: #d6a84b; stroke-opacity: 0.38; stroke-width: 6"/>
   </g>
   <g id="LineCollection_4">
    <path d="M 298.300235 98.381366
L 298.300235 71.728983
" clip-path="url(#pc1e39f8f9e)" style="fill: none; stroke: #6fa6a0; stroke-opacity: 0.38; stroke-width: 6"/>
   </g>
   <g id="LineCollection_5">
    <path d="M 100.664471 174.390015
L 110.320941 174.390015
" clip-path="url(#pc1e39f8f9e)" style="fill: none; stroke: #20242a; stroke-width: 1.6"/>
   </g>
   <g id="LineCollection_6">
    <path d="M 165.040941 150.699007
L 174.697412 150.699007
" clip-path="url(#pc1e39f8f9e)" style="fill: none; stroke: #20242a; stroke-width: 1.6"/>
   </g>
   <g id="LineCollection_7">
    <path d="M 229.417412 119.110998
L 239.073882 119.110998
" clip-path="url(#pc1e39f8f9e)" style="fill: none; stroke: #20242a; stroke-width: 1.6"/>
   </g>
   <g id="LineCollection_8">
    <path d="M 293.793882 83.574486
L 303.450353 83.574486
" clip-path="url(#pc1e39f8f9e)" style="fill: none; stroke: #20242a; stroke-width: 1.6"/>
   </g>
  </g>
 </g>
 <defs>
  <clipPath id="pc1e39f8f9e">
   <rect x="69.12" y="46.656" width="262.656" height="160.704"/>
  </clipPath>
 </defs>
</svg>
