<?xml version="1.0" encoding="utf-8" standalone="no"?>
<!DOCTYPE svg PUBLIC "-//W3C//DTD SVG 1.1//EN"
  "http://www.w3.org/Graphics/SVG/1.1/DTD/svg11.dtd">
<svg xmlns:xlink="http://www.w3.org/1999/xlink" width="345.6pt" height="259.2pt" viewBox="0 0 345.6 259.2" xmlns="http://www.w3.org/2000/svg" version="1.1">
 <metadata>
  <rdf:RDF xmlns:dc="http://purl.org/dc/elements/1.1/" xmlns:cc="http://creativecommons.org/ns#" xmlns:rdf="http://www.w3.org/1999/02/22-rdf-syntax-ns#">
   <cc:Work>
    <dc:type rdf:resource="http://purl.org/dc/dcmitype/StillImage"/>
    <dc:date>2026-07-19T18:39:42.569870</dc:date>
    <dc:format>image/svg+xml</dc:format>
    <dc:creator>
     <cc:Agent>
      <dc:title>Matplotlib v3.5.2, https://matplotlib.org/</dc:title>
     </cc:Agent>
    </dc:creator>
   </cc:Work>
  </rdf:RDF>
 </metadata>
 <defs>
  <style type="text/css">*{stroke-linejoin: round; stroke-linecap: butt}</style>
 </defs>
 <g id="figure_1">
  <g id="patch_1">
   <path d="M 0 259.2
L 345.6 259.2
L 345.6 0
L 0 0
z
" style="fill: #ffffff"/>
  </g>
  <g id="axes_1">
   <g id="patch_2">
    <path d="M 69.12 207.36
L 331.776 207.36
L 331.776 46.656
L 69.12 46.656
z
" style="fill: #ffffff"/>
   </g>
   <g id="matplotlib.axis_1">
    <g id="xtick_1">
     <g id="line2d_1">
      <defs>
       <path id="m87cd32d3ae" d="M 0 0
L 0 4
" style="stroke: #252a31; stroke-width: 0.8"/>
      </defs>
      <g>
       <use xlink:href="#m87cd32d3ae" x="104.68135" y="207.36" style="fill: #252a31; stroke: #252a31; stroke-width: 0.8"/>
      </g>
     </g>
     <g id="text_1">
      <text style="font: 10.5px 'Arial'; text-anchor: middle" x="104.68135" y="222.875703" transform="rotate(-0, 104.68135, 222.875703)">Vehicle</text>
     </g>
    </g>
    <g id="xtick_2">
     <g id="line2d_2">
      <g>
       <use xlink:href="#m87cd32d3ae" x="168.525783" y="207.36" style="fill: #252a31; stroke: #252a31; stroke-width: 0.8"/>
      </g>
     </g>
     <g id="text_2">
      <text style="font: 10.5px 'Arial'; text-anchor: middle" x="168.525783" y="222.875703" transform="rotate(-0, 168.525783, 222.875703)">Low dose</text>
     </g>
    </g>
    <g id="xtick_3">
     <g id="line2d_3">
      <g>
       <use xlink:href="#m87cd32d3ae" x="232.370217" y="207.36" style="fill: #252a31; stroke: #252a31; stroke-width: 0.8"/>
      </g>
     </g>
     <g id="text_3">
      <text style="font: 10.5px 'Arial'; text-anchor: middle" x="232.370217" y="222.875703" transform="rotate(-0, 232.370217, 222.875703)">Mid dose</text>
     </g>
    </g>
    <g id="xtick_4">
     <g id="line2d_4">
      <g>
       <use xlink:href="#m87cd32d3ae" x="296.21465" y="207.36" style="fill: #252a31; stroke: #252a31; stroke-width: 0.8"/>
      </g>
     </g>
     <g id="text_4">
      <text style="font: 10.5px 'Arial'; text-anchor: middle" x="296.21465" y="222.875703" transform="rotate(-0, 296.21465, 222.875703)">High dose</text>
     </g>
    </g>
   </g>
   <g id="matplotlib.axis_2">
    <g id="ytick_1">
     <g id="line2d_5">
      <defs>
       <path id="m8bb0a92182" d="M 0 0
L -4 0
" style="stroke: #252a31; stroke-width: 0.8"/>
      </defs>
      <g>
       <use xlink:href="#m8bb0a92182" x="69.12" y="176.364265" style="fill: #252a31; stroke: #252a31; stroke-width: 0.8"/>
      </g>
     </g>
     <g id="text_5">
      <text style="font: 10.5px 'Arial'; text-anchor: end" x="61.12" y="180.122117" transform="rotate(-0, 61.12, 180.122117)">10</text>
     </g>
    </g>
    <g id="ytick_2">
     <g id="line2d_6">
      <g>
       <use xlink:href="#m8bb0a92182" x="69.12" y="136.879253" style="fill: #252a31; stroke: #252a31; stroke-width: 0.8"/>
      </g>
     </g>
     <g id="text_6">
      <text style="font: 10.5px 'Arial'; text-anchor: end" x="61.12" y="140.637105" transform="rotate(-0, 61.12, 140.637105)">11</text>
     </g>
    </g>
    <g id="ytick_3">
     <g id="line2d_7">
      <g>
       <use xlink:href="#m8bb0a92182" x="69.12" y="97.394241" style="fill: #252a31; stroke: #252a31; stroke-width: 0.8"/>
      </g>
     </g>
     <g id="text_7">
      <text style="font: 10.5px 'Arial'; text-anchor: end" x="61.12" y="101.152092" transform="rotate(-0, 61.12, 101.152092)">12</text>
     </g>
    </g>
    <g id="ytick_4">
     <g id="line2d_8">
      <g>
       <use xlink:href="#m8bb0a92182" x="69.12" y="57.909229" style="fill: #252a31; stroke: #252a31; stroke-width: 0.8"/>
      </g>
     </g>
     <g id="text_8">
      <text style="font: 10.5px 'Arial'; text-anchor: end" x="61.12" y="61.66708" transform="rotate(-0, 61.12, 61.66708)">13</text>
     </g>
    </g>
    <g id="text_9">
     <text style="font: 12px 'Arial'; text-anchor: middle" x="42.916406" y="127.008" transform="rotate(-90, 42.916406, 127.008)">Response (a.u.)</text>
    </g>
   </g>
   <g id="PolyCollection_1">
    <defs>
     <path id="mf84194103c" d="M 116.551655 -59.144727
L 92.811044 -59.144727
L 92.385073 -59.703101
L 91.9621 -60.261475
L 91.542756 -60.819849
L 91.127611 -61.378223
L 90.717177 -61.936597
L 90.311907 -62.494971
L 89.912195 -63.053345
L 89.518386 -63.611719
L 89.130772 -64.170092
L 88.749605 -64.728466
L 88.375096 -65.28684
L 88.007427 -65.845214
L 87.646754 -66.403588
L 87.293215 -66.961962
L 86.946936 -67.520336
L 86.608038 -68.07871
L 86.276645 -68.637084
L 85.952886 -69.195458
L 85.636902 -69.753832
L 85.32885 -70.312205
L 85.028907 -70.870579
L 84.737271 -71.428953
L 84.454166 -71.987327
L 84.179839 -72.545701
L 83.914564 -73.104075
L 83.658636 -73.662449
L 83.412378 -74.220823
L 83.17613 -74.779197
L 82.950254 -75.337571
L 82.735125 -75.895945
L 82.531133 -76.454319
L 82.338674 -77.012692
L 82.15815 -77.571066
L 81.989965 -78.12944
L 81.83452 -78.687814
L 81.692206 -79.246188
L 81.563406 -79.804562
L 81.448487 -80.362936
L 81.347799 -80.92131
L 81.261668 -81.479684
L 81.190398 -82.038058
L 81.13426 -82.596432
L 81.0935 -83.154805
L 81.068325 -83.713179
L 81.058909 -84.271553
L 81.065386 -84.829927
L 81.08785 -85.388301
L 81.126352 -85.946675
L 81.1809 -86.505049
L 81.251453 -87.063423
L 81.337927 -87.621797
L 81.440188 -88.180171
L 81.558053 -88.738545
L 81.691291 -89.296918
L 81.839621 -89.855292
L 82.002715 -90.413666
L 82.180196 -90.97204
L 82.371642 -91.530414
L 82.576586 -92.088788
L 82.794518 -92.647162
L 83.024893 -93.205536
L 83.267127 -93.76391
L 83.520606 -94.322284
L 83.784691 -94.880658
L 84.05872 -95.439031
L 84.342016 -95.997405
L 84.633892 -96.555779
L 84.933655 -97.114153
L 85.240617 -97.672527
L 85.554097 -98.230901
L 85.873429 -98.789275
L 86.197967 -99.347649
L 86.527092 -99.906023
L 86.860216 -100.464397
L 87.196787 -101.022771
L 87.536292 -101.581145
L 87.878262 -102.139518
L 88.222273 -102.697892
L 88.567948 -103.256266
L 88.914956 -103.81464
L 89.263013 -104.373014
L 89.611879 -104.931388
L 89.961358 -105.489762
L 90.311289 -106.048136
L 90.66155 -106.60651
L 91.012046 -107.164884
L 91.362704 -107.723258
L 91.713472 -108.281631
L 92.064307 -108.840005
L 92.415171 -109.398379
L 92.766023 -109.956753
L 93.116814 -110.515127
L 93.46748 -111.073501
L 93.817934 -111.631875
L 94.168065 -112.190249
L 94.517729 -112.748623
L 94.86675 -113.306997
L 95.214911 -113.865371
L 95.561959 -114.423744
L 113.80074 -114.423744
L 113.80074 -114.423744
L 114.147788 -113.865371
L 114.49595 -113.306997
L 114.84497 -112.748623
L 115.194634 -112.190249
L 115.544765 -111.631875
L 115.895219 -111.073501
L 116.245885 -110.515127
L 116.596676 -109.956753
L 116.947528 -109.398379
L 117.298392 -108.840005
L 117.649227 -108.281631
L 117.999995 -107.723258
L 118.350654 -107.164884
L 118.701149 -106.60651
L 119.05141 -106.048136
L 119.401341 -105.489762
L 119.75082 -104.931388
L 120.099686 -104.373014
L 120.447743 -103.81464
L 120.794751 -103.256266
L 121.140426 -102.697892
L 121.484437 -102.139518
L 121.826407 -101.581145
L 122.165912 -101.022771
L 122.502483 -100.464397
L 122.835607 -99.906023
L 123.164732 -99.347649
L 123.48927 -98.789275
L 123.808602 -98.230901
L 124.122082 -97.672527
L 124.429044 -97.114153
L 124.728807 -96.555779
L 125.020683 -95.997405
L 125.303979 -95.439031
L 125.578008 -94.880658
L 125.842093 -94.322284
L 126.095572 -93.76391
L 126.337806 -93.205536
L 126.568181 -92.647162
L 126.786113 -92.088788
L 126.991057 -91.530414
L 127.182503 -90.97204
L 127.359984 -90.413666
L 127.523078 -89.855292
L 127.671408 -89.296918
L 127.804646 -88.738545
L 127.922511 -88.180171
L 128.024772 -87.621797
L 128.111246 -87.063423
L 128.181799 -86.505049
L 128.236347 -85.946675
L 128.274849 -85.388301
L 128.297313 -84.829927
L 128.30379 -84.271553
L 128.294374 -83.713179
L 128.269199 -83.154805
L 128.228439 -82.596432
L 128.172301 -82.038058
L 128.101031 -81.479684
L 128.0149 -80.92131
L 127.914212 -80.362936
L 127.799293 -79.804562
L 127.670493 -79.246188
L 127.52818 -78.687814
L 127.372734 -78.12944
L 127.204549 -77.571066
L 127.024026 -77.012692
L 126.831566 -76.454319
L 126.627574 -75.895945
L 126.412445 -75.337571
L 126.186569 -74.779197
L 125.950321 -74.220823
L 125.704063 -73.662449
L 125.448135 -73.104075
L 125.18286 -72.545701
L 124.908533 -71.987327
L 124.625428 -71.428953
L 124.333792 -70.870579
L 124.033849 -70.312205
L 123.725797 -69.753832
L 123.409813 -69.195458
L 123.086054 -68.637084
L 122.754661 -68.07871
L 122.415763 -67.520336
L 122.069484 -66.961962
L 121.715945 -66.403588
L 121.355272 -65.845214
L 120.987603 -65.28684
L 120.613094 -64.728466
L 120.231927 -64.170092
L 119.844313 -63.611719
L 119.450504 -63.053345
L 119.050792 -62.494971
L 118.645522 -61.936597
L 118.235088 -61.378223
L 117.819943 -60.819849
L 117.400599 -60.261475
L 116.977626 -59.703101
L 116.551655 -59.144727
z
" style="stroke: #376795; stroke-opacity: 0.2"/>
    </defs>
    <g clip-path="url(#pbbf543a0d2)">
     <use xlink:href="#mf84194103c" x="0" y="259.2" style="fill: #376795; fill-opacity: 0.2; stroke: #376795; stroke-opacity: 0.2"/>
    </g>
   </g>
   <g id="PolyCollection_2">
    <defs>
     <path id="m8293328800" d="M 178.956631 -82.835735
L 158.094935 -82.835735
L 157.652892 -83.354225
L 157.208514 -83.872715
L 156.762629 -84.391205
L 156.316071 -84.909695
L 155.869677 -85.428185
L 155.424281 -85.946675
L 154.980716 -86.465165
L 154.539809 -86.983655
L 154.102375 -87.502145
L 153.669219 -88.020635
L 153.241131 -88.539125
L 152.818881 -89.057615
L 152.403217 -89.576105
L 151.994863 -90.094595
L 151.594513 -90.613086
L 151.202832 -91.131576
L 150.820446 -91.650066
L 150.447945 -92.168556
L 150.085879 -92.687046
L 149.73475 -93.205536
L 149.395016 -93.724026
L 149.067086 -94.242516
L 148.751317 -94.761006
L 148.448015 -95.279496
L 148.157432 -95.797986
L 147.879766 -96.316476
L 147.615165 -96.834966
L 147.363721 -97.353456
L 147.125478 -97.871946
L 146.90043 -98.390436
L 146.688525 -98.908927
L 146.489669 -99.427417
L 146.30373 -99.945907
L 146.130539 -100.464397
L 145.969899 -100.982887
L 145.821588 -101.501377
L 145.685366 -102.019867
L 145.560975 -102.538357
L 145.448155 -103.056847
L 145.346637 -103.575337
L 145.256161 -104.093827
L 145.176472 -104.612317
L 145.10733 -105.130807
L 145.048512 -105.649297
L 144.99982 -106.167787
L 144.961083 -106.686277
L 144.932157 -107.204767
L 144.912935 -107.723258
L 144.903343 -108.241748
L 144.903343 -108.760238
L 144.912935 -109.278728
L 144.932157 -109.797218
L 144.961083 -110.315708
L 144.99982 -110.834198
L 145.048512 -111.352688
L 145.10733 -111.871178
L 145.176472 -112.389668
L 145.256161 -112.908158
L 145.346637 -113.426648
L 145.448155 -113.945138
L 145.560975 -114.463628
L 145.685366 -114.982118
L 145.821588 -115.500608
L 145.969899 -116.019099
L 146.130539 -116.537589
L 146.30373 -117.056079
L 146.489669 -117.574569
L 146.688525 -118.093059
L 146.90043 -118.611549
L 147.125478 -119.130039
L 147.363721 -119.648529
L 147.615165 -120.167019
L 147.879766 -120.685509
L 148.157432 -121.203999
L 148.448015 -121.722489
L 148.751317 -122.240979
L 149.067086 -122.759469
L 149.395016 -123.277959
L 149.73475 -123.796449
L 150.085879 -124.314939
L 150.447945 -124.83343
L 150.820446 -125.35192
L 151.202832 -125.87041
L 151.594513 -126.3889
L 151.994863 -126.90739
L 152.403217 -127.42588
L 152.818881 -127.94437
L 153.241131 -128.46286
L 153.669219 -128.98135
L 154.102375 -129.49984
L 154.539809 -130.01833
L 154.980716 -130.53682
L 155.424281 -131.05531
L 155.869677 -131.5738
L 156.316071 -132.09229
L 156.762629 -132.61078
L 157.208514 -133.12927
L 157.652892 -133.647761
L 158.094935 -134.166251
L 178.956631 -134.166251
L 178.956631 -134.166251
L 179.398675 -133.647761
L 179.843053 -133.12927
L 180.288937 -132.61078
L 180.735495 -132.09229
L 181.181889 -131.5738
L 181.627285 -131.05531
L 182.07085 -130.53682
L 182.511758 -130.01833
L 182.949192 -129.49984
L 183.382347 -128.98135
L 183.810435 -128.46286
L 184.232685 -127.94437
L 184.648349 -127.42588
L 185.056704 -126.90739
L 185.457053 -126.3889
L 185.848735 -125.87041
L 186.231121 -125.35192
L 186.603621 -124.83343
L 186.965688 -124.314939
L 187.316817 -123.796449
L 187.65655 -123.277959
L 187.98448 -122.759469
L 188.300249 -122.240979
L 188.603552 -121.722489
L 188.894135 -121.203999
L 189.1718 -120.685509
L 189.436402 -120.167019
L 189.687845 -119.648529
L 189.926088 -119.130039
L 190.151137 -118.611549
L 190.363041 -118.093059
L 190.561897 -117.574569
L 190.747837 -117.056079
L 190.921028 -116.537589
L 191.081667 -116.019099
L 191.229978 -115.500608
L 191.366201 -114.982118
L 191.490591 -114.463628
L 191.603412 -113.945138
L 191.704929 -113.426648
L 191.795405 -112.908158
L 191.875094 -112.389668
L 191.944237 -111.871178
L 192.003054 -111.352688
L 192.051746 -110.834198
L 192.090484 -110.315708
L 192.119409 -109.797218
L 192.138631 -109.278728
L 192.148224 -108.760238
L 192.148224 -108.241748
L 192.138631 -107.723258
L 192.119409 -107.204767
L 192.090484 -106.686277
L 192.051746 -106.167787
L 192.003054 -105.649297
L 191.944237 -105.130807
L 191.875094 -104.612317
L 191.795405 -104.093827
L 191.704929 -103.575337
L 191.603412 -103.056847
L 191.490591 -102.538357
L 191.366201 -102.019867
L 191.229978 -101.501377
L 191.081667 -100.982887
L 190.921028 -100.464397
L 190.747837 -99.945907
L 190.561897 -99.427417
L 190.363041 -98.908927
L 190.151137 -98.390436
L 189.926088 -97.871946
L 189.687845 -97.353456
L 189.436402 -96.834966
L 189.1718 -96.316476
L 188.894135 -95.797986
L 188.603552 -95.279496
L 188.300249 -94.761006
L 187.98448 -94.242516
L 187.65655 -93.724026
L 187.316817 -93.205536
L 186.965688 -92.687046
L 186.603621 -92.168556
L 186.231121 -91.650066
L 185.848735 -91.131576
L 185.457053 -90.613086
L 185.056704 -90.094595
L 184.648349 -89.576105
L 184.232685 -89.057615
L 183.810435 -88.539125
L 183.382347 -88.020635
L 182.949192 -87.502145
L 182.511758 -86.983655
L 182.07085 -86.465165
L 181.627285 -85.946675
L 181.181889 -85.428185
L 180.735495 -84.909695
L 180.288937 -84.391205
L 179.843053 -83.872715
L 179.398675 -83.354225
L 178.956631 -82.835735
z
" style="stroke: #b72230; stroke-opacity: 0.2"/>
    </defs>
    <g clip-path="url(#pbbf543a0d2)">
     <use xlink:href="#m8293328800" x="0" y="259.2" style="fill: #b72230; fill-opacity: 0.2; stroke: #b72230; stroke-opacity: 0.2"/>
    </g>
   </g>
   <g id="PolyCollection_3">
    <defs>
     <path id="mfd10ff7c6c" d="M 245.134634 -114.423744
L 219.605799 -114.423744
L 219.20826 -114.942235
L 218.819641 -115.460725
L 218.440663 -115.979215
L 218.071933 -116.497705
L 217.713936 -117.016195
L 217.367036 -117.534685
L 217.031473 -118.053175
L 216.707364 -118.571665
L 216.394707 -119.090155
L 216.093389 -119.608645
L 215.803188 -120.127135
L 215.523784 -120.645625
L 215.254769 -121.164115
L 214.995658 -121.682605
L 214.745903 -122.201095
L 214.504901 -122.719585
L 214.272014 -123.238075
L 214.046579 -123.756566
L 213.82792 -124.275056
L 213.615368 -124.793546
L 213.408265 -125.312036
L 213.205986 -125.830526
L 213.00794 -126.349016
L 212.813589 -126.867506
L 212.622453 -127.385996
L 212.434115 -127.904486
L 212.248234 -128.422976
L 212.06454 -128.941466
L 211.882848 -129.459956
L 211.703048 -129.978446
L 211.525117 -130.496936
L 211.349106 -131.015426
L 211.175147 -131.533916
L 211.003444 -132.052407
L 210.834272 -132.570897
L 210.667966 -133.089387
L 210.504921 -133.607877
L 210.345584 -134.126367
L 210.190444 -134.644857
L 210.040029 -135.163347
L 209.894895 -135.681837
L 209.755623 -136.200327
L 209.622809 -136.718817
L 209.497059 -137.237307
L 209.378984 -137.755797
L 209.269193 -138.274287
L 209.168286 -138.792777
L 209.076855 -139.311267
L 208.995474 -139.829757
L 208.924701 -140.348247
L 208.86507 -140.866738
L 208.817091 -141.385228
L 208.78125 -141.903718
L 208.758003 -142.422208
L 208.747776 -142.940698
L 208.750968 -143.459188
L 208.767944 -143.977678
L 208.799037 -144.496168
L 208.844549 -145.014658
L 208.904746 -145.533148
L 208.979864 -146.051638
L 209.070101 -146.570128
L 209.17562 -147.088618
L 209.296551 -147.607108
L 209.432984 -148.125598
L 209.584974 -148.644088
L 209.752537 -149.162579
L 209.93565 -149.681069
L 210.134252 -150.199559
L 210.348238 -150.718049
L 210.577467 -151.236539
L 210.821753 -151.755029
L 211.080869 -152.273519
L 211.354548 -152.792009
L 211.642479 -153.310499
L 211.944309 -153.828989
L 212.259647 -154.347479
L 212.588057 -154.865969
L 212.929067 -155.384459
L 213.282165 -155.902949
L 213.646801 -156.421439
L 214.022391 -156.939929
L 214.408315 -157.458419
L 214.803925 -157.97691
L 215.208539 -158.4954
L 215.62145 -159.01389
L 216.041924 -159.53238
L 216.469207 -160.05087
L 216.902522 -160.56936
L 217.341077 -161.08785
L 217.784064 -161.60634
L 218.230662 -162.12483
L 218.680044 -162.64332
L 219.131373 -163.16181
L 219.58381 -163.6803
L 220.036516 -164.19879
L 220.488653 -164.71728
L 220.939389 -165.23577
L 221.387901 -165.75426
L 243.352533 -165.75426
L 243.352533 -165.75426
L 243.801044 -165.23577
L 244.251781 -164.71728
L 244.703918 -164.19879
L 245.156624 -163.6803
L 245.609061 -163.16181
L 246.06039 -162.64332
L 246.509771 -162.12483
L 246.95637 -161.60634
L 247.399357 -161.08785
L 247.837911 -160.56936
L 248.271227 -160.05087
L 248.69851 -159.53238
L 249.118984 -159.01389
L 249.531895 -158.4954
L 249.936509 -157.97691
L 250.332118 -157.458419
L 250.718043 -156.939929
L 251.093633 -156.421439
L 251.458269 -155.902949
L 251.811366 -155.384459
L 252.152376 -154.865969
L 252.480787 -154.347479
L 252.796124 -153.828989
L 253.097955 -153.310499
L 253.385886 -152.792009
L 253.659564 -152.273519
L 253.918681 -151.755029
L 254.162967 -151.236539
L 254.392195 -150.718049
L 254.606182 -150.199559
L 254.804783 -149.681069
L 254.987897 -149.162579
L 255.15546 -148.644088
L 255.30745 -148.125598
L 255.443883 -147.607108
L 255.564814 -147.088618
L 255.670333 -146.570128
L 255.76057 -146.051638
L 255.835687 -145.533148
L 255.895885 -145.014658
L 255.941397 -144.496168
L 255.97249 -143.977678
L 255.989465 -143.459188
L 255.992657 -142.940698
L 255.982431 -142.422208
L 255.959183 -141.903718
L 255.923342 -141.385228
L 255.875364 -140.866738
L 255.815733 -140.348247
L 255.744959 -139.829757
L 255.663579 -139.311267
L 255.572148 -138.792777
L 255.471241 -138.274287
L 255.361449 -137.755797
L 255.243375 -137.237307
L 255.117625 -136.718817
L 254.984811 -136.200327
L 254.845538 -135.681837
L 254.700405 -135.163347
L 254.549989 -134.644857
L 254.394849 -134.126367
L 254.235512 -133.607877
L 254.072468 -133.089387
L 253.906162 -132.570897
L 253.736989 -132.052407
L 253.565287 -131.533916
L 253.391328 -131.015426
L 253.215317 -130.496936
L 253.037385 -129.978446
L 252.857586 -129.459956
L 252.675893 -128.941466
L 252.4922 -128.422976
L 252.306318 -127.904486
L 252.117981 -127.385996
L 251.926844 -126.867506
L 251.732494 -126.349016
L 251.534448 -125.830526
L 251.332168 -125.312036
L 251.125066 -124.793546
L 250.912513 -124.275056
L 250.693855 -123.756566
L 250.468419 -123.238075
L 250.235533 -122.719585
L 249.994531 -122.201095
L 249.744775 -121.682605
L 249.485665 -121.164115
L 249.21665 -120.645625
L 248.937245 -120.127135
L 248.647044 -119.608645
L 248.345726 -119.090155
L 248.03307 -118.571665
L 247.708961 -118.053175
L 247.373398 -117.534685
L 247.026498 -117.016195
L 246.668501 -116.497705
L 246.299771 -115.979215
L 245.920793 -115.460725
L 245.532173 -114.942235
L 245.134634 -114.423744
z
" style="stroke: #d6a84b; stroke-opacity: 0.2"/>
    </defs>
    <g clip-path="url(#pbbf543a0d2)">
     <use xlink:href="#mfd10ff7c6c" x="0" y="259.2" style="fill: #d6a84b; fill-opacity: 0.2; stroke: #d6a84b; stroke-opacity: 0.2"/>
    </g>
   </g>
   <g id="PolyCollection_4">
    <defs>
     <path id="ma47dbcf280" d="M 312.223577 -149.960256
L 280.205724 -149.960256
L 279.694671 -150.518629
L 279.195866 -151.077003
L 278.710789 -151.635377
L 278.240819 -152.193751
L 277.787222 -152.752125
L 277.351137 -153.310499
L 276.933571 -153.868873
L 276.535387 -154.427247
L 276.1573 -154.985621
L 275.799872 -155.543995
L 275.463509 -156.102369
L 275.148459 -156.660742
L 274.854817 -157.219116
L 274.582523 -157.77749
L 274.331374 -158.335864
L 274.101025 -158.894238
L 273.890999 -159.452612
L 273.7007 -160.010986
L 273.529422 -160.56936
L 273.376363 -161.127734
L 273.240635 -161.686108
L 273.121287 -162.244482
L 273.01731 -162.802855
L 272.927662 -163.361229
L 272.851276 -163.919603
L 272.787077 -164.477977
L 272.734002 -165.036351
L 272.691007 -165.594725
L 272.657084 -166.153099
L 272.631274 -166.711473
L 272.612675 -167.269847
L 272.600455 -167.828221
L 272.593858 -168.386595
L 272.59221 -168.944969
L 272.594926 -169.503342
L 272.601512 -170.061716
L 272.611566 -170.62009
L 272.624778 -171.178464
L 272.640928 -171.736838
L 272.659886 -172.295212
L 272.681602 -172.853586
L 272.706104 -173.41196
L 272.733492 -173.970334
L 272.763925 -174.528708
L 272.797621 -175.087082
L 272.834841 -175.645455
L 272.875884 -176.203829
L 272.921077 -176.762203
L 272.970768 -177.320577
L 273.025313 -177.878951
L 273.085073 -178.437325
L 273.150405 -178.995699
L 273.221656 -179.554073
L 273.299156 -180.112447
L 273.383214 -180.670821
L 273.474115 -181.229195
L 273.572118 -181.787568
L 273.677453 -182.345942
L 273.790319 -182.904316
L 273.910889 -183.46269
L 274.039305 -184.021064
L 274.175685 -184.579438
L 274.32012 -185.137812
L 274.472684 -185.696186
L 274.633429 -186.25456
L 274.802392 -186.812934
L 274.979602 -187.371308
L 275.165076 -187.929681
L 275.358826 -188.488055
L 275.560861 -189.046429
L 275.77119 -189.604803
L 275.989823 -190.163177
L 276.216771 -190.721551
L 276.452047 -191.279925
L 276.695666 -191.838299
L 276.947645 -192.396673
L 277.208 -192.955047
L 277.476744 -193.513421
L 277.753884 -194.071795
L 278.03942 -194.630168
L 278.333337 -195.188542
L 278.635606 -195.746916
L 278.946176 -196.30529
L 279.26497 -196.863664
L 279.591885 -197.422038
L 279.92678 -197.980412
L 280.269482 -198.538786
L 280.619772 -199.09716
L 280.977391 -199.655534
L 281.342032 -200.213908
L 281.713337 -200.772281
L 282.090903 -201.330655
L 282.474272 -201.889029
L 282.862939 -202.447403
L 283.256348 -203.005777
L 283.653896 -203.564151
L 284.054935 -204.122525
L 284.458775 -204.680899
L 284.864687 -205.239273
L 307.564614 -205.239273
L 307.564614 -205.239273
L 307.970526 -204.680899
L 308.374366 -204.122525
L 308.775405 -203.564151
L 309.172953 -203.005777
L 309.566362 -202.447403
L 309.955029 -201.889029
L 310.338398 -201.330655
L 310.715964 -200.772281
L 311.087269 -200.213908
L 311.45191 -199.655534
L 311.809528 -199.09716
L 312.159819 -198.538786
L 312.50252 -197.980412
L 312.837416 -197.422038
L 313.164331 -196.863664
L 313.483125 -196.30529
L 313.793695 -195.746916
L 314.095964 -195.188542
L 314.389881 -194.630168
L 314.675417 -194.071795
L 314.952557 -193.513421
L 315.221301 -192.955047
L 315.481656 -192.396673
L 315.733635 -191.838299
L 315.977254 -191.279925
L 316.21253 -190.721551
L 316.439477 -190.163177
L 316.65811 -189.604803
L 316.86844 -189.046429
L 317.070475 -188.488055
L 317.264225 -187.929681
L 317.449699 -187.371308
L 317.626908 -186.812934
L 317.795872 -186.25456
L 317.956617 -185.696186
L 318.109181 -185.137812
L 318.253616 -184.579438
L 318.389996 -184.021064
L 318.518412 -183.46269
L 318.638982 -182.904316
L 318.751848 -182.345942
L 318.857183 -181.787568
L 318.955186 -181.229195
L 319.046087 -180.670821
L 319.130145 -180.112447
L 319.207645 -179.554073
L 319.278896 -178.995699
L 319.344228 -178.437325
L 319.403988 -177.878951
L 319.458533 -177.320577
L 319.508224 -176.762203
L 319.553417 -176.203829
L 319.59446 -175.645455
L 319.63168 -175.087082
L 319.665376 -174.528708
L 319.695809 -173.970334
L 319.723197 -173.41196
L 319.747699 -172.853586
L 319.769415 -172.295212
L 319.788372 -171.736838
L 319.804523 -171.178464
L 319.817735 -170.62009
L 319.827789 -170.061716
L 319.834375 -169.503342
L 319.837091 -168.944969
L 319.835443 -168.386595
L 319.828846 -167.828221
L 319.816626 -167.269847
L 319.798027 -166.711473
L 319.772217 -166.153099
L 319.738294 -165.594725
L 319.695299 -165.036351
L 319.642224 -164.477977
L 319.578025 -163.919603
L 319.501639 -163.361229
L 319.41199 -162.802855
L 319.308014 -162.244482
L 319.188666 -161.686108
L 319.052938 -161.127734
L 318.899879 -160.56936
L 318.728601 -160.010986
L 318.538302 -159.452612
L 318.328276 -158.894238
L 318.097927 -158.335864
L 317.846778 -157.77749
L 317.574484 -157.219116
L 317.280842 -156.660742
L 316.965792 -156.102369
L 316.629428 -155.543995
L 316.272001 -154.985621
L 315.893914 -154.427247
L 315.49573 -153.868873
L 315.078164 -153.310499
L 314.642079 -152.752125
L 314.188481 -152.193751
L 313.718512 -151.635377
L 313.233435 -151.077003
L 312.73463 -150.518629
L 312.223577 -149.960256
z
" style="stroke: #6fa6a0; stroke-opacity: 0.2"/>
    </defs>
    <g clip-path="url(#pbbf543a0d2)">
     <use xlink:href="#ma47dbcf280" x="0" y="259.2" style="fill: #6fa6a0; fill-opacity: 0.2; stroke: #6fa6a0; stroke-opacity: 0.2"/>
    </g>
   </g>
   <g id="LineCollection_1">
    <path d="M 92.870129 174.390015
L 116.49257 174.390015
" clip-path="url(#pbbf543a0d2)" style="fill: none; stroke: #20242a; stroke-width: 1.5"/>
    <path d="M 156.714563 150.699007
L 180.337003 150.699007
" clip-path="url(#pbbf543a0d2)" style="fill: none; stroke: #20242a; stroke-width: 1.5"/>
    <path d="M 220.558997 119.110998
L 244.181437 119.110998
" clip-path="url(#pbbf543a0d2)" style="fill: none; stroke: #20242a; stroke-width: 1.5"/>
    <path d="M 284.40343 83.574486
L 308.025871 83.574486
" clip-path="url(#pbbf543a0d2)" style="fill: none; stroke: #20242a; stroke-width: 1.5"/>
   </g>
   <g id="patch_3">
    <path d="M 69.12 207.36
L 69.12 46.656
" style="fill: none; stroke: #252a31; stroke-width: 0.9; stroke-linejoin: miter; stroke-linecap: square"/>
   </g>
   <g id="patch_4">
    <path d="M 69.12 207.36
L 331.776 207.36
" style="fill: none; stroke: #252a31; stroke-width: 0.9; stroke-linejoin: miter; stroke-linecap: square"/>
   </g>
   <g id="PathCollection_1">
    <defs>
     <path id="mb72d697abc" d="M 0 2.291288
C 0.607657 2.291288 1.190507 2.049863 1.620185 1.620185
C 2.049863 1.190507 2.291288 0.607657 2.291288 0
C 2.291288 -0.607657 2.049863 -1.190507 1.620185 -1.620185
C 1.190507 -2.049863 0.607657 -2.291288 0 -2.291288
C -0.607657 -2.291288 -1.190507 -2.049863 -1.620185 -1.620185
C -2.049863 -1.190507 -2.291288 -0.607657 -2.291288 0
C -2.291288 0.607657 -2.049863 1.190507 -1.620185 1.620185
C -1.190507 2.049863 -0.607657 2.291288 0 2.291288
z
" style="stroke: #ffffff; stroke-opacity: 0.72; stroke-width: 0.3"/>
    </defs>
    <g clip-path="url(#pbbf543a0d2)">
     <use xlink:href="#mb72d697abc" x="103.367689" y="176.364265" style="fill: #376795; fill-opacity: 0.72; stroke: #ffffff; stroke-opacity: 0.72; stroke-width: 0.3"/>
     <use xlink:href="#mb72d697abc" x="109.345711" y="152.673258" style="fill: #376795; fill-opacity: 0.72; stroke: #ffffff; stroke-opacity: 0.72; stroke-width: 0.3"/>
     <use xlink:href="#mb72d697abc" x="97.443533" y="188.209769" style="fill: #376795; fill-opacity: 0.72; stroke: #ffffff; stroke-opacity: 0.72; stroke-width: 0.3"/>
     <use xlink:href="#mb72d697abc" x="104.435706" y="164.518762" style="fill: #376795; fill-opacity: 0.72; stroke: #ffffff; stroke-opacity: 0.72; stroke-width: 0.3"/>
     <use xlink:href="#mb72d697abc" x="103.96795" y="200.055273" style="fill: #376795; fill-opacity: 0.72; stroke: #ffffff; stroke-opacity: 0.72; stroke-width: 0.3"/>
     <use xlink:href="#mb72d697abc" x="104.095559" y="144.776256" style="fill: #376795; fill-opacity: 0.72; stroke: #ffffff; stroke-opacity: 0.72; stroke-width: 0.3"/>
     <use xlink:href="#mb72d697abc" x="111.013803" y="180.312767" style="fill: #376795; fill-opacity: 0.72; stroke: #ffffff; stroke-opacity: 0.72; stroke-width: 0.3"/>
     <use xlink:href="#mb72d697abc" x="101.937045" y="168.467263" style="fill: #376795; fill-opacity: 0.72; stroke: #ffffff; stroke-opacity: 0.72; stroke-width: 0.3"/>
     <use xlink:href="#mb72d697abc" x="106.831443" y="196.106771" style="fill: #376795; fill-opacity: 0.72; stroke: #ffffff; stroke-opacity: 0.72; stroke-width: 0.3"/>
     <use xlink:href="#mb72d697abc" x="110.571815" y="160.57026" style="fill: #376795; fill-opacity: 0.72; stroke: #ffffff; stroke-opacity: 0.72; stroke-width: 0.3"/>
     <use xlink:href="#mb72d697abc" x="101.911496" y="184.261268" style="fill: #376795; fill-opacity: 0.72; stroke: #ffffff; stroke-opacity: 0.72; stroke-width: 0.3"/>
     <use xlink:href="#mb72d697abc" x="108.533111" y="172.415764" style="fill: #376795; fill-opacity: 0.72; stroke: #ffffff; stroke-opacity: 0.72; stroke-width: 0.3"/>
    </g>
   </g>
   <g id="PathCollection_2">
    <defs>
     <path id="mfbb688cc65" d="M 0 2.291288
C 0.607657 2.291288 1.190507 2.049863 1.620185 1.620185
C 2.049863 1.190507 2.291288 0.607657 2.291288 0
C 2.291288 -0.607657 2.049863 -1.190507 1.620185 -1.620185
C 1.190507 -2.049863 0.607657 -2.291288 0 -2.291288
C -0.607657 -2.291288 -1.190507 -2.049863 -1.620185 -1.620185
C -2.049863 -1.190507 -2.291288 -0.607657 -2.291288 0
C -2.291288 0.607657 -2.049863 1.190507 -1.620185 1.620185
C -1.190507 2.049863 -0.607657 2.291288 0 2.291288
z
" style="stroke: #ffffff; stroke-opacity: 0.72; stroke-width: 0.3"/>
    </defs>
    <g clip-path="url(#pbbf543a0d2)">
     <use xlink:href="#mfbb688cc65" x="167.30249" y="156.621759" style="fill: #b72230; fill-opacity: 0.72; stroke: #ffffff; stroke-opacity: 0.72; stroke-width: 0.3"/>
     <use xlink:href="#mfbb688cc65" x="161.795599" y="132.930752" style="fill: #b72230; fill-opacity: 0.72; stroke: #ffffff; stroke-opacity: 0.72; stroke-width: 0.3"/>
     <use xlink:href="#mfbb688cc65" x="168.699056" y="176.364265" style="fill: #b72230; fill-opacity: 0.72; stroke: #ffffff; stroke-opacity: 0.72; stroke-width: 0.3"/>
     <use xlink:href="#mfbb688cc65" x="169.476225" y="144.776256" style="fill: #b72230; fill-opacity: 0.72; stroke: #ffffff; stroke-opacity: 0.72; stroke-width: 0.3"/>
     <use xlink:href="#mfbb688cc65" x="169.821094" y="164.518762" style="fill: #b72230; fill-opacity: 0.72; stroke: #ffffff; stroke-opacity: 0.72; stroke-width: 0.3"/>
     <use xlink:href="#mfbb688cc65" x="165.671118" y="125.033749" style="fill: #b72230; fill-opacity: 0.72; stroke: #ffffff; stroke-opacity: 0.72; stroke-width: 0.3"/>
     <use xlink:href="#mfbb688cc65" x="163.934981" y="152.673258" style="fill: #b72230; fill-opacity: 0.72; stroke: #ffffff; stroke-opacity: 0.72; stroke-width: 0.3"/>
     <use xlink:href="#mfbb688cc65" x="165.49525" y="140.827754" style="fill: #b72230; fill-opacity: 0.72; stroke: #ffffff; stroke-opacity: 0.72; stroke-width: 0.3"/>
     <use xlink:href="#mfbb688cc65" x="176.145278" y="168.467263" style="fill: #b72230; fill-opacity: 0.72; stroke: #ffffff; stroke-opacity: 0.72; stroke-width: 0.3"/>
     <use xlink:href="#mfbb688cc65" x="175.062935" y="136.879253" style="fill: #b72230; fill-opacity: 0.72; stroke: #ffffff; stroke-opacity: 0.72; stroke-width: 0.3"/>
     <use xlink:href="#mfbb688cc65" x="161.052582" y="160.57026" style="fill: #b72230; fill-opacity: 0.72; stroke: #ffffff; stroke-opacity: 0.72; stroke-width: 0.3"/>
     <use xlink:href="#mfbb688cc65" x="173.098651" y="148.724757" style="fill: #b72230; fill-opacity: 0.72; stroke: #ffffff; stroke-opacity: 0.72; stroke-width: 0.3"/>
    </g>
   </g>
   <g id="PathCollection_3">
    <defs>
     <path id="m81169fde5b" d="M 0 2.291288
C 0.607657 2.291288 1.190507 2.049863 1.620185 1.620185
C 2.049863 1.190507 2.291288 0.607657 2.291288 0
C 2.291288 -0.607657 2.049863 -1.190507 1.620185 -1.620185
C 1.190507 -2.049863 0.607657 -2.291288 0 -2.291288
C -0.607657 -2.291288 -1.190507 -2.049863 -1.620185 -1.620185
C -2.049863 -1.190507 -2.291288 -0.607657 -2.291288 0
C -2.291288 0.607657 -2.049863 1.190507 -1.620185 1.620185
C -1.190507 2.049863 -0.607657 2.291288 0 2.291288
z
" style="stroke: #ffffff; stroke-opacity: 0.72; stroke-width: 0.3"/>
    </defs>
    <g clip-path="url(#pbbf543a0d2)">
     <use xlink:href="#m81169fde5b" x="235.112789" y="128.982251" style="fill: #d6a84b; fill-opacity: 0.72; stroke: #ffffff; stroke-opacity: 0.72; stroke-width: 0.3"/>
     <use xlink:href="#m81169fde5b" x="239.421233" y="105.291243" style="fill: #d6a84b; fill-opacity: 0.72; stroke: #ffffff; stroke-opacity: 0.72; stroke-width: 0.3"/>
     <use xlink:href="#m81169fde5b" x="237.312384" y="140.827754" style="fill: #d6a84b; fill-opacity: 0.72; stroke: #ffffff; stroke-opacity: 0.72; stroke-width: 0.3"/>
     <use xlink:href="#m81169fde5b" x="227.95554" y="117.136747" style="fill: #d6a84b; fill-opacity: 0.72; stroke: #ffffff; stroke-opacity: 0.72; stroke-width: 0.3"/>
     <use xlink:href="#m81169fde5b" x="225.773427" y="136.879253" style="fill: #d6a84b; fill-opacity: 0.72; stroke: #ffffff; stroke-opacity: 0.72; stroke-width: 0.3"/>
     <use xlink:href="#m81169fde5b" x="231.843953" y="93.44574" style="fill: #d6a84b; fill-opacity: 0.72; stroke: #ffffff; stroke-opacity: 0.72; stroke-width: 0.3"/>
     <use xlink:href="#m81169fde5b" x="236.784901" y="121.085248" style="fill: #d6a84b; fill-opacity: 0.72; stroke: #ffffff; stroke-opacity: 0.72; stroke-width: 0.3"/>
     <use xlink:href="#m81169fde5b" x="227.985952" y="109.239744" style="fill: #d6a84b; fill-opacity: 0.72; stroke: #ffffff; stroke-opacity: 0.72; stroke-width: 0.3"/>
     <use xlink:href="#m81169fde5b" x="226.994374" y="144.776256" style="fill: #d6a84b; fill-opacity: 0.72; stroke: #ffffff; stroke-opacity: 0.72; stroke-width: 0.3"/>
     <use xlink:href="#m81169fde5b" x="234.406818" y="101.342742" style="fill: #d6a84b; fill-opacity: 0.72; stroke: #ffffff; stroke-opacity: 0.72; stroke-width: 0.3"/>
     <use xlink:href="#m81169fde5b" x="238.446856" y="125.033749" style="fill: #d6a84b; fill-opacity: 0.72; stroke: #ffffff; stroke-opacity: 0.72; stroke-width: 0.3"/>
     <use xlink:href="#m81169fde5b" x="235.218488" y="113.188246" style="fill: #d6a84b; fill-opacity: 0.72; stroke: #ffffff; stroke-opacity: 0.72; stroke-width: 0.3"/>
    </g>
   </g>
   <g id="PathCollection_4">
    <defs>
     <path id="m8ec75b72df" d="M 0 2.291288
C 0.607657 2.291288 1.190507 2.049863 1.620185 1.620185
C 2.049863 1.190507 2.291288 0.607657 2.291288 0
C 2.291288 -0.607657 2.049863 -1.190507 1.620185 -1.620185
C 1.190507 -2.049863 0.607657 -2.291288 0 -2.291288
C -0.607657 -2.291288 -1.190507 -2.049863 -1.620185 -1.620185
C -2.049863 -1.190507 -2.291288 -0.607657 -2.291288 0
C -2.291288 0.607657 -2.049863 1.190507 -1.620185 1.620185
C -1.190507 2.049863 -0.607657 2.291288 0 2.291288
z
" style="stroke: #ffffff; stroke-opacity: 0.72; stroke-width: 0.3"/>
    </defs>
    <g clip-path="url(#pbbf543a0d2)">
     <use xlink:href="#m8ec75b72df" x="297.96088" y="97.394241" style="fill: #6fa6a0; fill-opacity: 0.72; stroke: #ffffff; stroke-opacity: 0.72; stroke-width: 0.3"/>
     <use xlink:href="#m8ec75b72df" x="301.73421" y="65.806231" style="fill: #6fa6a0; fill-opacity: 0.72; stroke: #ffffff; stroke-opacity: 0.72; stroke-width: 0.3"/>
     <use xlink:href="#m8ec75b72df" x="296.835944" y="109.239744" style="fill: #6fa6a0; fill-opacity: 0.72; stroke: #ffffff; stroke-opacity: 0.72; stroke-width: 0.3"/>
     <use xlink:href="#m8ec75b72df" x="290.444661" y="81.600236" style="fill: #6fa6a0; fill-opacity: 0.72; stroke: #ffffff; stroke-opacity: 0.72; stroke-width: 0.3"/>
     <use xlink:href="#m8ec75b72df" x="292.559407" y="101.342742" style="fill: #6fa6a0; fill-opacity: 0.72; stroke: #ffffff; stroke-opacity: 0.72; stroke-width: 0.3"/>
     <use xlink:href="#m8ec75b72df" x="290.550216" y="53.960727" style="fill: #6fa6a0; fill-opacity: 0.72; stroke: #ffffff; stroke-opacity: 0.72; stroke-width: 0.3"/>
     <use xlink:href="#m8ec75b72df" x="294.227227" y="85.548737" style="fill: #6fa6a0; fill-opacity: 0.72; stroke: #ffffff; stroke-opacity: 0.72; stroke-width: 0.3"/>
     <use xlink:href="#m8ec75b72df" x="302.889683" y="73.703233" style="fill: #6fa6a0; fill-opacity: 0.72; stroke: #ffffff; stroke-opacity: 0.72; stroke-width: 0.3"/>
     <use xlink:href="#m8ec75b72df" x="298.269262" y="105.291243" style="fill: #6fa6a0; fill-opacity: 0.72; stroke: #ffffff; stroke-opacity: 0.72; stroke-width: 0.3"/>
     <use xlink:href="#m8ec75b72df" x="290.651716" y="61.85773" style="fill: #6fa6a0; fill-opacity: 0.72; stroke: #ffffff; stroke-opacity: 0.72; stroke-width: 0.3"/>
     <use xlink:href="#m8ec75b72df" x="288.993875" y="93.44574" style="fill: #6fa6a0; fill-opacity: 0.72; stroke: #ffffff; stroke-opacity: 0.72; stroke-width: 0.3"/>
     <use xlink:href="#m8ec75b72df" x="295.864777" y="77.651735" style="fill: #6fa6a0; fill-opacity: 0.72; stroke: #ffffff; stroke-opacity: 0.72; stroke-width: 0.3"/>
    </g>
   </g>
  </g>
 </g>
 <defs>
  <clipPath id="pbbf543a0d2">
   <rect x="69.12" y="46.656" width="262.656" height="160.704"/>
  </clipPath>
 </defs>
</svg>
